<?xml version="1.0" encoding="utf-8" standalone="no"?>
<!DOCTYPE svg PUBLIC "-//W3C//DTD SVG 1.1//EN"
  "http://www.w3.org/Graphics/SVG/1.1/DTD/svg11.dtd">
<!-- Created with matplotlib (https://matplotlib.org/) -->
<svg height="311.638334pt" version="1.1" viewBox="0 0 419.873125 311.638334" width="419.873125pt" xmlns="http://www.w3.org/2000/svg" xmlns:xlink="http://www.w3.org/1999/xlink">
 <metadata>
  <rdf:RDF xmlns:cc="http://creativecommons.org/ns#" xmlns:dc="http://purl.org/dc/elements/1.1/" xmlns:rdf="http://www.w3.org/1999/02/22-rdf-syntax-ns#">
   <cc:Work>
    <dc:type rdf:resource="http://purl.org/dc/dcmitype/StillImage"/>
    <dc:date>2020-10-02T22:26:54.102509</dc:date>
    <dc:format>image/svg+xml</dc:format>
    <dc:creator>
     <cc:Agent>
      <dc:title>Matplotlib v3.3.2, https://matplotlib.org/</dc:title>
     </cc:Agent>
    </dc:creator>
   </cc:Work>
  </rdf:RDF>
 </metadata>
 <defs>
  <style type="text/css">*{stroke-linecap:butt;stroke-linejoin:round;}</style>
 </defs>
 <g id="figure_1">
  <g id="patch_1">
   <path d="M 0 311.638334 
L 419.873125 311.638334 
L 419.873125 0 
L 0 0 
z
" style="fill:#ffffff;"/>
  </g>
  <g id="axes_1">
   <g id="patch_2">
    <path d="M 55.553125 287.760209 
L 412.673125 287.760209 
L 412.673125 22.318125 
L 55.553125 22.318125 
z
" style="fill:#ffffff;"/>
   </g>
   <g id="PathCollection_1">
    <path clip-path="url(#pb47032b60c)" d="M 233.637717 150.542882 
C 234.433327 150.542882 235.196457 150.226783 235.759038 149.664202 
C 236.321618 149.101622 236.637717 148.338491 236.637717 147.542882 
C 236.637717 146.747273 236.321618 145.984142 235.759038 145.421562 
C 235.196457 144.858981 234.433327 144.542882 233.637717 144.542882 
C 232.842108 144.542882 232.078978 144.858981 231.516397 145.421562 
C 230.953816 145.984142 230.637717 146.747273 230.637717 147.542882 
C 230.637717 148.338491 230.953816 149.101622 231.516397 149.664202 
C 232.078978 150.226783 232.842108 150.542882 233.637717 150.542882 
z
" style="fill:none;stroke:#0000ff;stroke-width:0.7;"/>
   </g>
   <g id="PathCollection_2">
    <path clip-path="url(#pb47032b60c)" d="M 246.356598 150.674954 
L 243.356598 156.674954 
L 249.356598 156.674954 
z
" style="fill:none;stroke:#ff0000;stroke-width:0.7;"/>
   </g>
   <g id="PathCollection_3">
    <path clip-path="url(#pb47032b60c)" d="M 261.790127 161.960721 
L 258.790127 167.960721 
L 264.790127 167.960721 
z
" style="fill:none;stroke:#ff0000;stroke-width:0.7;"/>
   </g>
   <g id="PathCollection_4">
    <path clip-path="url(#pb47032b60c)" d="M 310.254163 54.683918 
L 307.254163 60.683918 
L 313.254163 60.683918 
z
" style="fill:none;stroke:#ff0000;stroke-width:0.7;"/>
   </g>
   <g id="PathCollection_5">
    <path clip-path="url(#pb47032b60c)" d="M 310.254163 54.683918 
L 307.254163 60.683918 
L 313.254163 60.683918 
z
" style="fill:none;stroke:#ff0000;stroke-width:0.7;"/>
   </g>
   <g id="PathCollection_6">
    <path clip-path="url(#pb47032b60c)" d="M 343.849647 50.949555 
L 340.849647 56.949555 
L 346.849647 56.949555 
z
" style="fill:none;stroke:#ff0000;stroke-width:0.7;"/>
   </g>
   <g id="PathCollection_7">
    <path clip-path="url(#pb47032b60c)" d="M 334.162352 55.179996 
L 331.162352 61.179996 
L 337.162352 61.179996 
z
" style="fill:none;stroke:#ff0000;stroke-width:0.7;"/>
   </g>
   <g id="PathCollection_8">
    <path clip-path="url(#pb47032b60c)" d="M 290.245695 44.335186 
L 287.245695 50.335186 
L 293.245695 50.335186 
z
" style="fill:none;stroke:#ff0000;stroke-width:0.7;"/>
   </g>
   <g id="PathCollection_9">
    <path clip-path="url(#pb47032b60c)" d="M 156.690553 148.999529 
L 159.690553 142.999529 
L 153.690553 142.999529 
z
" style="fill:none;stroke:#008000;stroke-width:0.7;"/>
   </g>
   <g id="PathCollection_10">
    <path clip-path="url(#pb47032b60c)" d="M 156.690553 148.999529 
L 159.690553 142.999529 
L 153.690553 142.999529 
z
" style="fill:none;stroke:#008000;stroke-width:0.7;"/>
   </g>
   <g id="PathCollection_11">
    <path clip-path="url(#pb47032b60c)" d="M 135.648591 263.703718 
L 138.648591 257.703718 
L 132.648591 257.703718 
z
" style="fill:none;stroke:#008000;stroke-width:0.7;"/>
   </g>
   <g id="PathCollection_12">
    <path clip-path="url(#pb47032b60c)" d="M 135.648591 263.703718 
L 138.648591 257.703718 
L 132.648591 257.703718 
z
" style="fill:none;stroke:#008000;stroke-width:0.7;"/>
   </g>
   <g id="PathCollection_13">
    <path clip-path="url(#pb47032b60c)" d="M 135.648591 263.703718 
L 138.648591 257.703718 
L 132.648591 257.703718 
z
" style="fill:none;stroke:#008000;stroke-width:0.7;"/>
   </g>
   <g id="PathCollection_14">
    <path clip-path="url(#pb47032b60c)" d="M 130.922073 262.284385 
L 133.922073 256.284385 
L 127.922073 256.284385 
z
" style="fill:none;stroke:#008000;stroke-width:0.7;"/>
   </g>
   <g id="PathCollection_15">
    <path clip-path="url(#pb47032b60c)" d="M 205.168369 240.897924 
L 208.168369 234.897924 
L 202.168369 234.897924 
z
" style="fill:none;stroke:#008000;stroke-width:0.7;"/>
   </g>
   <g id="PathCollection_16">
    <defs>
     <path d="M -5 5 
L 5 -5 
M -5 -5 
L 5 5 
" id="mc980e4aa0e" style="stroke:#ff0000;stroke-width:1.5;"/>
    </defs>
    <g clip-path="url(#pb47032b60c)">
     <use style="fill:#ff0000;stroke:#ff0000;stroke-width:1.5;" x="240.734384" xlink:href="#mc980e4aa0e" y="235.321076"/>
     <use style="fill:#ff0000;stroke:#ff0000;stroke-width:1.5;" x="223.716163" xlink:href="#mc980e4aa0e" y="237.195147"/>
     <use style="fill:#ff0000;stroke:#ff0000;stroke-width:1.5;" x="147.871394" xlink:href="#mc980e4aa0e" y="137.18037"/>
     <use style="fill:#ff0000;stroke:#ff0000;stroke-width:1.5;" x="334.162352" xlink:href="#mc980e4aa0e" y="58.179996"/>
     <use style="fill:#ff0000;stroke:#ff0000;stroke-width:1.5;" x="359.903273" xlink:href="#mc980e4aa0e" y="44.22092"/>
     <use style="fill:#ff0000;stroke:#ff0000;stroke-width:1.5;" x="303.322855" xlink:href="#mc980e4aa0e" y="77.568366"/>
     <use style="fill:#ff0000;stroke:#ff0000;stroke-width:1.5;" x="144.068132" xlink:href="#mc980e4aa0e" y="269.123259"/>
     <use style="fill:#ff0000;stroke:#ff0000;stroke-width:1.5;" x="402.565955" xlink:href="#mc980e4aa0e" y="243.285879"/>
     <use style="fill:#ff0000;stroke:#ff0000;stroke-width:1.5;" x="355.507473" xlink:href="#mc980e4aa0e" y="32.425295"/>
     <use style="fill:#ff0000;stroke:#ff0000;stroke-width:1.5;" x="402.565955" xlink:href="#mc980e4aa0e" y="243.285879"/>
     <use style="fill:#ff0000;stroke:#ff0000;stroke-width:1.5;" x="270.002969" xlink:href="#mc980e4aa0e" y="155.218306"/>
     <use style="fill:#ff0000;stroke:#ff0000;stroke-width:1.5;" x="249.608663" xlink:href="#mc980e4aa0e" y="46.32925"/>
     <use style="fill:#ff0000;stroke:#ff0000;stroke-width:1.5;" x="270.002969" xlink:href="#mc980e4aa0e" y="155.218306"/>
     <use style="fill:#ff0000;stroke:#ff0000;stroke-width:1.5;" x="83.174594" xlink:href="#mc980e4aa0e" y="181.799803"/>
     <use style="fill:#ff0000;stroke:#ff0000;stroke-width:1.5;" x="206.381003" xlink:href="#mc980e4aa0e" y="241.177548"/>
     <use style="fill:#ff0000;stroke:#ff0000;stroke-width:1.5;" x="141.560183" xlink:href="#mc980e4aa0e" y="277.65304"/>
     <use style="fill:#ff0000;stroke:#ff0000;stroke-width:1.5;" x="206.050285" xlink:href="#mc980e4aa0e" y="123.193735"/>
     <use style="fill:#ff0000;stroke:#ff0000;stroke-width:1.5;" x="328.843296" xlink:href="#mc980e4aa0e" y="137.566208"/>
     <use style="fill:#ff0000;stroke:#ff0000;stroke-width:1.5;" x="327.616882" xlink:href="#mc980e4aa0e" y="135.223619"/>
     <use style="fill:#ff0000;stroke:#ff0000;stroke-width:1.5;" x="359.903273" xlink:href="#mc980e4aa0e" y="44.22092"/>
    </g>
   </g>
   <g id="PathCollection_17">
    <path clip-path="url(#pb47032b60c)" d="M 233.637717 150.542882 
C 234.433327 150.542882 235.196457 150.226783 235.759038 149.664202 
C 236.321618 149.101622 236.637717 148.338491 236.637717 147.542882 
C 236.637717 146.747273 236.321618 145.984142 235.759038 145.421562 
C 235.196457 144.858981 234.433327 144.542882 233.637717 144.542882 
C 232.842108 144.542882 232.078978 144.858981 231.516397 145.421562 
C 230.953816 145.984142 230.637717 146.747273 230.637717 147.542882 
C 230.637717 148.338491 230.953816 149.101622 231.516397 149.664202 
C 232.078978 150.226783 232.842108 150.542882 233.637717 150.542882 
z
" style="fill:none;stroke:#0000ff;stroke-width:0.7;"/>
   </g>
   <g id="PathCollection_18">
    <path clip-path="url(#pb47032b60c)" d="M 176.726581 238.701186 
L 173.726581 244.701186 
L 179.726581 244.701186 
z
" style="fill:none;stroke:#ff0000;stroke-width:0.7;"/>
   </g>
   <g id="PathCollection_19">
    <path clip-path="url(#pb47032b60c)" d="M 206.381003 238.177548 
L 203.381003 244.177548 
L 209.381003 244.177548 
z
" style="fill:none;stroke:#ff0000;stroke-width:0.7;"/>
   </g>
   <g id="PathCollection_20">
    <path clip-path="url(#pb47032b60c)" d="M 234.726332 235.201082 
L 231.726332 241.201082 
L 237.726332 241.201082 
z
" style="fill:none;stroke:#ff0000;stroke-width:0.7;"/>
   </g>
   <g id="PathCollection_21">
    <path clip-path="url(#pb47032b60c)" d="M 234.726332 235.201082 
L 231.726332 241.201082 
L 237.726332 241.201082 
z
" style="fill:none;stroke:#ff0000;stroke-width:0.7;"/>
   </g>
   <g id="PathCollection_22">
    <path clip-path="url(#pb47032b60c)" d="M 262.382664 241.443393 
L 259.382664 247.443393 
L 265.382664 247.443393 
z
" style="fill:none;stroke:#ff0000;stroke-width:0.7;"/>
   </g>
   <g id="PathCollection_23">
    <path clip-path="url(#pb47032b60c)" d="M 262.382664 241.443393 
L 259.382664 247.443393 
L 265.382664 247.443393 
z
" style="fill:none;stroke:#ff0000;stroke-width:0.7;"/>
   </g>
   <g id="PathCollection_24">
    <path clip-path="url(#pb47032b60c)" d="M 366.820801 66.093705 
L 363.820801 72.093705 
L 369.820801 72.093705 
z
" style="fill:none;stroke:#ff0000;stroke-width:0.7;"/>
   </g>
   <g id="PathCollection_25">
    <path clip-path="url(#pb47032b60c)" d="M 310.254163 54.683918 
L 307.254163 60.683918 
L 313.254163 60.683918 
z
" style="fill:none;stroke:#ff0000;stroke-width:0.7;"/>
   </g>
   <g id="PathCollection_26">
    <path clip-path="url(#pb47032b60c)" d="M 198.057922 117.980893 
L 201.057922 111.980893 
L 195.057922 111.980893 
z
" style="fill:none;stroke:#008000;stroke-width:0.7;"/>
   </g>
   <g id="PathCollection_27">
    <path clip-path="url(#pb47032b60c)" d="M 198.057922 117.980893 
L 201.057922 111.980893 
L 195.057922 111.980893 
z
" style="fill:none;stroke:#008000;stroke-width:0.7;"/>
   </g>
   <g id="PathCollection_28">
    <path clip-path="url(#pb47032b60c)" d="M 117.417735 136.115289 
L 120.417735 130.115289 
L 114.417735 130.115289 
z
" style="fill:none;stroke:#008000;stroke-width:0.7;"/>
   </g>
   <g id="PathCollection_29">
    <path clip-path="url(#pb47032b60c)" d="M 134.656435 131.319871 
L 137.656435 125.319871 
L 131.656435 125.319871 
z
" style="fill:none;stroke:#008000;stroke-width:0.7;"/>
   </g>
   <g id="PathCollection_30">
    <path clip-path="url(#pb47032b60c)" d="M 139.258934 126.152395 
L 142.258934 120.152395 
L 136.258934 120.152395 
z
" style="fill:none;stroke:#008000;stroke-width:0.7;"/>
   </g>
   <g id="PathCollection_31">
    <path clip-path="url(#pb47032b60c)" d="M 126.512493 130.603314 
L 129.512493 124.603314 
L 123.512493 124.603314 
z
" style="fill:none;stroke:#008000;stroke-width:0.7;"/>
   </g>
   <g id="PathCollection_32">
    <path clip-path="url(#pb47032b60c)" d="M 135.648591 263.703718 
L 138.648591 257.703718 
L 132.648591 257.703718 
z
" style="fill:none;stroke:#008000;stroke-width:0.7;"/>
   </g>
   <g id="PathCollection_33">
    <path clip-path="url(#pb47032b60c)" d="M 65.660295 208.694213 
L 68.660295 202.694213 
L 62.660295 202.694213 
z
" style="fill:none;stroke:#008000;stroke-width:0.7;"/>
   </g>
   <g id="PathCollection_34">
    <g clip-path="url(#pb47032b60c)">
     <use style="fill:#ff0000;stroke:#ff0000;stroke-width:1.5;" x="240.734384" xlink:href="#mc980e4aa0e" y="235.321076"/>
     <use style="fill:#ff0000;stroke:#ff0000;stroke-width:1.5;" x="223.716163" xlink:href="#mc980e4aa0e" y="237.195147"/>
     <use style="fill:#ff0000;stroke:#ff0000;stroke-width:1.5;" x="147.871394" xlink:href="#mc980e4aa0e" y="137.18037"/>
     <use style="fill:#ff0000;stroke:#ff0000;stroke-width:1.5;" x="334.162352" xlink:href="#mc980e4aa0e" y="58.179996"/>
     <use style="fill:#ff0000;stroke:#ff0000;stroke-width:1.5;" x="359.903273" xlink:href="#mc980e4aa0e" y="44.22092"/>
     <use style="fill:#ff0000;stroke:#ff0000;stroke-width:1.5;" x="303.322855" xlink:href="#mc980e4aa0e" y="77.568366"/>
     <use style="fill:#ff0000;stroke:#ff0000;stroke-width:1.5;" x="144.068132" xlink:href="#mc980e4aa0e" y="269.123259"/>
     <use style="fill:#ff0000;stroke:#ff0000;stroke-width:1.5;" x="402.565955" xlink:href="#mc980e4aa0e" y="243.285879"/>
     <use style="fill:#ff0000;stroke:#ff0000;stroke-width:1.5;" x="355.507473" xlink:href="#mc980e4aa0e" y="32.425295"/>
     <use style="fill:#ff0000;stroke:#ff0000;stroke-width:1.5;" x="402.565955" xlink:href="#mc980e4aa0e" y="243.285879"/>
     <use style="fill:#ff0000;stroke:#ff0000;stroke-width:1.5;" x="270.002969" xlink:href="#mc980e4aa0e" y="155.218306"/>
     <use style="fill:#ff0000;stroke:#ff0000;stroke-width:1.5;" x="249.608663" xlink:href="#mc980e4aa0e" y="46.32925"/>
     <use style="fill:#ff0000;stroke:#ff0000;stroke-width:1.5;" x="270.002969" xlink:href="#mc980e4aa0e" y="155.218306"/>
     <use style="fill:#ff0000;stroke:#ff0000;stroke-width:1.5;" x="83.174594" xlink:href="#mc980e4aa0e" y="181.799803"/>
     <use style="fill:#ff0000;stroke:#ff0000;stroke-width:1.5;" x="206.381003" xlink:href="#mc980e4aa0e" y="241.177548"/>
     <use style="fill:#ff0000;stroke:#ff0000;stroke-width:1.5;" x="141.560183" xlink:href="#mc980e4aa0e" y="277.65304"/>
     <use style="fill:#ff0000;stroke:#ff0000;stroke-width:1.5;" x="206.050285" xlink:href="#mc980e4aa0e" y="123.193735"/>
     <use style="fill:#ff0000;stroke:#ff0000;stroke-width:1.5;" x="328.843296" xlink:href="#mc980e4aa0e" y="137.566208"/>
     <use style="fill:#ff0000;stroke:#ff0000;stroke-width:1.5;" x="327.616882" xlink:href="#mc980e4aa0e" y="135.223619"/>
     <use style="fill:#ff0000;stroke:#ff0000;stroke-width:1.5;" x="359.903273" xlink:href="#mc980e4aa0e" y="44.22092"/>
    </g>
   </g>
   <g id="PathCollection_35">
    <path clip-path="url(#pb47032b60c)" d="M 233.637717 150.542882 
C 234.433327 150.542882 235.196457 150.226783 235.759038 149.664202 
C 236.321618 149.101622 236.637717 148.338491 236.637717 147.542882 
C 236.637717 146.747273 236.321618 145.984142 235.759038 145.421562 
C 235.196457 144.858981 234.433327 144.542882 233.637717 144.542882 
C 232.842108 144.542882 232.078978 144.858981 231.516397 145.421562 
C 230.953816 145.984142 230.637717 146.747273 230.637717 147.542882 
C 230.637717 148.338491 230.953816 149.101622 231.516397 149.664202 
C 232.078978 150.226783 232.842108 150.542882 233.637717 150.542882 
z
" style="fill:none;stroke:#0000ff;stroke-width:0.7;"/>
   </g>
   <g id="PathCollection_36">
    <path clip-path="url(#pb47032b60c)" d="M 206.381003 238.177548 
L 203.381003 244.177548 
L 209.381003 244.177548 
z
" style="fill:none;stroke:#ff0000;stroke-width:0.7;"/>
   </g>
   <g id="PathCollection_37">
    <path clip-path="url(#pb47032b60c)" d="M 234.726332 235.201082 
L 231.726332 241.201082 
L 237.726332 241.201082 
z
" style="fill:none;stroke:#ff0000;stroke-width:0.7;"/>
   </g>
   <g id="PathCollection_38">
    <path clip-path="url(#pb47032b60c)" d="M 262.382664 241.443393 
L 259.382664 247.443393 
L 265.382664 247.443393 
z
" style="fill:none;stroke:#ff0000;stroke-width:0.7;"/>
   </g>
   <g id="PathCollection_39">
    <path clip-path="url(#pb47032b60c)" d="M 261.790127 161.960721 
L 258.790127 167.960721 
L 264.790127 167.960721 
z
" style="fill:none;stroke:#ff0000;stroke-width:0.7;"/>
   </g>
   <g id="PathCollection_40">
    <path clip-path="url(#pb47032b60c)" d="M 366.366063 115.839275 
L 363.366063 121.839275 
L 369.366063 121.839275 
z
" style="fill:none;stroke:#ff0000;stroke-width:0.7;"/>
   </g>
   <g id="PathCollection_41">
    <path clip-path="url(#pb47032b60c)" d="M 349.651 71.53678 
L 346.651 77.53678 
L 352.651 77.53678 
z
" style="fill:none;stroke:#ff0000;stroke-width:0.7;"/>
   </g>
   <g id="PathCollection_42">
    <path clip-path="url(#pb47032b60c)" d="M 349.651 71.53678 
L 346.651 77.53678 
L 352.651 77.53678 
z
" style="fill:none;stroke:#ff0000;stroke-width:0.7;"/>
   </g>
   <g id="PathCollection_43">
    <path clip-path="url(#pb47032b60c)" d="M 310.254163 54.683918 
L 307.254163 60.683918 
L 313.254163 60.683918 
z
" style="fill:none;stroke:#ff0000;stroke-width:0.7;"/>
   </g>
   <g id="PathCollection_44">
    <path clip-path="url(#pb47032b60c)" d="M 303.956732 63.481245 
L 306.956732 57.481245 
L 300.956732 57.481245 
z
" style="fill:none;stroke:#008000;stroke-width:0.7;"/>
   </g>
   <g id="PathCollection_45">
    <path clip-path="url(#pb47032b60c)" d="M 212.774894 48.571354 
L 215.774894 42.571354 
L 209.774894 42.571354 
z
" style="fill:none;stroke:#008000;stroke-width:0.7;"/>
   </g>
   <g id="PathCollection_46">
    <path clip-path="url(#pb47032b60c)" d="M 212.774894 48.571354 
L 215.774894 42.571354 
L 209.774894 42.571354 
z
" style="fill:none;stroke:#008000;stroke-width:0.7;"/>
   </g>
   <g id="PathCollection_47">
    <path clip-path="url(#pb47032b60c)" d="M 212.774894 48.571354 
L 215.774894 42.571354 
L 209.774894 42.571354 
z
" style="fill:none;stroke:#008000;stroke-width:0.7;"/>
   </g>
   <g id="PathCollection_48">
    <path clip-path="url(#pb47032b60c)" d="M 211.42446 62.695789 
L 214.42446 56.695789 
L 208.42446 56.695789 
z
" style="fill:none;stroke:#008000;stroke-width:0.7;"/>
   </g>
   <g id="PathCollection_49">
    <path clip-path="url(#pb47032b60c)" d="M 190.492737 81.560521 
L 193.492737 75.560521 
L 187.492737 75.560521 
z
" style="fill:none;stroke:#008000;stroke-width:0.7;"/>
   </g>
   <g id="PathCollection_50">
    <path clip-path="url(#pb47032b60c)" d="M 198.057922 117.980893 
L 201.057922 111.980893 
L 195.057922 111.980893 
z
" style="fill:none;stroke:#008000;stroke-width:0.7;"/>
   </g>
   <g id="PathCollection_51">
    <path clip-path="url(#pb47032b60c)" d="M 138.00496 66.871109 
L 141.00496 60.871109 
L 135.00496 60.871109 
z
" style="fill:none;stroke:#008000;stroke-width:0.7;"/>
   </g>
   <g id="PathCollection_52">
    <path clip-path="url(#pb47032b60c)" d="M 402.565955 240.285879 
L 399.565955 246.285879 
L 405.565955 246.285879 
z
" style="fill:none;stroke:#ff0000;stroke-width:0.7;"/>
   </g>
   <g id="PathCollection_53">
    <path clip-path="url(#pb47032b60c)" d="M 312.99637 170.716709 
L 315.99637 164.716709 
L 309.99637 164.716709 
z
" style="fill:none;stroke:#008000;stroke-width:0.7;"/>
   </g>
   <g id="PathCollection_54">
    <g clip-path="url(#pb47032b60c)">
     <use style="fill:#ff0000;stroke:#ff0000;stroke-width:1.5;" x="240.734384" xlink:href="#mc980e4aa0e" y="235.321076"/>
     <use style="fill:#ff0000;stroke:#ff0000;stroke-width:1.5;" x="223.716163" xlink:href="#mc980e4aa0e" y="237.195147"/>
     <use style="fill:#ff0000;stroke:#ff0000;stroke-width:1.5;" x="147.871394" xlink:href="#mc980e4aa0e" y="137.18037"/>
     <use style="fill:#ff0000;stroke:#ff0000;stroke-width:1.5;" x="334.162352" xlink:href="#mc980e4aa0e" y="58.179996"/>
     <use style="fill:#ff0000;stroke:#ff0000;stroke-width:1.5;" x="359.903273" xlink:href="#mc980e4aa0e" y="44.22092"/>
     <use style="fill:#ff0000;stroke:#ff0000;stroke-width:1.5;" x="303.322855" xlink:href="#mc980e4aa0e" y="77.568366"/>
     <use style="fill:#ff0000;stroke:#ff0000;stroke-width:1.5;" x="144.068132" xlink:href="#mc980e4aa0e" y="269.123259"/>
     <use style="fill:#ff0000;stroke:#ff0000;stroke-width:1.5;" x="402.565955" xlink:href="#mc980e4aa0e" y="243.285879"/>
     <use style="fill:#ff0000;stroke:#ff0000;stroke-width:1.5;" x="355.507473" xlink:href="#mc980e4aa0e" y="32.425295"/>
     <use style="fill:#ff0000;stroke:#ff0000;stroke-width:1.5;" x="402.565955" xlink:href="#mc980e4aa0e" y="243.285879"/>
     <use style="fill:#ff0000;stroke:#ff0000;stroke-width:1.5;" x="270.002969" xlink:href="#mc980e4aa0e" y="155.218306"/>
     <use style="fill:#ff0000;stroke:#ff0000;stroke-width:1.5;" x="249.608663" xlink:href="#mc980e4aa0e" y="46.32925"/>
     <use style="fill:#ff0000;stroke:#ff0000;stroke-width:1.5;" x="270.002969" xlink:href="#mc980e4aa0e" y="155.218306"/>
     <use style="fill:#ff0000;stroke:#ff0000;stroke-width:1.5;" x="83.174594" xlink:href="#mc980e4aa0e" y="181.799803"/>
     <use style="fill:#ff0000;stroke:#ff0000;stroke-width:1.5;" x="206.381003" xlink:href="#mc980e4aa0e" y="241.177548"/>
     <use style="fill:#ff0000;stroke:#ff0000;stroke-width:1.5;" x="141.560183" xlink:href="#mc980e4aa0e" y="277.65304"/>
     <use style="fill:#ff0000;stroke:#ff0000;stroke-width:1.5;" x="206.050285" xlink:href="#mc980e4aa0e" y="123.193735"/>
     <use style="fill:#ff0000;stroke:#ff0000;stroke-width:1.5;" x="328.843296" xlink:href="#mc980e4aa0e" y="137.566208"/>
     <use style="fill:#ff0000;stroke:#ff0000;stroke-width:1.5;" x="327.616882" xlink:href="#mc980e4aa0e" y="135.223619"/>
     <use style="fill:#ff0000;stroke:#ff0000;stroke-width:1.5;" x="359.903273" xlink:href="#mc980e4aa0e" y="44.22092"/>
    </g>
   </g>
   <g id="matplotlib.axis_1">
    <g id="xtick_1">
     <g id="line2d_1">
      <defs>
       <path d="M 0 0 
L 0 3.5 
" id="m2a0b871972" style="stroke:#000000;stroke-width:0.8;"/>
      </defs>
      <g>
       <use style="stroke:#000000;stroke-width:0.8;" x="110.073029" xlink:href="#m2a0b871972" y="287.760209"/>
      </g>
     </g>
     <g id="text_1">
      <!-- −71.070 -->
      <g transform="translate(88.387873 302.358647)scale(0.1 -0.1)">
       <defs>
        <path d="M 10.59375 35.5 
L 73.1875 35.5 
L 73.1875 27.203125 
L 10.59375 27.203125 
z
" id="DejaVuSans-8722"/>
        <path d="M 8.203125 72.90625 
L 55.078125 72.90625 
L 55.078125 68.703125 
L 28.609375 0 
L 18.3125 0 
L 43.21875 64.59375 
L 8.203125 64.59375 
z
" id="DejaVuSans-55"/>
        <path d="M 12.40625 8.296875 
L 28.515625 8.296875 
L 28.515625 63.921875 
L 10.984375 60.40625 
L 10.984375 69.390625 
L 28.421875 72.90625 
L 38.28125 72.90625 
L 38.28125 8.296875 
L 54.390625 8.296875 
L 54.390625 0 
L 12.40625 0 
z
" id="DejaVuSans-49"/>
        <path d="M 10.6875 12.40625 
L 21 12.40625 
L 21 0 
L 10.6875 0 
z
" id="DejaVuSans-46"/>
        <path d="M 31.78125 66.40625 
Q 24.171875 66.40625 20.328125 58.90625 
Q 16.5 51.421875 16.5 36.375 
Q 16.5 21.390625 20.328125 13.890625 
Q 24.171875 6.390625 31.78125 6.390625 
Q 39.453125 6.390625 43.28125 13.890625 
Q 47.125 21.390625 47.125 36.375 
Q 47.125 51.421875 43.28125 58.90625 
Q 39.453125 66.40625 31.78125 66.40625 
z
M 31.78125 74.21875 
Q 44.046875 74.21875 50.515625 64.515625 
Q 56.984375 54.828125 56.984375 36.375 
Q 56.984375 17.96875 50.515625 8.265625 
Q 44.046875 -1.421875 31.78125 -1.421875 
Q 19.53125 -1.421875 13.0625 8.265625 
Q 6.59375 17.96875 6.59375 36.375 
Q 6.59375 54.828125 13.0625 64.515625 
Q 19.53125 74.21875 31.78125 74.21875 
z
" id="DejaVuSans-48"/>
       </defs>
       <use xlink:href="#DejaVuSans-8722"/>
       <use x="83.789062" xlink:href="#DejaVuSans-55"/>
       <use x="147.412109" xlink:href="#DejaVuSans-49"/>
       <use x="211.035156" xlink:href="#DejaVuSans-46"/>
       <use x="242.822266" xlink:href="#DejaVuSans-48"/>
       <use x="306.445312" xlink:href="#DejaVuSans-55"/>
       <use x="370.068359" xlink:href="#DejaVuSans-48"/>
      </g>
     </g>
    </g>
    <g id="xtick_2">
     <g id="line2d_2">
      <g>
       <use style="stroke:#000000;stroke-width:0.8;" x="178.97271" xlink:href="#m2a0b871972" y="287.760209"/>
      </g>
     </g>
     <g id="text_2">
      <!-- −71.065 -->
      <g transform="translate(157.287554 302.358647)scale(0.1 -0.1)">
       <defs>
        <path d="M 33.015625 40.375 
Q 26.375 40.375 22.484375 35.828125 
Q 18.609375 31.296875 18.609375 23.390625 
Q 18.609375 15.53125 22.484375 10.953125 
Q 26.375 6.390625 33.015625 6.390625 
Q 39.65625 6.390625 43.53125 10.953125 
Q 47.40625 15.53125 47.40625 23.390625 
Q 47.40625 31.296875 43.53125 35.828125 
Q 39.65625 40.375 33.015625 40.375 
z
M 52.59375 71.296875 
L 52.59375 62.3125 
Q 48.875 64.0625 45.09375 64.984375 
Q 41.3125 65.921875 37.59375 65.921875 
Q 27.828125 65.921875 22.671875 59.328125 
Q 17.53125 52.734375 16.796875 39.40625 
Q 19.671875 43.65625 24.015625 45.921875 
Q 28.375 48.1875 33.59375 48.1875 
Q 44.578125 48.1875 50.953125 41.515625 
Q 57.328125 34.859375 57.328125 23.390625 
Q 57.328125 12.15625 50.6875 5.359375 
Q 44.046875 -1.421875 33.015625 -1.421875 
Q 20.359375 -1.421875 13.671875 8.265625 
Q 6.984375 17.96875 6.984375 36.375 
Q 6.984375 53.65625 15.1875 63.9375 
Q 23.390625 74.21875 37.203125 74.21875 
Q 40.921875 74.21875 44.703125 73.484375 
Q 48.484375 72.75 52.59375 71.296875 
z
" id="DejaVuSans-54"/>
        <path d="M 10.796875 72.90625 
L 49.515625 72.90625 
L 49.515625 64.59375 
L 19.828125 64.59375 
L 19.828125 46.734375 
Q 21.96875 47.46875 24.109375 47.828125 
Q 26.265625 48.1875 28.421875 48.1875 
Q 40.625 48.1875 47.75 41.5 
Q 54.890625 34.8125 54.890625 23.390625 
Q 54.890625 11.625 47.5625 5.09375 
Q 40.234375 -1.421875 26.90625 -1.421875 
Q 22.3125 -1.421875 17.546875 -0.640625 
Q 12.796875 0.140625 7.71875 1.703125 
L 7.71875 11.625 
Q 12.109375 9.234375 16.796875 8.0625 
Q 21.484375 6.890625 26.703125 6.890625 
Q 35.15625 6.890625 40.078125 11.328125 
Q 45.015625 15.765625 45.015625 23.390625 
Q 45.015625 31 40.078125 35.4375 
Q 35.15625 39.890625 26.703125 39.890625 
Q 22.75 39.890625 18.8125 39.015625 
Q 14.890625 38.140625 10.796875 36.28125 
z
" id="DejaVuSans-53"/>
       </defs>
       <use xlink:href="#DejaVuSans-8722"/>
       <use x="83.789062" xlink:href="#DejaVuSans-55"/>
       <use x="147.412109" xlink:href="#DejaVuSans-49"/>
       <use x="211.035156" xlink:href="#DejaVuSans-46"/>
       <use x="242.822266" xlink:href="#DejaVuSans-48"/>
       <use x="306.445312" xlink:href="#DejaVuSans-54"/>
       <use x="370.068359" xlink:href="#DejaVuSans-53"/>
      </g>
     </g>
    </g>
    <g id="xtick_3">
     <g id="line2d_3">
      <g>
       <use style="stroke:#000000;stroke-width:0.8;" x="247.872391" xlink:href="#m2a0b871972" y="287.760209"/>
      </g>
     </g>
     <g id="text_3">
      <!-- −71.060 -->
      <g transform="translate(226.187235 302.358647)scale(0.1 -0.1)">
       <use xlink:href="#DejaVuSans-8722"/>
       <use x="83.789062" xlink:href="#DejaVuSans-55"/>
       <use x="147.412109" xlink:href="#DejaVuSans-49"/>
       <use x="211.035156" xlink:href="#DejaVuSans-46"/>
       <use x="242.822266" xlink:href="#DejaVuSans-48"/>
       <use x="306.445312" xlink:href="#DejaVuSans-54"/>
       <use x="370.068359" xlink:href="#DejaVuSans-48"/>
      </g>
     </g>
    </g>
    <g id="xtick_4">
     <g id="line2d_4">
      <g>
       <use style="stroke:#000000;stroke-width:0.8;" x="316.772072" xlink:href="#m2a0b871972" y="287.760209"/>
      </g>
     </g>
     <g id="text_4">
      <!-- −71.055 -->
      <g transform="translate(295.086916 302.358647)scale(0.1 -0.1)">
       <use xlink:href="#DejaVuSans-8722"/>
       <use x="83.789062" xlink:href="#DejaVuSans-55"/>
       <use x="147.412109" xlink:href="#DejaVuSans-49"/>
       <use x="211.035156" xlink:href="#DejaVuSans-46"/>
       <use x="242.822266" xlink:href="#DejaVuSans-48"/>
       <use x="306.445312" xlink:href="#DejaVuSans-53"/>
       <use x="370.068359" xlink:href="#DejaVuSans-53"/>
      </g>
     </g>
    </g>
    <g id="xtick_5">
     <g id="line2d_5">
      <g>
       <use style="stroke:#000000;stroke-width:0.8;" x="385.671753" xlink:href="#m2a0b871972" y="287.760209"/>
      </g>
     </g>
     <g id="text_5">
      <!-- −71.050 -->
      <g transform="translate(363.986597 302.358647)scale(0.1 -0.1)">
       <use xlink:href="#DejaVuSans-8722"/>
       <use x="83.789062" xlink:href="#DejaVuSans-55"/>
       <use x="147.412109" xlink:href="#DejaVuSans-49"/>
       <use x="211.035156" xlink:href="#DejaVuSans-46"/>
       <use x="242.822266" xlink:href="#DejaVuSans-48"/>
       <use x="306.445312" xlink:href="#DejaVuSans-53"/>
       <use x="370.068359" xlink:href="#DejaVuSans-48"/>
      </g>
     </g>
    </g>
   </g>
   <g id="matplotlib.axis_2">
    <g id="ytick_1">
     <g id="line2d_6">
      <defs>
       <path d="M 0 0 
L -3.5 0 
" id="m8d4a994e9a" style="stroke:#000000;stroke-width:0.8;"/>
      </defs>
      <g>
       <use style="stroke:#000000;stroke-width:0.8;" x="55.553125" xlink:href="#m8d4a994e9a" y="259.945822"/>
      </g>
     </g>
     <g id="text_6">
      <!-- 42.3500 -->
      <g transform="translate(7.2 263.74504)scale(0.1 -0.1)">
       <defs>
        <path d="M 37.796875 64.3125 
L 12.890625 25.390625 
L 37.796875 25.390625 
z
M 35.203125 72.90625 
L 47.609375 72.90625 
L 47.609375 25.390625 
L 58.015625 25.390625 
L 58.015625 17.1875 
L 47.609375 17.1875 
L 47.609375 0 
L 37.796875 0 
L 37.796875 17.1875 
L 4.890625 17.1875 
L 4.890625 26.703125 
z
" id="DejaVuSans-52"/>
        <path d="M 19.1875 8.296875 
L 53.609375 8.296875 
L 53.609375 0 
L 7.328125 0 
L 7.328125 8.296875 
Q 12.9375 14.109375 22.625 23.890625 
Q 32.328125 33.6875 34.8125 36.53125 
Q 39.546875 41.84375 41.421875 45.53125 
Q 43.3125 49.21875 43.3125 52.78125 
Q 43.3125 58.59375 39.234375 62.25 
Q 35.15625 65.921875 28.609375 65.921875 
Q 23.96875 65.921875 18.8125 64.3125 
Q 13.671875 62.703125 7.8125 59.421875 
L 7.8125 69.390625 
Q 13.765625 71.78125 18.9375 73 
Q 24.125 74.21875 28.421875 74.21875 
Q 39.75 74.21875 46.484375 68.546875 
Q 53.21875 62.890625 53.21875 53.421875 
Q 53.21875 48.921875 51.53125 44.890625 
Q 49.859375 40.875 45.40625 35.40625 
Q 44.1875 33.984375 37.640625 27.21875 
Q 31.109375 20.453125 19.1875 8.296875 
z
" id="DejaVuSans-50"/>
        <path d="M 40.578125 39.3125 
Q 47.65625 37.796875 51.625 33 
Q 55.609375 28.21875 55.609375 21.1875 
Q 55.609375 10.40625 48.1875 4.484375 
Q 40.765625 -1.421875 27.09375 -1.421875 
Q 22.515625 -1.421875 17.65625 -0.515625 
Q 12.796875 0.390625 7.625 2.203125 
L 7.625 11.71875 
Q 11.71875 9.328125 16.59375 8.109375 
Q 21.484375 6.890625 26.8125 6.890625 
Q 36.078125 6.890625 40.9375 10.546875 
Q 45.796875 14.203125 45.796875 21.1875 
Q 45.796875 27.640625 41.28125 31.265625 
Q 36.765625 34.90625 28.71875 34.90625 
L 20.21875 34.90625 
L 20.21875 43.015625 
L 29.109375 43.015625 
Q 36.375 43.015625 40.234375 45.921875 
Q 44.09375 48.828125 44.09375 54.296875 
Q 44.09375 59.90625 40.109375 62.90625 
Q 36.140625 65.921875 28.71875 65.921875 
Q 24.65625 65.921875 20.015625 65.03125 
Q 15.375 64.15625 9.8125 62.3125 
L 9.8125 71.09375 
Q 15.4375 72.65625 20.34375 73.4375 
Q 25.25 74.21875 29.59375 74.21875 
Q 40.828125 74.21875 47.359375 69.109375 
Q 53.90625 64.015625 53.90625 55.328125 
Q 53.90625 49.265625 50.4375 45.09375 
Q 46.96875 40.921875 40.578125 39.3125 
z
" id="DejaVuSans-51"/>
       </defs>
       <use xlink:href="#DejaVuSans-52"/>
       <use x="63.623047" xlink:href="#DejaVuSans-50"/>
       <use x="127.246094" xlink:href="#DejaVuSans-46"/>
       <use x="159.033203" xlink:href="#DejaVuSans-51"/>
       <use x="222.65625" xlink:href="#DejaVuSans-53"/>
       <use x="286.279297" xlink:href="#DejaVuSans-48"/>
       <use x="349.902344" xlink:href="#DejaVuSans-48"/>
      </g>
     </g>
    </g>
    <g id="ytick_2">
     <g id="line2d_7">
      <g>
       <use style="stroke:#000000;stroke-width:0.8;" x="55.553125" xlink:href="#m8d4a994e9a" y="225.495981"/>
      </g>
     </g>
     <g id="text_7">
      <!-- 42.3525 -->
      <g transform="translate(7.2 229.2952)scale(0.1 -0.1)">
       <use xlink:href="#DejaVuSans-52"/>
       <use x="63.623047" xlink:href="#DejaVuSans-50"/>
       <use x="127.246094" xlink:href="#DejaVuSans-46"/>
       <use x="159.033203" xlink:href="#DejaVuSans-51"/>
       <use x="222.65625" xlink:href="#DejaVuSans-53"/>
       <use x="286.279297" xlink:href="#DejaVuSans-50"/>
       <use x="349.902344" xlink:href="#DejaVuSans-53"/>
      </g>
     </g>
    </g>
    <g id="ytick_3">
     <g id="line2d_8">
      <g>
       <use style="stroke:#000000;stroke-width:0.8;" x="55.553125" xlink:href="#m8d4a994e9a" y="191.046141"/>
      </g>
     </g>
     <g id="text_8">
      <!-- 42.3550 -->
      <g transform="translate(7.2 194.845359)scale(0.1 -0.1)">
       <use xlink:href="#DejaVuSans-52"/>
       <use x="63.623047" xlink:href="#DejaVuSans-50"/>
       <use x="127.246094" xlink:href="#DejaVuSans-46"/>
       <use x="159.033203" xlink:href="#DejaVuSans-51"/>
       <use x="222.65625" xlink:href="#DejaVuSans-53"/>
       <use x="286.279297" xlink:href="#DejaVuSans-53"/>
       <use x="349.902344" xlink:href="#DejaVuSans-48"/>
      </g>
     </g>
    </g>
    <g id="ytick_4">
     <g id="line2d_9">
      <g>
       <use style="stroke:#000000;stroke-width:0.8;" x="55.553125" xlink:href="#m8d4a994e9a" y="156.5963"/>
      </g>
     </g>
     <g id="text_9">
      <!-- 42.3575 -->
      <g transform="translate(7.2 160.395519)scale(0.1 -0.1)">
       <use xlink:href="#DejaVuSans-52"/>
       <use x="63.623047" xlink:href="#DejaVuSans-50"/>
       <use x="127.246094" xlink:href="#DejaVuSans-46"/>
       <use x="159.033203" xlink:href="#DejaVuSans-51"/>
       <use x="222.65625" xlink:href="#DejaVuSans-53"/>
       <use x="286.279297" xlink:href="#DejaVuSans-55"/>
       <use x="349.902344" xlink:href="#DejaVuSans-53"/>
      </g>
     </g>
    </g>
    <g id="ytick_5">
     <g id="line2d_10">
      <g>
       <use style="stroke:#000000;stroke-width:0.8;" x="55.553125" xlink:href="#m8d4a994e9a" y="122.146459"/>
      </g>
     </g>
     <g id="text_10">
      <!-- 42.3600 -->
      <g transform="translate(7.2 125.945678)scale(0.1 -0.1)">
       <use xlink:href="#DejaVuSans-52"/>
       <use x="63.623047" xlink:href="#DejaVuSans-50"/>
       <use x="127.246094" xlink:href="#DejaVuSans-46"/>
       <use x="159.033203" xlink:href="#DejaVuSans-51"/>
       <use x="222.65625" xlink:href="#DejaVuSans-54"/>
       <use x="286.279297" xlink:href="#DejaVuSans-48"/>
       <use x="349.902344" xlink:href="#DejaVuSans-48"/>
      </g>
     </g>
    </g>
    <g id="ytick_6">
     <g id="line2d_11">
      <g>
       <use style="stroke:#000000;stroke-width:0.8;" x="55.553125" xlink:href="#m8d4a994e9a" y="87.696619"/>
      </g>
     </g>
     <g id="text_11">
      <!-- 42.3625 -->
      <g transform="translate(7.2 91.495838)scale(0.1 -0.1)">
       <use xlink:href="#DejaVuSans-52"/>
       <use x="63.623047" xlink:href="#DejaVuSans-50"/>
       <use x="127.246094" xlink:href="#DejaVuSans-46"/>
       <use x="159.033203" xlink:href="#DejaVuSans-51"/>
       <use x="222.65625" xlink:href="#DejaVuSans-54"/>
       <use x="286.279297" xlink:href="#DejaVuSans-50"/>
       <use x="349.902344" xlink:href="#DejaVuSans-53"/>
      </g>
     </g>
    </g>
    <g id="ytick_7">
     <g id="line2d_12">
      <g>
       <use style="stroke:#000000;stroke-width:0.8;" x="55.553125" xlink:href="#m8d4a994e9a" y="53.246778"/>
      </g>
     </g>
     <g id="text_12">
      <!-- 42.3650 -->
      <g transform="translate(7.2 57.045997)scale(0.1 -0.1)">
       <use xlink:href="#DejaVuSans-52"/>
       <use x="63.623047" xlink:href="#DejaVuSans-50"/>
       <use x="127.246094" xlink:href="#DejaVuSans-46"/>
       <use x="159.033203" xlink:href="#DejaVuSans-51"/>
       <use x="222.65625" xlink:href="#DejaVuSans-54"/>
       <use x="286.279297" xlink:href="#DejaVuSans-53"/>
       <use x="349.902344" xlink:href="#DejaVuSans-48"/>
      </g>
     </g>
    </g>
   </g>
   <g id="line2d_13">
    <path clip-path="url(#pb47032b60c)" d="M 233.637717 147.542882 
L 246.356598 153.674954 
L 261.790127 164.960721 
L 310.254163 57.683918 
L 310.254163 57.683918 
L 343.849647 53.949555 
L 334.162352 58.179996 
L 290.245695 47.335186 
L 156.690553 145.999529 
L 156.690553 145.999529 
L 135.648591 260.703718 
L 135.648591 260.703718 
L 135.648591 260.703718 
L 130.922073 259.284385 
L 205.168369 237.897924 
" style="fill:none;stroke:#7b68ee;stroke-linecap:square;stroke-width:1.5;"/>
   </g>
   <g id="line2d_14">
    <path clip-path="url(#pb47032b60c)" d="M 233.637717 147.542882 
L 176.726581 241.701186 
L 206.381003 241.177548 
L 234.726332 238.201082 
L 234.726332 238.201082 
L 262.382664 244.443393 
L 262.382664 244.443393 
L 366.820801 69.093705 
L 310.254163 57.683918 
L 198.057922 114.980893 
L 198.057922 114.980893 
L 117.417735 133.115289 
L 134.656435 128.319871 
L 139.258934 123.152395 
L 126.512493 127.603314 
L 135.648591 260.703718 
L 65.660295 205.694213 
" style="fill:none;stroke:#008b8b;stroke-linecap:square;stroke-width:1.5;"/>
   </g>
   <g id="line2d_15">
    <path clip-path="url(#pb47032b60c)" d="M 233.637717 147.542882 
L 206.381003 241.177548 
L 234.726332 238.201082 
L 262.382664 244.443393 
L 261.790127 164.960721 
L 366.366063 118.839275 
L 349.651 74.53678 
L 349.651 74.53678 
L 310.254163 57.683918 
L 303.956732 60.481245 
L 212.774894 45.571354 
L 212.774894 45.571354 
L 212.774894 45.571354 
L 211.42446 59.695789 
L 190.492737 78.560521 
L 198.057922 114.980893 
L 138.00496 63.871109 
L 402.565955 243.285879 
L 312.99637 167.716709 
" style="fill:none;stroke:#cd5c5c;stroke-linecap:square;stroke-width:1.5;"/>
   </g>
   <g id="patch_3">
    <path d="M 55.553125 287.760209 
L 55.553125 22.318125 
" style="fill:none;stroke:#000000;stroke-linecap:square;stroke-linejoin:miter;stroke-width:0.8;"/>
   </g>
   <g id="patch_4">
    <path d="M 412.673125 287.760209 
L 412.673125 22.318125 
" style="fill:none;stroke:#000000;stroke-linecap:square;stroke-linejoin:miter;stroke-width:0.8;"/>
   </g>
   <g id="patch_5">
    <path d="M 55.553125 287.760209 
L 412.673125 287.760209 
" style="fill:none;stroke:#000000;stroke-linecap:square;stroke-linejoin:miter;stroke-width:0.8;"/>
   </g>
   <g id="patch_6">
    <path d="M 55.553125 22.318125 
L 412.673125 22.318125 
" style="fill:none;stroke:#000000;stroke-linecap:square;stroke-linejoin:miter;stroke-width:0.8;"/>
   </g>
   <g id="text_13">
    <!-- 11:35 -->
    <g style="fill:#7b68ee;" transform="translate(225.637717 142.542882)scale(0.0579 -0.0579)">
     <defs>
      <path d="M 11.71875 12.40625 
L 22.015625 12.40625 
L 22.015625 0 
L 11.71875 0 
z
M 11.71875 51.703125 
L 22.015625 51.703125 
L 22.015625 39.3125 
L 11.71875 39.3125 
z
" id="DejaVuSans-58"/>
     </defs>
     <use xlink:href="#DejaVuSans-49"/>
     <use x="63.623047" xlink:href="#DejaVuSans-49"/>
     <use x="127.246094" xlink:href="#DejaVuSans-58"/>
     <use x="160.9375" xlink:href="#DejaVuSans-51"/>
     <use x="224.560547" xlink:href="#DejaVuSans-53"/>
    </g>
   </g>
   <g id="text_14">
    <!-- 11:39 -->
    <g style="fill:#7b68ee;" transform="translate(253.790127 159.960721)scale(0.0579 -0.0579)">
     <defs>
      <path d="M 10.984375 1.515625 
L 10.984375 10.5 
Q 14.703125 8.734375 18.5 7.8125 
Q 22.3125 6.890625 25.984375 6.890625 
Q 35.75 6.890625 40.890625 13.453125 
Q 46.046875 20.015625 46.78125 33.40625 
Q 43.953125 29.203125 39.59375 26.953125 
Q 35.25 24.703125 29.984375 24.703125 
Q 19.046875 24.703125 12.671875 31.3125 
Q 6.296875 37.9375 6.296875 49.421875 
Q 6.296875 60.640625 12.9375 67.421875 
Q 19.578125 74.21875 30.609375 74.21875 
Q 43.265625 74.21875 49.921875 64.515625 
Q 56.59375 54.828125 56.59375 36.375 
Q 56.59375 19.140625 48.40625 8.859375 
Q 40.234375 -1.421875 26.421875 -1.421875 
Q 22.703125 -1.421875 18.890625 -0.6875 
Q 15.09375 0.046875 10.984375 1.515625 
z
M 30.609375 32.421875 
Q 37.25 32.421875 41.125 36.953125 
Q 45.015625 41.5 45.015625 49.421875 
Q 45.015625 57.28125 41.125 61.84375 
Q 37.25 66.40625 30.609375 66.40625 
Q 23.96875 66.40625 20.09375 61.84375 
Q 16.21875 57.28125 16.21875 49.421875 
Q 16.21875 41.5 20.09375 36.953125 
Q 23.96875 32.421875 30.609375 32.421875 
z
" id="DejaVuSans-57"/>
     </defs>
     <use xlink:href="#DejaVuSans-49"/>
     <use x="63.623047" xlink:href="#DejaVuSans-49"/>
     <use x="127.246094" xlink:href="#DejaVuSans-58"/>
     <use x="160.9375" xlink:href="#DejaVuSans-51"/>
     <use x="224.560547" xlink:href="#DejaVuSans-57"/>
    </g>
   </g>
   <g id="text_15">
    <!-- 11:45 -->
    <g style="fill:#7b68ee;" transform="translate(302.254163 52.683918)scale(0.0579 -0.0579)">
     <use xlink:href="#DejaVuSans-49"/>
     <use x="63.623047" xlink:href="#DejaVuSans-49"/>
     <use x="127.246094" xlink:href="#DejaVuSans-58"/>
     <use x="160.9375" xlink:href="#DejaVuSans-52"/>
     <use x="224.560547" xlink:href="#DejaVuSans-53"/>
    </g>
   </g>
   <g id="text_16">
    <!-- 11:50 -->
    <g style="fill:#7b68ee;" transform="translate(326.162352 53.179996)scale(0.0579 -0.0579)">
     <use xlink:href="#DejaVuSans-49"/>
     <use x="63.623047" xlink:href="#DejaVuSans-49"/>
     <use x="127.246094" xlink:href="#DejaVuSans-58"/>
     <use x="160.9375" xlink:href="#DejaVuSans-53"/>
     <use x="224.560547" xlink:href="#DejaVuSans-48"/>
    </g>
   </g>
   <g id="text_17">
    <!-- 12:00 -->
    <g style="fill:#7b68ee;" transform="translate(148.690553 140.999529)scale(0.0579 -0.0579)">
     <use xlink:href="#DejaVuSans-49"/>
     <use x="63.623047" xlink:href="#DejaVuSans-50"/>
     <use x="127.246094" xlink:href="#DejaVuSans-58"/>
     <use x="160.9375" xlink:href="#DejaVuSans-48"/>
     <use x="224.560547" xlink:href="#DejaVuSans-48"/>
    </g>
   </g>
   <g id="text_18">
    <!-- 12:08 -->
    <g style="fill:#7b68ee;" transform="translate(127.648591 255.703718)scale(0.0579 -0.0579)">
     <defs>
      <path d="M 31.78125 34.625 
Q 24.75 34.625 20.71875 30.859375 
Q 16.703125 27.09375 16.703125 20.515625 
Q 16.703125 13.921875 20.71875 10.15625 
Q 24.75 6.390625 31.78125 6.390625 
Q 38.8125 6.390625 42.859375 10.171875 
Q 46.921875 13.96875 46.921875 20.515625 
Q 46.921875 27.09375 42.890625 30.859375 
Q 38.875 34.625 31.78125 34.625 
z
M 21.921875 38.8125 
Q 15.578125 40.375 12.03125 44.71875 
Q 8.5 49.078125 8.5 55.328125 
Q 8.5 64.0625 14.71875 69.140625 
Q 20.953125 74.21875 31.78125 74.21875 
Q 42.671875 74.21875 48.875 69.140625 
Q 55.078125 64.0625 55.078125 55.328125 
Q 55.078125 49.078125 51.53125 44.71875 
Q 48 40.375 41.703125 38.8125 
Q 48.828125 37.15625 52.796875 32.3125 
Q 56.78125 27.484375 56.78125 20.515625 
Q 56.78125 9.90625 50.3125 4.234375 
Q 43.84375 -1.421875 31.78125 -1.421875 
Q 19.734375 -1.421875 13.25 4.234375 
Q 6.78125 9.90625 6.78125 20.515625 
Q 6.78125 27.484375 10.78125 32.3125 
Q 14.796875 37.15625 21.921875 38.8125 
z
M 18.3125 54.390625 
Q 18.3125 48.734375 21.84375 45.5625 
Q 25.390625 42.390625 31.78125 42.390625 
Q 38.140625 42.390625 41.71875 45.5625 
Q 45.3125 48.734375 45.3125 54.390625 
Q 45.3125 60.0625 41.71875 63.234375 
Q 38.140625 66.40625 31.78125 66.40625 
Q 25.390625 66.40625 21.84375 63.234375 
Q 18.3125 60.0625 18.3125 54.390625 
z
" id="DejaVuSans-56"/>
     </defs>
     <use xlink:href="#DejaVuSans-49"/>
     <use x="63.623047" xlink:href="#DejaVuSans-50"/>
     <use x="127.246094" xlink:href="#DejaVuSans-58"/>
     <use x="160.9375" xlink:href="#DejaVuSans-48"/>
     <use x="224.560547" xlink:href="#DejaVuSans-56"/>
    </g>
   </g>
   <g id="text_19">
    <!-- 12:12 -->
    <g style="fill:#7b68ee;" transform="translate(127.648591 255.703718)scale(0.0579 -0.0579)">
     <use xlink:href="#DejaVuSans-49"/>
     <use x="63.623047" xlink:href="#DejaVuSans-50"/>
     <use x="127.246094" xlink:href="#DejaVuSans-58"/>
     <use x="160.9375" xlink:href="#DejaVuSans-49"/>
     <use x="224.560547" xlink:href="#DejaVuSans-50"/>
    </g>
   </g>
   <g id="text_20">
    <!-- 12:29 -->
    <g style="fill:#7b68ee;" transform="translate(197.168369 232.897924)scale(0.0579 -0.0579)">
     <use xlink:href="#DejaVuSans-49"/>
     <use x="63.623047" xlink:href="#DejaVuSans-50"/>
     <use x="127.246094" xlink:href="#DejaVuSans-58"/>
     <use x="160.9375" xlink:href="#DejaVuSans-50"/>
     <use x="224.560547" xlink:href="#DejaVuSans-57"/>
    </g>
   </g>
   <g id="text_21">
    <!-- 11:28 -->
    <g style="fill:#008b8b;" transform="translate(225.637717 142.542882)scale(0.0579 -0.0579)">
     <use xlink:href="#DejaVuSans-49"/>
     <use x="63.623047" xlink:href="#DejaVuSans-49"/>
     <use x="127.246094" xlink:href="#DejaVuSans-58"/>
     <use x="160.9375" xlink:href="#DejaVuSans-50"/>
     <use x="224.560547" xlink:href="#DejaVuSans-56"/>
    </g>
   </g>
   <g id="text_22">
    <!-- 11:32 -->
    <g style="fill:#008b8b;" transform="translate(198.381003 236.177548)scale(0.0579 -0.0579)">
     <use xlink:href="#DejaVuSans-49"/>
     <use x="63.623047" xlink:href="#DejaVuSans-49"/>
     <use x="127.246094" xlink:href="#DejaVuSans-58"/>
     <use x="160.9375" xlink:href="#DejaVuSans-51"/>
     <use x="224.560547" xlink:href="#DejaVuSans-50"/>
    </g>
   </g>
   <g id="text_23">
    <!-- 11:38 -->
    <g style="fill:#008b8b;" transform="translate(226.726332 233.201082)scale(0.0579 -0.0579)">
     <use xlink:href="#DejaVuSans-49"/>
     <use x="63.623047" xlink:href="#DejaVuSans-49"/>
     <use x="127.246094" xlink:href="#DejaVuSans-58"/>
     <use x="160.9375" xlink:href="#DejaVuSans-51"/>
     <use x="224.560547" xlink:href="#DejaVuSans-56"/>
    </g>
   </g>
   <g id="text_24">
    <!-- 11:43 -->
    <g style="fill:#008b8b;" transform="translate(254.382664 239.443393)scale(0.0579 -0.0579)">
     <use xlink:href="#DejaVuSans-49"/>
     <use x="63.623047" xlink:href="#DejaVuSans-49"/>
     <use x="127.246094" xlink:href="#DejaVuSans-58"/>
     <use x="160.9375" xlink:href="#DejaVuSans-52"/>
     <use x="224.560547" xlink:href="#DejaVuSans-51"/>
    </g>
   </g>
   <g id="text_25">
    <!-- 11:53 -->
    <g style="fill:#008b8b;" transform="translate(302.254163 52.683918)scale(0.0579 -0.0579)">
     <use xlink:href="#DejaVuSans-49"/>
     <use x="63.623047" xlink:href="#DejaVuSans-49"/>
     <use x="127.246094" xlink:href="#DejaVuSans-58"/>
     <use x="160.9375" xlink:href="#DejaVuSans-53"/>
     <use x="224.560547" xlink:href="#DejaVuSans-51"/>
    </g>
   </g>
   <g id="text_26">
    <!-- 12:02 -->
    <g style="fill:#008b8b;" transform="translate(190.057922 109.980893)scale(0.0579 -0.0579)">
     <use xlink:href="#DejaVuSans-49"/>
     <use x="63.623047" xlink:href="#DejaVuSans-50"/>
     <use x="127.246094" xlink:href="#DejaVuSans-58"/>
     <use x="160.9375" xlink:href="#DejaVuSans-48"/>
     <use x="224.560547" xlink:href="#DejaVuSans-50"/>
    </g>
   </g>
   <g id="text_27">
    <!-- 12:08 -->
    <g style="fill:#008b8b;" transform="translate(126.656435 123.319871)scale(0.0579 -0.0579)">
     <use xlink:href="#DejaVuSans-49"/>
     <use x="63.623047" xlink:href="#DejaVuSans-50"/>
     <use x="127.246094" xlink:href="#DejaVuSans-58"/>
     <use x="160.9375" xlink:href="#DejaVuSans-48"/>
     <use x="224.560547" xlink:href="#DejaVuSans-56"/>
    </g>
   </g>
   <g id="text_28">
    <!-- 12:14 -->
    <g style="fill:#008b8b;" transform="translate(118.512493 122.603314)scale(0.0579 -0.0579)">
     <use xlink:href="#DejaVuSans-49"/>
     <use x="63.623047" xlink:href="#DejaVuSans-50"/>
     <use x="127.246094" xlink:href="#DejaVuSans-58"/>
     <use x="160.9375" xlink:href="#DejaVuSans-49"/>
     <use x="224.560547" xlink:href="#DejaVuSans-52"/>
    </g>
   </g>
   <g id="text_29">
    <!-- 12:26 -->
    <g style="fill:#008b8b;" transform="translate(57.660295 200.694213)scale(0.0579 -0.0579)">
     <use xlink:href="#DejaVuSans-49"/>
     <use x="63.623047" xlink:href="#DejaVuSans-50"/>
     <use x="127.246094" xlink:href="#DejaVuSans-58"/>
     <use x="160.9375" xlink:href="#DejaVuSans-50"/>
     <use x="224.560547" xlink:href="#DejaVuSans-54"/>
    </g>
   </g>
   <g id="text_30">
    <!-- 11:29 -->
    <g style="fill:#cd5c5c;" transform="translate(225.637717 142.542882)scale(0.0579 -0.0579)">
     <use xlink:href="#DejaVuSans-49"/>
     <use x="63.623047" xlink:href="#DejaVuSans-49"/>
     <use x="127.246094" xlink:href="#DejaVuSans-58"/>
     <use x="160.9375" xlink:href="#DejaVuSans-50"/>
     <use x="224.560547" xlink:href="#DejaVuSans-57"/>
    </g>
   </g>
   <g id="text_31">
    <!-- 11:35 -->
    <g style="fill:#cd5c5c;" transform="translate(226.726332 233.201082)scale(0.0579 -0.0579)">
     <use xlink:href="#DejaVuSans-49"/>
     <use x="63.623047" xlink:href="#DejaVuSans-49"/>
     <use x="127.246094" xlink:href="#DejaVuSans-58"/>
     <use x="160.9375" xlink:href="#DejaVuSans-51"/>
     <use x="224.560547" xlink:href="#DejaVuSans-53"/>
    </g>
   </g>
   <g id="text_32">
    <!-- 11:43 -->
    <g style="fill:#cd5c5c;" transform="translate(253.790127 159.960721)scale(0.0579 -0.0579)">
     <use xlink:href="#DejaVuSans-49"/>
     <use x="63.623047" xlink:href="#DejaVuSans-49"/>
     <use x="127.246094" xlink:href="#DejaVuSans-58"/>
     <use x="160.9375" xlink:href="#DejaVuSans-52"/>
     <use x="224.560547" xlink:href="#DejaVuSans-51"/>
    </g>
   </g>
   <g id="text_33">
    <!-- 11:51 -->
    <g style="fill:#cd5c5c;" transform="translate(341.651 69.53678)scale(0.0579 -0.0579)">
     <use xlink:href="#DejaVuSans-49"/>
     <use x="63.623047" xlink:href="#DejaVuSans-49"/>
     <use x="127.246094" xlink:href="#DejaVuSans-58"/>
     <use x="160.9375" xlink:href="#DejaVuSans-53"/>
     <use x="224.560547" xlink:href="#DejaVuSans-49"/>
    </g>
   </g>
   <g id="text_34">
    <!-- 11:57 -->
    <g style="fill:#cd5c5c;" transform="translate(302.254163 52.683918)scale(0.0579 -0.0579)">
     <use xlink:href="#DejaVuSans-49"/>
     <use x="63.623047" xlink:href="#DejaVuSans-49"/>
     <use x="127.246094" xlink:href="#DejaVuSans-58"/>
     <use x="160.9375" xlink:href="#DejaVuSans-53"/>
     <use x="224.560547" xlink:href="#DejaVuSans-55"/>
    </g>
   </g>
   <g id="text_35">
    <!-- 12:05 -->
    <g style="fill:#cd5c5c;" transform="translate(204.774894 40.571354)scale(0.0579 -0.0579)">
     <use xlink:href="#DejaVuSans-49"/>
     <use x="63.623047" xlink:href="#DejaVuSans-50"/>
     <use x="127.246094" xlink:href="#DejaVuSans-58"/>
     <use x="160.9375" xlink:href="#DejaVuSans-48"/>
     <use x="224.560547" xlink:href="#DejaVuSans-53"/>
    </g>
   </g>
   <g id="text_36">
    <!-- 12:09 -->
    <g style="fill:#cd5c5c;" transform="translate(204.774894 40.571354)scale(0.0579 -0.0579)">
     <use xlink:href="#DejaVuSans-49"/>
     <use x="63.623047" xlink:href="#DejaVuSans-50"/>
     <use x="127.246094" xlink:href="#DejaVuSans-58"/>
     <use x="160.9375" xlink:href="#DejaVuSans-48"/>
     <use x="224.560547" xlink:href="#DejaVuSans-57"/>
    </g>
   </g>
   <g id="text_37">
    <!-- 12:16 -->
    <g style="fill:#cd5c5c;" transform="translate(182.492737 73.560521)scale(0.0579 -0.0579)">
     <use xlink:href="#DejaVuSans-49"/>
     <use x="63.623047" xlink:href="#DejaVuSans-50"/>
     <use x="127.246094" xlink:href="#DejaVuSans-58"/>
     <use x="160.9375" xlink:href="#DejaVuSans-49"/>
     <use x="224.560547" xlink:href="#DejaVuSans-54"/>
    </g>
   </g>
   <g id="text_38">
    <!-- 12:23 -->
    <g style="fill:#cd5c5c;" transform="translate(130.00496 58.871109)scale(0.0579 -0.0579)">
     <use xlink:href="#DejaVuSans-49"/>
     <use x="63.623047" xlink:href="#DejaVuSans-50"/>
     <use x="127.246094" xlink:href="#DejaVuSans-58"/>
     <use x="160.9375" xlink:href="#DejaVuSans-50"/>
     <use x="224.560547" xlink:href="#DejaVuSans-51"/>
    </g>
   </g>
   <g id="text_39">
    <!-- 12:35 -->
    <g style="fill:#cd5c5c;" transform="translate(304.99637 162.716709)scale(0.0579 -0.0579)">
     <use xlink:href="#DejaVuSans-49"/>
     <use x="63.623047" xlink:href="#DejaVuSans-50"/>
     <use x="127.246094" xlink:href="#DejaVuSans-58"/>
     <use x="160.9375" xlink:href="#DejaVuSans-51"/>
     <use x="224.560547" xlink:href="#DejaVuSans-53"/>
    </g>
   </g>
   <g id="text_40">
    <!-- 24 deliveries ; cost: 4599 ; distance: 31232 m -->
    <g transform="translate(96.035313 16.318125)scale(0.12 -0.12)">
     <defs>
      <path id="DejaVuSans-32"/>
      <path d="M 45.40625 46.390625 
L 45.40625 75.984375 
L 54.390625 75.984375 
L 54.390625 0 
L 45.40625 0 
L 45.40625 8.203125 
Q 42.578125 3.328125 38.25 0.953125 
Q 33.9375 -1.421875 27.875 -1.421875 
Q 17.96875 -1.421875 11.734375 6.484375 
Q 5.515625 14.40625 5.515625 27.296875 
Q 5.515625 40.1875 11.734375 48.09375 
Q 17.96875 56 27.875 56 
Q 33.9375 56 38.25 53.625 
Q 42.578125 51.265625 45.40625 46.390625 
z
M 14.796875 27.296875 
Q 14.796875 17.390625 18.875 11.75 
Q 22.953125 6.109375 30.078125 6.109375 
Q 37.203125 6.109375 41.296875 11.75 
Q 45.40625 17.390625 45.40625 27.296875 
Q 45.40625 37.203125 41.296875 42.84375 
Q 37.203125 48.484375 30.078125 48.484375 
Q 22.953125 48.484375 18.875 42.84375 
Q 14.796875 37.203125 14.796875 27.296875 
z
" id="DejaVuSans-100"/>
      <path d="M 56.203125 29.59375 
L 56.203125 25.203125 
L 14.890625 25.203125 
Q 15.484375 15.921875 20.484375 11.0625 
Q 25.484375 6.203125 34.421875 6.203125 
Q 39.59375 6.203125 44.453125 7.46875 
Q 49.3125 8.734375 54.109375 11.28125 
L 54.109375 2.78125 
Q 49.265625 0.734375 44.1875 -0.34375 
Q 39.109375 -1.421875 33.890625 -1.421875 
Q 20.796875 -1.421875 13.15625 6.1875 
Q 5.515625 13.8125 5.515625 26.8125 
Q 5.515625 40.234375 12.765625 48.109375 
Q 20.015625 56 32.328125 56 
Q 43.359375 56 49.78125 48.890625 
Q 56.203125 41.796875 56.203125 29.59375 
z
M 47.21875 32.234375 
Q 47.125 39.59375 43.09375 43.984375 
Q 39.0625 48.390625 32.421875 48.390625 
Q 24.90625 48.390625 20.390625 44.140625 
Q 15.875 39.890625 15.1875 32.171875 
z
" id="DejaVuSans-101"/>
      <path d="M 9.421875 75.984375 
L 18.40625 75.984375 
L 18.40625 0 
L 9.421875 0 
z
" id="DejaVuSans-108"/>
      <path d="M 9.421875 54.6875 
L 18.40625 54.6875 
L 18.40625 0 
L 9.421875 0 
z
M 9.421875 75.984375 
L 18.40625 75.984375 
L 18.40625 64.59375 
L 9.421875 64.59375 
z
" id="DejaVuSans-105"/>
      <path d="M 2.984375 54.6875 
L 12.5 54.6875 
L 29.59375 8.796875 
L 46.6875 54.6875 
L 56.203125 54.6875 
L 35.6875 0 
L 23.484375 0 
z
" id="DejaVuSans-118"/>
      <path d="M 41.109375 46.296875 
Q 39.59375 47.171875 37.8125 47.578125 
Q 36.03125 48 33.890625 48 
Q 26.265625 48 22.1875 43.046875 
Q 18.109375 38.09375 18.109375 28.8125 
L 18.109375 0 
L 9.078125 0 
L 9.078125 54.6875 
L 18.109375 54.6875 
L 18.109375 46.1875 
Q 20.953125 51.171875 25.484375 53.578125 
Q 30.03125 56 36.53125 56 
Q 37.453125 56 38.578125 55.875 
Q 39.703125 55.765625 41.0625 55.515625 
z
" id="DejaVuSans-114"/>
      <path d="M 44.28125 53.078125 
L 44.28125 44.578125 
Q 40.484375 46.53125 36.375 47.5 
Q 32.28125 48.484375 27.875 48.484375 
Q 21.1875 48.484375 17.84375 46.4375 
Q 14.5 44.390625 14.5 40.28125 
Q 14.5 37.15625 16.890625 35.375 
Q 19.28125 33.59375 26.515625 31.984375 
L 29.59375 31.296875 
Q 39.15625 29.25 43.1875 25.515625 
Q 47.21875 21.78125 47.21875 15.09375 
Q 47.21875 7.46875 41.1875 3.015625 
Q 35.15625 -1.421875 24.609375 -1.421875 
Q 20.21875 -1.421875 15.453125 -0.5625 
Q 10.6875 0.296875 5.421875 2 
L 5.421875 11.28125 
Q 10.40625 8.6875 15.234375 7.390625 
Q 20.0625 6.109375 24.8125 6.109375 
Q 31.15625 6.109375 34.5625 8.28125 
Q 37.984375 10.453125 37.984375 14.40625 
Q 37.984375 18.0625 35.515625 20.015625 
Q 33.0625 21.96875 24.703125 23.78125 
L 21.578125 24.515625 
Q 13.234375 26.265625 9.515625 29.90625 
Q 5.8125 33.546875 5.8125 39.890625 
Q 5.8125 47.609375 11.28125 51.796875 
Q 16.75 56 26.8125 56 
Q 31.78125 56 36.171875 55.265625 
Q 40.578125 54.546875 44.28125 53.078125 
z
" id="DejaVuSans-115"/>
      <path d="M 11.71875 51.703125 
L 22.015625 51.703125 
L 22.015625 39.3125 
L 11.71875 39.3125 
z
M 11.71875 12.40625 
L 22.015625 12.40625 
L 22.015625 4 
L 14.015625 -11.625 
L 7.71875 -11.625 
L 11.71875 4 
z
" id="DejaVuSans-59"/>
      <path d="M 48.78125 52.59375 
L 48.78125 44.1875 
Q 44.96875 46.296875 41.140625 47.34375 
Q 37.3125 48.390625 33.40625 48.390625 
Q 24.65625 48.390625 19.8125 42.84375 
Q 14.984375 37.3125 14.984375 27.296875 
Q 14.984375 17.28125 19.8125 11.734375 
Q 24.65625 6.203125 33.40625 6.203125 
Q 37.3125 6.203125 41.140625 7.25 
Q 44.96875 8.296875 48.78125 10.40625 
L 48.78125 2.09375 
Q 45.015625 0.34375 40.984375 -0.53125 
Q 36.96875 -1.421875 32.421875 -1.421875 
Q 20.0625 -1.421875 12.78125 6.34375 
Q 5.515625 14.109375 5.515625 27.296875 
Q 5.515625 40.671875 12.859375 48.328125 
Q 20.21875 56 33.015625 56 
Q 37.15625 56 41.109375 55.140625 
Q 45.0625 54.296875 48.78125 52.59375 
z
" id="DejaVuSans-99"/>
      <path d="M 30.609375 48.390625 
Q 23.390625 48.390625 19.1875 42.75 
Q 14.984375 37.109375 14.984375 27.296875 
Q 14.984375 17.484375 19.15625 11.84375 
Q 23.34375 6.203125 30.609375 6.203125 
Q 37.796875 6.203125 41.984375 11.859375 
Q 46.1875 17.53125 46.1875 27.296875 
Q 46.1875 37.015625 41.984375 42.703125 
Q 37.796875 48.390625 30.609375 48.390625 
z
M 30.609375 56 
Q 42.328125 56 49.015625 48.375 
Q 55.71875 40.765625 55.71875 27.296875 
Q 55.71875 13.875 49.015625 6.21875 
Q 42.328125 -1.421875 30.609375 -1.421875 
Q 18.84375 -1.421875 12.171875 6.21875 
Q 5.515625 13.875 5.515625 27.296875 
Q 5.515625 40.765625 12.171875 48.375 
Q 18.84375 56 30.609375 56 
z
" id="DejaVuSans-111"/>
      <path d="M 18.3125 70.21875 
L 18.3125 54.6875 
L 36.8125 54.6875 
L 36.8125 47.703125 
L 18.3125 47.703125 
L 18.3125 18.015625 
Q 18.3125 11.328125 20.140625 9.421875 
Q 21.96875 7.515625 27.59375 7.515625 
L 36.8125 7.515625 
L 36.8125 0 
L 27.59375 0 
Q 17.1875 0 13.234375 3.875 
Q 9.28125 7.765625 9.28125 18.015625 
L 9.28125 47.703125 
L 2.6875 47.703125 
L 2.6875 54.6875 
L 9.28125 54.6875 
L 9.28125 70.21875 
z
" id="DejaVuSans-116"/>
      <path d="M 34.28125 27.484375 
Q 23.390625 27.484375 19.1875 25 
Q 14.984375 22.515625 14.984375 16.5 
Q 14.984375 11.71875 18.140625 8.90625 
Q 21.296875 6.109375 26.703125 6.109375 
Q 34.1875 6.109375 38.703125 11.40625 
Q 43.21875 16.703125 43.21875 25.484375 
L 43.21875 27.484375 
z
M 52.203125 31.203125 
L 52.203125 0 
L 43.21875 0 
L 43.21875 8.296875 
Q 40.140625 3.328125 35.546875 0.953125 
Q 30.953125 -1.421875 24.3125 -1.421875 
Q 15.921875 -1.421875 10.953125 3.296875 
Q 6 8.015625 6 15.921875 
Q 6 25.140625 12.171875 29.828125 
Q 18.359375 34.515625 30.609375 34.515625 
L 43.21875 34.515625 
L 43.21875 35.40625 
Q 43.21875 41.609375 39.140625 45 
Q 35.0625 48.390625 27.6875 48.390625 
Q 23 48.390625 18.546875 47.265625 
Q 14.109375 46.140625 10.015625 43.890625 
L 10.015625 52.203125 
Q 14.9375 54.109375 19.578125 55.046875 
Q 24.21875 56 28.609375 56 
Q 40.484375 56 46.34375 49.84375 
Q 52.203125 43.703125 52.203125 31.203125 
z
" id="DejaVuSans-97"/>
      <path d="M 54.890625 33.015625 
L 54.890625 0 
L 45.90625 0 
L 45.90625 32.71875 
Q 45.90625 40.484375 42.875 44.328125 
Q 39.84375 48.1875 33.796875 48.1875 
Q 26.515625 48.1875 22.3125 43.546875 
Q 18.109375 38.921875 18.109375 30.90625 
L 18.109375 0 
L 9.078125 0 
L 9.078125 54.6875 
L 18.109375 54.6875 
L 18.109375 46.1875 
Q 21.34375 51.125 25.703125 53.5625 
Q 30.078125 56 35.796875 56 
Q 45.21875 56 50.046875 50.171875 
Q 54.890625 44.34375 54.890625 33.015625 
z
" id="DejaVuSans-110"/>
      <path d="M 52 44.1875 
Q 55.375 50.25 60.0625 53.125 
Q 64.75 56 71.09375 56 
Q 79.640625 56 84.28125 50.015625 
Q 88.921875 44.046875 88.921875 33.015625 
L 88.921875 0 
L 79.890625 0 
L 79.890625 32.71875 
Q 79.890625 40.578125 77.09375 44.375 
Q 74.3125 48.1875 68.609375 48.1875 
Q 61.625 48.1875 57.5625 43.546875 
Q 53.515625 38.921875 53.515625 30.90625 
L 53.515625 0 
L 44.484375 0 
L 44.484375 32.71875 
Q 44.484375 40.625 41.703125 44.40625 
Q 38.921875 48.1875 33.109375 48.1875 
Q 26.21875 48.1875 22.15625 43.53125 
Q 18.109375 38.875 18.109375 30.90625 
L 18.109375 0 
L 9.078125 0 
L 9.078125 54.6875 
L 18.109375 54.6875 
L 18.109375 46.1875 
Q 21.1875 51.21875 25.484375 53.609375 
Q 29.78125 56 35.6875 56 
Q 41.65625 56 45.828125 52.96875 
Q 50 49.953125 52 44.1875 
z
" id="DejaVuSans-109"/>
     </defs>
     <use xlink:href="#DejaVuSans-50"/>
     <use x="63.623047" xlink:href="#DejaVuSans-52"/>
     <use x="127.246094" xlink:href="#DejaVuSans-32"/>
     <use x="159.033203" xlink:href="#DejaVuSans-100"/>
     <use x="222.509766" xlink:href="#DejaVuSans-101"/>
     <use x="284.033203" xlink:href="#DejaVuSans-108"/>
     <use x="311.816406" xlink:href="#DejaVuSans-105"/>
     <use x="339.599609" xlink:href="#DejaVuSans-118"/>
     <use x="398.779297" xlink:href="#DejaVuSans-101"/>
     <use x="460.302734" xlink:href="#DejaVuSans-114"/>
     <use x="501.416016" xlink:href="#DejaVuSans-105"/>
     <use x="529.199219" xlink:href="#DejaVuSans-101"/>
     <use x="590.722656" xlink:href="#DejaVuSans-115"/>
     <use x="642.822266" xlink:href="#DejaVuSans-32"/>
     <use x="674.609375" xlink:href="#DejaVuSans-59"/>
     <use x="708.300781" xlink:href="#DejaVuSans-32"/>
     <use x="740.087891" xlink:href="#DejaVuSans-99"/>
     <use x="795.068359" xlink:href="#DejaVuSans-111"/>
     <use x="856.25" xlink:href="#DejaVuSans-115"/>
     <use x="908.349609" xlink:href="#DejaVuSans-116"/>
     <use x="947.558594" xlink:href="#DejaVuSans-58"/>
     <use x="981.25" xlink:href="#DejaVuSans-32"/>
     <use x="1013.037109" xlink:href="#DejaVuSans-52"/>
     <use x="1076.660156" xlink:href="#DejaVuSans-53"/>
     <use x="1140.283203" xlink:href="#DejaVuSans-57"/>
     <use x="1203.90625" xlink:href="#DejaVuSans-57"/>
     <use x="1267.529297" xlink:href="#DejaVuSans-32"/>
     <use x="1299.316406" xlink:href="#DejaVuSans-59"/>
     <use x="1333.007812" xlink:href="#DejaVuSans-32"/>
     <use x="1364.794922" xlink:href="#DejaVuSans-100"/>
     <use x="1428.271484" xlink:href="#DejaVuSans-105"/>
     <use x="1456.054688" xlink:href="#DejaVuSans-115"/>
     <use x="1508.154297" xlink:href="#DejaVuSans-116"/>
     <use x="1547.363281" xlink:href="#DejaVuSans-97"/>
     <use x="1608.642578" xlink:href="#DejaVuSans-110"/>
     <use x="1672.021484" xlink:href="#DejaVuSans-99"/>
     <use x="1727.001953" xlink:href="#DejaVuSans-101"/>
     <use x="1788.525391" xlink:href="#DejaVuSans-58"/>
     <use x="1822.216797" xlink:href="#DejaVuSans-32"/>
     <use x="1854.003906" xlink:href="#DejaVuSans-51"/>
     <use x="1917.626953" xlink:href="#DejaVuSans-49"/>
     <use x="1981.25" xlink:href="#DejaVuSans-50"/>
     <use x="2044.873047" xlink:href="#DejaVuSans-51"/>
     <use x="2108.496094" xlink:href="#DejaVuSans-50"/>
     <use x="2172.119141" xlink:href="#DejaVuSans-32"/>
     <use x="2203.90625" xlink:href="#DejaVuSans-109"/>
    </g>
   </g>
  </g>
 </g>
 <defs>
  <clipPath id="pb47032b60c">
   <rect height="265.442084" width="357.12" x="55.553125" y="22.318125"/>
  </clipPath>
 </defs>
</svg>
