<?xml version="1.0" encoding="utf-8" standalone="no"?>
<!DOCTYPE svg PUBLIC "-//W3C//DTD SVG 1.1//EN"
  "http://www.w3.org/Graphics/SVG/1.1/DTD/svg11.dtd">
<!-- Created with matplotlib (https://matplotlib.org/) -->
<svg height="312.30825pt" version="1.1" viewBox="0 0 410.496245 312.30825" width="410.496245pt" xmlns="http://www.w3.org/2000/svg" xmlns:xlink="http://www.w3.org/1999/xlink">
 <metadata>
  <rdf:RDF xmlns:cc="http://creativecommons.org/ns#" xmlns:dc="http://purl.org/dc/elements/1.1/" xmlns:rdf="http://www.w3.org/1999/02/22-rdf-syntax-ns#">
   <cc:Work>
    <dc:type rdf:resource="http://purl.org/dc/dcmitype/StillImage"/>
    <dc:date>2020-10-02T22:23:52.443396</dc:date>
    <dc:format>image/svg+xml</dc:format>
    <dc:creator>
     <cc:Agent>
      <dc:title>Matplotlib v3.3.2, https://matplotlib.org/</dc:title>
     </cc:Agent>
    </dc:creator>
   </cc:Work>
  </rdf:RDF>
 </metadata>
 <defs>
  <style type="text/css">*{stroke-linecap:butt;stroke-linejoin:round;}</style>
 </defs>
 <g id="figure_1">
  <g id="patch_1">
   <path d="M 0 312.30825 
L 410.496245 312.30825 
L 410.496245 0 
L 0 0 
z
" style="fill:#ffffff;"/>
  </g>
  <g id="axes_1">
   <g id="patch_2">
    <path d="M 55.553125 288.430125 
L 403.296245 288.430125 
L 403.296245 22.318125 
L 55.553125 22.318125 
z
" style="fill:#ffffff;"/>
   </g>
   <g id="PathCollection_1">
    <path clip-path="url(#p8e647611fd)" d="M 186.392603 155.00989 
C 187.188213 155.00989 187.951343 154.693791 188.513924 154.13121 
C 189.076504 153.56863 189.392603 152.805499 189.392603 152.00989 
C 189.392603 151.214281 189.076504 150.45115 188.513924 149.88857 
C 187.951343 149.325989 187.188213 149.00989 186.392603 149.00989 
C 185.596994 149.00989 184.833864 149.325989 184.271283 149.88857 
C 183.708702 150.45115 183.392603 151.214281 183.392603 152.00989 
C 183.392603 152.805499 183.708702 153.56863 184.271283 154.13121 
C 184.833864 154.693791 185.596994 155.00989 186.392603 155.00989 
z
" style="fill:none;stroke:#0000ff;stroke-width:0.7;"/>
   </g>
   <g id="PathCollection_2">
    <path clip-path="url(#p8e647611fd)" d="M 127.141896 247.038966 
L 124.141896 253.038966 
L 130.141896 253.038966 
z
" style="fill:none;stroke:#ff0000;stroke-width:0.7;"/>
   </g>
   <g id="PathCollection_3">
    <path clip-path="url(#p8e647611fd)" d="M 185.546165 238.474154 
L 182.546165 244.474154 
L 188.546165 244.474154 
z
" style="fill:none;stroke:#ff0000;stroke-width:0.7;"/>
   </g>
   <g id="PathCollection_4">
    <path clip-path="url(#p8e647611fd)" d="M 187.52597 243.394976 
L 184.52597 249.394976 
L 190.52597 249.394976 
z
" style="fill:none;stroke:#ff0000;stroke-width:0.7;"/>
   </g>
   <g id="PathCollection_5">
    <path clip-path="url(#p8e647611fd)" d="M 187.52597 243.394976 
L 184.52597 249.394976 
L 190.52597 249.394976 
z
" style="fill:none;stroke:#ff0000;stroke-width:0.7;"/>
   </g>
   <g id="PathCollection_6">
    <path clip-path="url(#p8e647611fd)" d="M 163.682223 241.81687 
L 160.682223 247.81687 
L 166.682223 247.81687 
z
" style="fill:none;stroke:#ff0000;stroke-width:0.7;"/>
   </g>
   <g id="PathCollection_7">
    <path clip-path="url(#p8e647611fd)" d="M 215.702336 167.143763 
L 212.702336 173.143763 
L 218.702336 173.143763 
z
" style="fill:none;stroke:#ff0000;stroke-width:0.7;"/>
   </g>
   <g id="PathCollection_8">
    <path clip-path="url(#p8e647611fd)" d="M 307.175099 73.002566 
L 304.175099 79.002566 
L 310.175099 79.002566 
z
" style="fill:none;stroke:#ff0000;stroke-width:0.7;"/>
   </g>
   <g id="PathCollection_9">
    <path clip-path="url(#p8e647611fd)" d="M 266.158689 55.456896 
L 263.158689 61.456896 
L 269.158689 61.456896 
z
" style="fill:none;stroke:#ff0000;stroke-width:0.7;"/>
   </g>
   <g id="PathCollection_10">
    <path clip-path="url(#p8e647611fd)" d="M 291.049725 55.973367 
L 288.049725 61.973367 
L 294.049725 61.973367 
z
" style="fill:none;stroke:#ff0000;stroke-width:0.7;"/>
   </g>
   <g id="PathCollection_11">
    <path clip-path="url(#p8e647611fd)" d="M 301.135257 51.569017 
L 298.135257 57.569017 
L 304.135257 57.569017 
z
" style="fill:none;stroke:#ff0000;stroke-width:0.7;"/>
   </g>
   <g id="PathCollection_12">
    <path clip-path="url(#p8e647611fd)" d="M 259.602376 64.369219 
L 262.602376 58.369219 
L 256.602376 58.369219 
z
" style="fill:none;stroke:#008000;stroke-width:0.7;"/>
   </g>
   <g id="PathCollection_13">
    <path clip-path="url(#p8e647611fd)" d="M 257.005674 64.154023 
L 260.005674 58.154023 
L 254.005674 58.154023 
z
" style="fill:none;stroke:#008000;stroke-width:0.7;"/>
   </g>
   <g id="PathCollection_14">
    <path clip-path="url(#p8e647611fd)" d="M 97.100496 144.221383 
L 100.100496 138.221383 
L 94.100496 138.221383 
z
" style="fill:none;stroke:#008000;stroke-width:0.7;"/>
   </g>
   <g id="PathCollection_15">
    <path clip-path="url(#p8e647611fd)" d="M 97.100496 144.221383 
L 100.100496 138.221383 
L 94.100496 138.221383 
z
" style="fill:none;stroke:#008000;stroke-width:0.7;"/>
   </g>
   <g id="PathCollection_16">
    <path clip-path="url(#p8e647611fd)" d="M 83.342281 134.996636 
L 86.342281 128.996636 
L 80.342281 128.996636 
z
" style="fill:none;stroke:#008000;stroke-width:0.7;"/>
   </g>
   <g id="PathCollection_17">
    <path clip-path="url(#p8e647611fd)" d="M 86.82846 67.898438 
L 89.82846 61.898438 
L 83.82846 61.898438 
z
" style="fill:none;stroke:#008000;stroke-width:0.7;"/>
   </g>
   <g id="PathCollection_18">
    <path clip-path="url(#p8e647611fd)" d="M 86.82846 67.898438 
L 89.82846 61.898438 
L 83.82846 61.898438 
z
" style="fill:none;stroke:#008000;stroke-width:0.7;"/>
   </g>
   <g id="PathCollection_19">
    <path clip-path="url(#p8e647611fd)" d="M 74.863547 134.250623 
L 77.863547 128.250623 
L 71.863547 128.250623 
z
" style="fill:none;stroke:#008000;stroke-width:0.7;"/>
   </g>
   <g id="PathCollection_20">
    <path clip-path="url(#p8e647611fd)" d="M 83.342281 134.996636 
L 86.342281 128.996636 
L 80.342281 128.996636 
z
" style="fill:none;stroke:#008000;stroke-width:0.7;"/>
   </g>
   <g id="PathCollection_21">
    <path clip-path="url(#p8e647611fd)" d="M 65.394911 139.98919 
L 68.394911 133.98919 
L 62.394911 133.98919 
z
" style="fill:none;stroke:#008000;stroke-width:0.7;"/>
   </g>
   <g id="PathCollection_22">
    <defs>
     <path d="M -5 5 
L 5 -5 
M -5 -5 
L 5 5 
" id="mf7a55eca55" style="stroke:#ff0000;stroke-width:1.5;"/>
    </defs>
    <g clip-path="url(#p8e647611fd)">
     <use style="fill:#ff0000;stroke:#ff0000;stroke-width:1.5;" x="213.105634" xlink:href="#mf7a55eca55" y="48.859142"/>
     <use style="fill:#ff0000;stroke:#ff0000;stroke-width:1.5;" x="157.671074" xlink:href="#mf7a55eca55" y="126.659769"/>
     <use style="fill:#ff0000;stroke:#ff0000;stroke-width:1.5;" x="79.454401" xlink:href="#mf7a55eca55" y="268.344996"/>
     <use style="fill:#ff0000;stroke:#ff0000;stroke-width:1.5;" x="185.546165" xlink:href="#mf7a55eca55" y="241.474154"/>
     <use style="fill:#ff0000;stroke:#ff0000;stroke-width:1.5;" x="149.350151" xlink:href="#mf7a55eca55" y="118.109303"/>
     <use style="fill:#ff0000;stroke:#ff0000;stroke-width:1.5;" x="157.671074" xlink:href="#mf7a55eca55" y="126.659769"/>
     <use style="fill:#ff0000;stroke:#ff0000;stroke-width:1.5;" x="79.454401" xlink:href="#mf7a55eca55" y="268.344996"/>
     <use style="fill:#ff0000;stroke:#ff0000;stroke-width:1.5;" x="307.175099" xlink:href="#mf7a55eca55" y="76.002566"/>
     <use style="fill:#ff0000;stroke:#ff0000;stroke-width:1.5;" x="163.682223" xlink:href="#mf7a55eca55" y="244.81687"/>
     <use style="fill:#ff0000;stroke:#ff0000;stroke-width:1.5;" x="193.781009" xlink:href="#mf7a55eca55" y="243.396574"/>
     <use style="fill:#ff0000;stroke:#ff0000;stroke-width:1.5;" x="284.235176" xlink:href="#mf7a55eca55" y="139.184192"/>
     <use style="fill:#ff0000;stroke:#ff0000;stroke-width:1.5;" x="93.140884" xlink:href="#mf7a55eca55" y="278.588339"/>
    </g>
   </g>
   <g id="PathCollection_23">
    <path clip-path="url(#p8e647611fd)" d="M 186.392603 155.00989 
C 187.188213 155.00989 187.951343 154.693791 188.513924 154.13121 
C 189.076504 153.56863 189.392603 152.805499 189.392603 152.00989 
C 189.392603 151.214281 189.076504 150.45115 188.513924 149.88857 
C 187.951343 149.325989 187.188213 149.00989 186.392603 149.00989 
C 185.596994 149.00989 184.833864 149.325989 184.271283 149.88857 
C 183.708702 150.45115 183.392603 151.214281 183.392603 152.00989 
C 183.392603 152.805499 183.708702 153.56863 184.271283 154.13121 
C 184.833864 154.693791 185.596994 155.00989 186.392603 155.00989 
z
" style="fill:none;stroke:#0000ff;stroke-width:0.7;"/>
   </g>
   <g id="PathCollection_24">
    <path clip-path="url(#p8e647611fd)" d="M 199.634347 155.394046 
L 196.634347 161.394046 
L 202.634347 161.394046 
z
" style="fill:none;stroke:#ff0000;stroke-width:0.7;"/>
   </g>
   <g id="PathCollection_25">
    <path clip-path="url(#p8e647611fd)" d="M 157.671074 123.659769 
L 154.671074 129.659769 
L 160.671074 129.659769 
z
" style="fill:none;stroke:#ff0000;stroke-width:0.7;"/>
   </g>
   <g id="PathCollection_26">
    <path clip-path="url(#p8e647611fd)" d="M 157.671074 123.659769 
L 154.671074 129.659769 
L 160.671074 129.659769 
z
" style="fill:none;stroke:#ff0000;stroke-width:0.7;"/>
   </g>
   <g id="PathCollection_27">
    <path clip-path="url(#p8e647611fd)" d="M 156.035582 107.99348 
L 153.035582 113.99348 
L 159.035582 113.99348 
z
" style="fill:none;stroke:#ff0000;stroke-width:0.7;"/>
   </g>
   <g id="PathCollection_28">
    <path clip-path="url(#p8e647611fd)" d="M 209.791612 53.003659 
L 206.791612 59.003659 
L 212.791612 59.003659 
z
" style="fill:none;stroke:#ff0000;stroke-width:0.7;"/>
   </g>
   <g id="PathCollection_29">
    <path clip-path="url(#p8e647611fd)" d="M 209.791612 53.003659 
L 206.791612 59.003659 
L 212.791612 59.003659 
z
" style="fill:none;stroke:#ff0000;stroke-width:0.7;"/>
   </g>
   <g id="PathCollection_30">
    <path clip-path="url(#p8e647611fd)" d="M 301.135257 51.569017 
L 298.135257 57.569017 
L 304.135257 57.569017 
z
" style="fill:none;stroke:#ff0000;stroke-width:0.7;"/>
   </g>
   <g id="PathCollection_31">
    <path clip-path="url(#p8e647611fd)" d="M 309.269676 56.005257 
L 312.269676 50.005257 
L 306.269676 50.005257 
z
" style="fill:none;stroke:#008000;stroke-width:0.7;"/>
   </g>
   <g id="PathCollection_32">
    <path clip-path="url(#p8e647611fd)" d="M 309.269676 56.005257 
L 312.269676 50.005257 
L 306.269676 50.005257 
z
" style="fill:none;stroke:#008000;stroke-width:0.7;"/>
   </g>
   <g id="PathCollection_33">
    <path clip-path="url(#p8e647611fd)" d="M 291.049725 55.973367 
L 288.049725 61.973367 
L 294.049725 61.973367 
z
" style="fill:none;stroke:#ff0000;stroke-width:0.7;"/>
   </g>
   <g id="PathCollection_34">
    <path clip-path="url(#p8e647611fd)" d="M 291.049725 55.973367 
L 288.049725 61.973367 
L 294.049725 61.973367 
z
" style="fill:none;stroke:#ff0000;stroke-width:0.7;"/>
   </g>
   <g id="PathCollection_35">
    <path clip-path="url(#p8e647611fd)" d="M 274.666115 81.412764 
L 277.666115 75.412764 
L 271.666115 75.412764 
z
" style="fill:none;stroke:#008000;stroke-width:0.7;"/>
   </g>
   <g id="PathCollection_36">
    <path clip-path="url(#p8e647611fd)" d="M 257.005674 64.154023 
L 260.005674 58.154023 
L 254.005674 58.154023 
z
" style="fill:none;stroke:#008000;stroke-width:0.7;"/>
   </g>
   <g id="PathCollection_37">
    <path clip-path="url(#p8e647611fd)" d="M 257.005674 64.154023 
L 260.005674 58.154023 
L 254.005674 58.154023 
z
" style="fill:none;stroke:#008000;stroke-width:0.7;"/>
   </g>
   <g id="PathCollection_38">
    <path clip-path="url(#p8e647611fd)" d="M 257.005674 64.154023 
L 260.005674 58.154023 
L 254.005674 58.154023 
z
" style="fill:none;stroke:#008000;stroke-width:0.7;"/>
   </g>
   <g id="PathCollection_39">
    <path clip-path="url(#p8e647611fd)" d="M 257.005674 64.154023 
L 260.005674 58.154023 
L 254.005674 58.154023 
z
" style="fill:none;stroke:#008000;stroke-width:0.7;"/>
   </g>
   <g id="PathCollection_40">
    <path clip-path="url(#p8e647611fd)" d="M 203.020102 49.635447 
L 206.020102 43.635447 
L 200.020102 43.635447 
z
" style="fill:none;stroke:#008000;stroke-width:0.7;"/>
   </g>
   <g id="PathCollection_41">
    <path clip-path="url(#p8e647611fd)" d="M 193.781009 246.396574 
L 196.781009 240.396574 
L 190.781009 240.396574 
z
" style="fill:none;stroke:#008000;stroke-width:0.7;"/>
   </g>
   <g id="PathCollection_42">
    <g clip-path="url(#p8e647611fd)">
     <use style="fill:#ff0000;stroke:#ff0000;stroke-width:1.5;" x="213.105634" xlink:href="#mf7a55eca55" y="48.859142"/>
     <use style="fill:#ff0000;stroke:#ff0000;stroke-width:1.5;" x="157.671074" xlink:href="#mf7a55eca55" y="126.659769"/>
     <use style="fill:#ff0000;stroke:#ff0000;stroke-width:1.5;" x="79.454401" xlink:href="#mf7a55eca55" y="268.344996"/>
     <use style="fill:#ff0000;stroke:#ff0000;stroke-width:1.5;" x="185.546165" xlink:href="#mf7a55eca55" y="241.474154"/>
     <use style="fill:#ff0000;stroke:#ff0000;stroke-width:1.5;" x="149.350151" xlink:href="#mf7a55eca55" y="118.109303"/>
     <use style="fill:#ff0000;stroke:#ff0000;stroke-width:1.5;" x="157.671074" xlink:href="#mf7a55eca55" y="126.659769"/>
     <use style="fill:#ff0000;stroke:#ff0000;stroke-width:1.5;" x="79.454401" xlink:href="#mf7a55eca55" y="268.344996"/>
     <use style="fill:#ff0000;stroke:#ff0000;stroke-width:1.5;" x="307.175099" xlink:href="#mf7a55eca55" y="76.002566"/>
     <use style="fill:#ff0000;stroke:#ff0000;stroke-width:1.5;" x="163.682223" xlink:href="#mf7a55eca55" y="244.81687"/>
     <use style="fill:#ff0000;stroke:#ff0000;stroke-width:1.5;" x="193.781009" xlink:href="#mf7a55eca55" y="243.396574"/>
     <use style="fill:#ff0000;stroke:#ff0000;stroke-width:1.5;" x="284.235176" xlink:href="#mf7a55eca55" y="139.184192"/>
     <use style="fill:#ff0000;stroke:#ff0000;stroke-width:1.5;" x="93.140884" xlink:href="#mf7a55eca55" y="278.588339"/>
    </g>
   </g>
   <g id="PathCollection_43">
    <path clip-path="url(#p8e647611fd)" d="M 186.392603 155.00989 
C 187.188213 155.00989 187.951343 154.693791 188.513924 154.13121 
C 189.076504 153.56863 189.392603 152.805499 189.392603 152.00989 
C 189.392603 151.214281 189.076504 150.45115 188.513924 149.88857 
C 187.951343 149.325989 187.188213 149.00989 186.392603 149.00989 
C 185.596994 149.00989 184.833864 149.325989 184.271283 149.88857 
C 183.708702 150.45115 183.392603 151.214281 183.392603 152.00989 
C 183.392603 152.805499 183.708702 153.56863 184.271283 154.13121 
C 184.833864 154.693791 185.596994 155.00989 186.392603 155.00989 
z
" style="fill:none;stroke:#0000ff;stroke-width:0.7;"/>
   </g>
   <g id="PathCollection_44">
    <path clip-path="url(#p8e647611fd)" d="M 224.252801 157.000845 
L 221.252801 163.000845 
L 227.252801 163.000845 
z
" style="fill:none;stroke:#ff0000;stroke-width:0.7;"/>
   </g>
   <g id="PathCollection_45">
    <path clip-path="url(#p8e647611fd)" d="M 185.546165 238.474154 
L 182.546165 244.474154 
L 188.546165 244.474154 
z
" style="fill:none;stroke:#ff0000;stroke-width:0.7;"/>
   </g>
   <g id="PathCollection_46">
    <path clip-path="url(#p8e647611fd)" d="M 176.063182 242.347687 
L 173.063182 248.347687 
L 179.063182 248.347687 
z
" style="fill:none;stroke:#ff0000;stroke-width:0.7;"/>
   </g>
   <g id="PathCollection_47">
    <path clip-path="url(#p8e647611fd)" d="M 362.265345 248.688804 
L 359.265345 254.688804 
L 365.265345 254.688804 
z
" style="fill:none;stroke:#ff0000;stroke-width:0.7;"/>
   </g>
   <g id="PathCollection_48">
    <path clip-path="url(#p8e647611fd)" d="M 362.265345 248.688804 
L 359.265345 254.688804 
L 365.265345 254.688804 
z
" style="fill:none;stroke:#ff0000;stroke-width:0.7;"/>
   </g>
   <g id="PathCollection_49">
    <path clip-path="url(#p8e647611fd)" d="M 362.265345 248.688804 
L 359.265345 254.688804 
L 365.265345 254.688804 
z
" style="fill:none;stroke:#ff0000;stroke-width:0.7;"/>
   </g>
   <g id="PathCollection_50">
    <path clip-path="url(#p8e647611fd)" d="M 393.454459 235.031014 
L 390.454459 241.031014 
L 396.454459 241.031014 
z
" style="fill:none;stroke:#ff0000;stroke-width:0.7;"/>
   </g>
   <g id="PathCollection_51">
    <path clip-path="url(#p8e647611fd)" d="M 284.235176 136.184192 
L 281.235176 142.184192 
L 287.235176 142.184192 
z
" style="fill:none;stroke:#ff0000;stroke-width:0.7;"/>
   </g>
   <g id="PathCollection_52">
    <path clip-path="url(#p8e647611fd)" d="M 284.235176 136.184192 
L 281.235176 142.184192 
L 287.235176 142.184192 
z
" style="fill:none;stroke:#ff0000;stroke-width:0.7;"/>
   </g>
   <g id="PathCollection_53">
    <path clip-path="url(#p8e647611fd)" d="M 269.013626 176.013046 
L 272.013626 170.013046 
L 266.013626 170.013046 
z
" style="fill:none;stroke:#008000;stroke-width:0.7;"/>
   </g>
   <g id="PathCollection_54">
    <path clip-path="url(#p8e647611fd)" d="M 274.666115 81.412764 
L 277.666115 75.412764 
L 271.666115 75.412764 
z
" style="fill:none;stroke:#008000;stroke-width:0.7;"/>
   </g>
   <g id="PathCollection_55">
    <path clip-path="url(#p8e647611fd)" d="M 274.666115 81.412764 
L 277.666115 75.412764 
L 271.666115 75.412764 
z
" style="fill:none;stroke:#008000;stroke-width:0.7;"/>
   </g>
   <g id="PathCollection_56">
    <path clip-path="url(#p8e647611fd)" d="M 259.602376 64.369219 
L 262.602376 58.369219 
L 256.602376 58.369219 
z
" style="fill:none;stroke:#008000;stroke-width:0.7;"/>
   </g>
   <g id="PathCollection_57">
    <path clip-path="url(#p8e647611fd)" d="M 243.032263 63.72363 
L 246.032263 57.72363 
L 240.032263 57.72363 
z
" style="fill:none;stroke:#008000;stroke-width:0.7;"/>
   </g>
   <g id="PathCollection_58">
    <path clip-path="url(#p8e647611fd)" d="M 215.415408 74.454751 
L 218.415408 68.454751 
L 212.415408 68.454751 
z
" style="fill:none;stroke:#008000;stroke-width:0.7;"/>
   </g>
   <g id="PathCollection_59">
    <path clip-path="url(#p8e647611fd)" d="M 164.672126 48.846394 
L 167.672126 42.846394 
L 161.672126 42.846394 
z
" style="fill:none;stroke:#008000;stroke-width:0.7;"/>
   </g>
   <g id="PathCollection_60">
    <path clip-path="url(#p8e647611fd)" d="M 313.272327 35.159911 
L 316.272327 29.159911 
L 310.272327 29.159911 
z
" style="fill:none;stroke:#008000;stroke-width:0.7;"/>
   </g>
   <g id="PathCollection_61">
    <path clip-path="url(#p8e647611fd)" d="M 285.512007 144.623083 
L 288.512007 138.623083 
L 282.512007 138.623083 
z
" style="fill:none;stroke:#008000;stroke-width:0.7;"/>
   </g>
   <g id="PathCollection_62">
    <g clip-path="url(#p8e647611fd)">
     <use style="fill:#ff0000;stroke:#ff0000;stroke-width:1.5;" x="213.105634" xlink:href="#mf7a55eca55" y="48.859142"/>
     <use style="fill:#ff0000;stroke:#ff0000;stroke-width:1.5;" x="157.671074" xlink:href="#mf7a55eca55" y="126.659769"/>
     <use style="fill:#ff0000;stroke:#ff0000;stroke-width:1.5;" x="79.454401" xlink:href="#mf7a55eca55" y="268.344996"/>
     <use style="fill:#ff0000;stroke:#ff0000;stroke-width:1.5;" x="185.546165" xlink:href="#mf7a55eca55" y="241.474154"/>
     <use style="fill:#ff0000;stroke:#ff0000;stroke-width:1.5;" x="149.350151" xlink:href="#mf7a55eca55" y="118.109303"/>
     <use style="fill:#ff0000;stroke:#ff0000;stroke-width:1.5;" x="157.671074" xlink:href="#mf7a55eca55" y="126.659769"/>
     <use style="fill:#ff0000;stroke:#ff0000;stroke-width:1.5;" x="79.454401" xlink:href="#mf7a55eca55" y="268.344996"/>
     <use style="fill:#ff0000;stroke:#ff0000;stroke-width:1.5;" x="307.175099" xlink:href="#mf7a55eca55" y="76.002566"/>
     <use style="fill:#ff0000;stroke:#ff0000;stroke-width:1.5;" x="163.682223" xlink:href="#mf7a55eca55" y="244.81687"/>
     <use style="fill:#ff0000;stroke:#ff0000;stroke-width:1.5;" x="193.781009" xlink:href="#mf7a55eca55" y="243.396574"/>
     <use style="fill:#ff0000;stroke:#ff0000;stroke-width:1.5;" x="284.235176" xlink:href="#mf7a55eca55" y="139.184192"/>
     <use style="fill:#ff0000;stroke:#ff0000;stroke-width:1.5;" x="93.140884" xlink:href="#mf7a55eca55" y="278.588339"/>
    </g>
   </g>
   <g id="matplotlib.axis_1">
    <g id="xtick_1">
     <g id="line2d_1">
      <defs>
       <path d="M 0 0 
L 0 3.5 
" id="m8239652580" style="stroke:#000000;stroke-width:0.8;"/>
      </defs>
      <g>
       <use style="stroke:#000000;stroke-width:0.8;" x="57.74827" xlink:href="#m8239652580" y="288.430125"/>
      </g>
     </g>
     <g id="text_1">
      <!-- −71.070 -->
      <g transform="translate(36.063114 303.028562)scale(0.1 -0.1)">
       <defs>
        <path d="M 10.59375 35.5 
L 73.1875 35.5 
L 73.1875 27.203125 
L 10.59375 27.203125 
z
" id="DejaVuSans-8722"/>
        <path d="M 8.203125 72.90625 
L 55.078125 72.90625 
L 55.078125 68.703125 
L 28.609375 0 
L 18.3125 0 
L 43.21875 64.59375 
L 8.203125 64.59375 
z
" id="DejaVuSans-55"/>
        <path d="M 12.40625 8.296875 
L 28.515625 8.296875 
L 28.515625 63.921875 
L 10.984375 60.40625 
L 10.984375 69.390625 
L 28.421875 72.90625 
L 38.28125 72.90625 
L 38.28125 8.296875 
L 54.390625 8.296875 
L 54.390625 0 
L 12.40625 0 
z
" id="DejaVuSans-49"/>
        <path d="M 10.6875 12.40625 
L 21 12.40625 
L 21 0 
L 10.6875 0 
z
" id="DejaVuSans-46"/>
        <path d="M 31.78125 66.40625 
Q 24.171875 66.40625 20.328125 58.90625 
Q 16.5 51.421875 16.5 36.375 
Q 16.5 21.390625 20.328125 13.890625 
Q 24.171875 6.390625 31.78125 6.390625 
Q 39.453125 6.390625 43.28125 13.890625 
Q 47.125 21.390625 47.125 36.375 
Q 47.125 51.421875 43.28125 58.90625 
Q 39.453125 66.40625 31.78125 66.40625 
z
M 31.78125 74.21875 
Q 44.046875 74.21875 50.515625 64.515625 
Q 56.984375 54.828125 56.984375 36.375 
Q 56.984375 17.96875 50.515625 8.265625 
Q 44.046875 -1.421875 31.78125 -1.421875 
Q 19.53125 -1.421875 13.0625 8.265625 
Q 6.59375 17.96875 6.59375 36.375 
Q 6.59375 54.828125 13.0625 64.515625 
Q 19.53125 74.21875 31.78125 74.21875 
z
" id="DejaVuSans-48"/>
       </defs>
       <use xlink:href="#DejaVuSans-8722"/>
       <use x="83.789062" xlink:href="#DejaVuSans-55"/>
       <use x="147.412109" xlink:href="#DejaVuSans-49"/>
       <use x="211.035156" xlink:href="#DejaVuSans-46"/>
       <use x="242.822266" xlink:href="#DejaVuSans-48"/>
       <use x="306.445312" xlink:href="#DejaVuSans-55"/>
       <use x="370.068359" xlink:href="#DejaVuSans-48"/>
      </g>
     </g>
    </g>
    <g id="xtick_2">
     <g id="line2d_2">
      <g>
       <use style="stroke:#000000;stroke-width:0.8;" x="129.480362" xlink:href="#m8239652580" y="288.430125"/>
      </g>
     </g>
     <g id="text_2">
      <!-- −71.065 -->
      <g transform="translate(107.795206 303.028562)scale(0.1 -0.1)">
       <defs>
        <path d="M 33.015625 40.375 
Q 26.375 40.375 22.484375 35.828125 
Q 18.609375 31.296875 18.609375 23.390625 
Q 18.609375 15.53125 22.484375 10.953125 
Q 26.375 6.390625 33.015625 6.390625 
Q 39.65625 6.390625 43.53125 10.953125 
Q 47.40625 15.53125 47.40625 23.390625 
Q 47.40625 31.296875 43.53125 35.828125 
Q 39.65625 40.375 33.015625 40.375 
z
M 52.59375 71.296875 
L 52.59375 62.3125 
Q 48.875 64.0625 45.09375 64.984375 
Q 41.3125 65.921875 37.59375 65.921875 
Q 27.828125 65.921875 22.671875 59.328125 
Q 17.53125 52.734375 16.796875 39.40625 
Q 19.671875 43.65625 24.015625 45.921875 
Q 28.375 48.1875 33.59375 48.1875 
Q 44.578125 48.1875 50.953125 41.515625 
Q 57.328125 34.859375 57.328125 23.390625 
Q 57.328125 12.15625 50.6875 5.359375 
Q 44.046875 -1.421875 33.015625 -1.421875 
Q 20.359375 -1.421875 13.671875 8.265625 
Q 6.984375 17.96875 6.984375 36.375 
Q 6.984375 53.65625 15.1875 63.9375 
Q 23.390625 74.21875 37.203125 74.21875 
Q 40.921875 74.21875 44.703125 73.484375 
Q 48.484375 72.75 52.59375 71.296875 
z
" id="DejaVuSans-54"/>
        <path d="M 10.796875 72.90625 
L 49.515625 72.90625 
L 49.515625 64.59375 
L 19.828125 64.59375 
L 19.828125 46.734375 
Q 21.96875 47.46875 24.109375 47.828125 
Q 26.265625 48.1875 28.421875 48.1875 
Q 40.625 48.1875 47.75 41.5 
Q 54.890625 34.8125 54.890625 23.390625 
Q 54.890625 11.625 47.5625 5.09375 
Q 40.234375 -1.421875 26.90625 -1.421875 
Q 22.3125 -1.421875 17.546875 -0.640625 
Q 12.796875 0.140625 7.71875 1.703125 
L 7.71875 11.625 
Q 12.109375 9.234375 16.796875 8.0625 
Q 21.484375 6.890625 26.703125 6.890625 
Q 35.15625 6.890625 40.078125 11.328125 
Q 45.015625 15.765625 45.015625 23.390625 
Q 45.015625 31 40.078125 35.4375 
Q 35.15625 39.890625 26.703125 39.890625 
Q 22.75 39.890625 18.8125 39.015625 
Q 14.890625 38.140625 10.796875 36.28125 
z
" id="DejaVuSans-53"/>
       </defs>
       <use xlink:href="#DejaVuSans-8722"/>
       <use x="83.789062" xlink:href="#DejaVuSans-55"/>
       <use x="147.412109" xlink:href="#DejaVuSans-49"/>
       <use x="211.035156" xlink:href="#DejaVuSans-46"/>
       <use x="242.822266" xlink:href="#DejaVuSans-48"/>
       <use x="306.445312" xlink:href="#DejaVuSans-54"/>
       <use x="370.068359" xlink:href="#DejaVuSans-53"/>
      </g>
     </g>
    </g>
    <g id="xtick_3">
     <g id="line2d_3">
      <g>
       <use style="stroke:#000000;stroke-width:0.8;" x="201.212453" xlink:href="#m8239652580" y="288.430125"/>
      </g>
     </g>
     <g id="text_3">
      <!-- −71.060 -->
      <g transform="translate(179.527297 303.028562)scale(0.1 -0.1)">
       <use xlink:href="#DejaVuSans-8722"/>
       <use x="83.789062" xlink:href="#DejaVuSans-55"/>
       <use x="147.412109" xlink:href="#DejaVuSans-49"/>
       <use x="211.035156" xlink:href="#DejaVuSans-46"/>
       <use x="242.822266" xlink:href="#DejaVuSans-48"/>
       <use x="306.445312" xlink:href="#DejaVuSans-54"/>
       <use x="370.068359" xlink:href="#DejaVuSans-48"/>
      </g>
     </g>
    </g>
    <g id="xtick_4">
     <g id="line2d_4">
      <g>
       <use style="stroke:#000000;stroke-width:0.8;" x="272.944545" xlink:href="#m8239652580" y="288.430125"/>
      </g>
     </g>
     <g id="text_4">
      <!-- −71.055 -->
      <g transform="translate(251.259389 303.028562)scale(0.1 -0.1)">
       <use xlink:href="#DejaVuSans-8722"/>
       <use x="83.789062" xlink:href="#DejaVuSans-55"/>
       <use x="147.412109" xlink:href="#DejaVuSans-49"/>
       <use x="211.035156" xlink:href="#DejaVuSans-46"/>
       <use x="242.822266" xlink:href="#DejaVuSans-48"/>
       <use x="306.445312" xlink:href="#DejaVuSans-53"/>
       <use x="370.068359" xlink:href="#DejaVuSans-53"/>
      </g>
     </g>
    </g>
    <g id="xtick_5">
     <g id="line2d_5">
      <g>
       <use style="stroke:#000000;stroke-width:0.8;" x="344.676636" xlink:href="#m8239652580" y="288.430125"/>
      </g>
     </g>
     <g id="text_5">
      <!-- −71.050 -->
      <g transform="translate(322.99148 303.028562)scale(0.1 -0.1)">
       <use xlink:href="#DejaVuSans-8722"/>
       <use x="83.789062" xlink:href="#DejaVuSans-55"/>
       <use x="147.412109" xlink:href="#DejaVuSans-49"/>
       <use x="211.035156" xlink:href="#DejaVuSans-46"/>
       <use x="242.822266" xlink:href="#DejaVuSans-48"/>
       <use x="306.445312" xlink:href="#DejaVuSans-53"/>
       <use x="370.068359" xlink:href="#DejaVuSans-48"/>
      </g>
     </g>
    </g>
   </g>
   <g id="matplotlib.axis_2">
    <g id="ytick_1">
     <g id="line2d_6">
      <defs>
       <path d="M 0 0 
L -3.5 0 
" id="mda54e003d9" style="stroke:#000000;stroke-width:0.8;"/>
      </defs>
      <g>
       <use style="stroke:#000000;stroke-width:0.8;" x="55.553125" xlink:href="#mda54e003d9" y="269.033624"/>
      </g>
     </g>
     <g id="text_6">
      <!-- 42.3500 -->
      <g transform="translate(7.2 272.832843)scale(0.1 -0.1)">
       <defs>
        <path d="M 37.796875 64.3125 
L 12.890625 25.390625 
L 37.796875 25.390625 
z
M 35.203125 72.90625 
L 47.609375 72.90625 
L 47.609375 25.390625 
L 58.015625 25.390625 
L 58.015625 17.1875 
L 47.609375 17.1875 
L 47.609375 0 
L 37.796875 0 
L 37.796875 17.1875 
L 4.890625 17.1875 
L 4.890625 26.703125 
z
" id="DejaVuSans-52"/>
        <path d="M 19.1875 8.296875 
L 53.609375 8.296875 
L 53.609375 0 
L 7.328125 0 
L 7.328125 8.296875 
Q 12.9375 14.109375 22.625 23.890625 
Q 32.328125 33.6875 34.8125 36.53125 
Q 39.546875 41.84375 41.421875 45.53125 
Q 43.3125 49.21875 43.3125 52.78125 
Q 43.3125 58.59375 39.234375 62.25 
Q 35.15625 65.921875 28.609375 65.921875 
Q 23.96875 65.921875 18.8125 64.3125 
Q 13.671875 62.703125 7.8125 59.421875 
L 7.8125 69.390625 
Q 13.765625 71.78125 18.9375 73 
Q 24.125 74.21875 28.421875 74.21875 
Q 39.75 74.21875 46.484375 68.546875 
Q 53.21875 62.890625 53.21875 53.421875 
Q 53.21875 48.921875 51.53125 44.890625 
Q 49.859375 40.875 45.40625 35.40625 
Q 44.1875 33.984375 37.640625 27.21875 
Q 31.109375 20.453125 19.1875 8.296875 
z
" id="DejaVuSans-50"/>
        <path d="M 40.578125 39.3125 
Q 47.65625 37.796875 51.625 33 
Q 55.609375 28.21875 55.609375 21.1875 
Q 55.609375 10.40625 48.1875 4.484375 
Q 40.765625 -1.421875 27.09375 -1.421875 
Q 22.515625 -1.421875 17.65625 -0.515625 
Q 12.796875 0.390625 7.625 2.203125 
L 7.625 11.71875 
Q 11.71875 9.328125 16.59375 8.109375 
Q 21.484375 6.890625 26.8125 6.890625 
Q 36.078125 6.890625 40.9375 10.546875 
Q 45.796875 14.203125 45.796875 21.1875 
Q 45.796875 27.640625 41.28125 31.265625 
Q 36.765625 34.90625 28.71875 34.90625 
L 20.21875 34.90625 
L 20.21875 43.015625 
L 29.109375 43.015625 
Q 36.375 43.015625 40.234375 45.921875 
Q 44.09375 48.828125 44.09375 54.296875 
Q 44.09375 59.90625 40.109375 62.90625 
Q 36.140625 65.921875 28.71875 65.921875 
Q 24.65625 65.921875 20.015625 65.03125 
Q 15.375 64.15625 9.8125 62.3125 
L 9.8125 71.09375 
Q 15.4375 72.65625 20.34375 73.4375 
Q 25.25 74.21875 29.59375 74.21875 
Q 40.828125 74.21875 47.359375 69.109375 
Q 53.90625 64.015625 53.90625 55.328125 
Q 53.90625 49.265625 50.4375 45.09375 
Q 46.96875 40.921875 40.578125 39.3125 
z
" id="DejaVuSans-51"/>
       </defs>
       <use xlink:href="#DejaVuSans-52"/>
       <use x="63.623047" xlink:href="#DejaVuSans-50"/>
       <use x="127.246094" xlink:href="#DejaVuSans-46"/>
       <use x="159.033203" xlink:href="#DejaVuSans-51"/>
       <use x="222.65625" xlink:href="#DejaVuSans-53"/>
       <use x="286.279297" xlink:href="#DejaVuSans-48"/>
       <use x="349.902344" xlink:href="#DejaVuSans-48"/>
      </g>
     </g>
    </g>
    <g id="ytick_2">
     <g id="line2d_7">
      <g>
       <use style="stroke:#000000;stroke-width:0.8;" x="55.553125" xlink:href="#mda54e003d9" y="233.167578"/>
      </g>
     </g>
     <g id="text_7">
      <!-- 42.3525 -->
      <g transform="translate(7.2 236.966797)scale(0.1 -0.1)">
       <use xlink:href="#DejaVuSans-52"/>
       <use x="63.623047" xlink:href="#DejaVuSans-50"/>
       <use x="127.246094" xlink:href="#DejaVuSans-46"/>
       <use x="159.033203" xlink:href="#DejaVuSans-51"/>
       <use x="222.65625" xlink:href="#DejaVuSans-53"/>
       <use x="286.279297" xlink:href="#DejaVuSans-50"/>
       <use x="349.902344" xlink:href="#DejaVuSans-53"/>
      </g>
     </g>
    </g>
    <g id="ytick_3">
     <g id="line2d_8">
      <g>
       <use style="stroke:#000000;stroke-width:0.8;" x="55.553125" xlink:href="#mda54e003d9" y="197.301532"/>
      </g>
     </g>
     <g id="text_8">
      <!-- 42.3550 -->
      <g transform="translate(7.2 201.100751)scale(0.1 -0.1)">
       <use xlink:href="#DejaVuSans-52"/>
       <use x="63.623047" xlink:href="#DejaVuSans-50"/>
       <use x="127.246094" xlink:href="#DejaVuSans-46"/>
       <use x="159.033203" xlink:href="#DejaVuSans-51"/>
       <use x="222.65625" xlink:href="#DejaVuSans-53"/>
       <use x="286.279297" xlink:href="#DejaVuSans-53"/>
       <use x="349.902344" xlink:href="#DejaVuSans-48"/>
      </g>
     </g>
    </g>
    <g id="ytick_4">
     <g id="line2d_9">
      <g>
       <use style="stroke:#000000;stroke-width:0.8;" x="55.553125" xlink:href="#mda54e003d9" y="161.435487"/>
      </g>
     </g>
     <g id="text_9">
      <!-- 42.3575 -->
      <g transform="translate(7.2 165.234705)scale(0.1 -0.1)">
       <use xlink:href="#DejaVuSans-52"/>
       <use x="63.623047" xlink:href="#DejaVuSans-50"/>
       <use x="127.246094" xlink:href="#DejaVuSans-46"/>
       <use x="159.033203" xlink:href="#DejaVuSans-51"/>
       <use x="222.65625" xlink:href="#DejaVuSans-53"/>
       <use x="286.279297" xlink:href="#DejaVuSans-55"/>
       <use x="349.902344" xlink:href="#DejaVuSans-53"/>
      </g>
     </g>
    </g>
    <g id="ytick_5">
     <g id="line2d_10">
      <g>
       <use style="stroke:#000000;stroke-width:0.8;" x="55.553125" xlink:href="#mda54e003d9" y="125.569441"/>
      </g>
     </g>
     <g id="text_10">
      <!-- 42.3600 -->
      <g transform="translate(7.2 129.36866)scale(0.1 -0.1)">
       <use xlink:href="#DejaVuSans-52"/>
       <use x="63.623047" xlink:href="#DejaVuSans-50"/>
       <use x="127.246094" xlink:href="#DejaVuSans-46"/>
       <use x="159.033203" xlink:href="#DejaVuSans-51"/>
       <use x="222.65625" xlink:href="#DejaVuSans-54"/>
       <use x="286.279297" xlink:href="#DejaVuSans-48"/>
       <use x="349.902344" xlink:href="#DejaVuSans-48"/>
      </g>
     </g>
    </g>
    <g id="ytick_6">
     <g id="line2d_11">
      <g>
       <use style="stroke:#000000;stroke-width:0.8;" x="55.553125" xlink:href="#mda54e003d9" y="89.703395"/>
      </g>
     </g>
     <g id="text_11">
      <!-- 42.3625 -->
      <g transform="translate(7.2 93.502614)scale(0.1 -0.1)">
       <use xlink:href="#DejaVuSans-52"/>
       <use x="63.623047" xlink:href="#DejaVuSans-50"/>
       <use x="127.246094" xlink:href="#DejaVuSans-46"/>
       <use x="159.033203" xlink:href="#DejaVuSans-51"/>
       <use x="222.65625" xlink:href="#DejaVuSans-54"/>
       <use x="286.279297" xlink:href="#DejaVuSans-50"/>
       <use x="349.902344" xlink:href="#DejaVuSans-53"/>
      </g>
     </g>
    </g>
    <g id="ytick_7">
     <g id="line2d_12">
      <g>
       <use style="stroke:#000000;stroke-width:0.8;" x="55.553125" xlink:href="#mda54e003d9" y="53.837349"/>
      </g>
     </g>
     <g id="text_12">
      <!-- 42.3650 -->
      <g transform="translate(7.2 57.636568)scale(0.1 -0.1)">
       <use xlink:href="#DejaVuSans-52"/>
       <use x="63.623047" xlink:href="#DejaVuSans-50"/>
       <use x="127.246094" xlink:href="#DejaVuSans-46"/>
       <use x="159.033203" xlink:href="#DejaVuSans-51"/>
       <use x="222.65625" xlink:href="#DejaVuSans-54"/>
       <use x="286.279297" xlink:href="#DejaVuSans-53"/>
       <use x="349.902344" xlink:href="#DejaVuSans-48"/>
      </g>
     </g>
    </g>
   </g>
   <g id="line2d_13">
    <path clip-path="url(#p8e647611fd)" d="M 186.392603 152.00989 
L 127.141896 250.038966 
L 185.546165 241.474154 
L 187.52597 246.394976 
L 187.52597 246.394976 
L 163.682223 244.81687 
L 215.702336 170.143763 
L 307.175099 76.002566 
L 266.158689 58.456896 
L 291.049725 58.973367 
L 301.135257 54.569017 
L 259.602376 61.369219 
L 257.005674 61.154023 
L 97.100496 141.221383 
L 97.100496 141.221383 
L 83.342281 131.996636 
L 86.82846 64.898438 
L 86.82846 64.898438 
L 74.863547 131.250623 
L 83.342281 131.996636 
L 65.394911 136.98919 
" style="fill:none;stroke:#7b68ee;stroke-linecap:square;stroke-width:1.5;"/>
   </g>
   <g id="line2d_14">
    <path clip-path="url(#p8e647611fd)" d="M 186.392603 152.00989 
L 199.634347 158.394046 
L 157.671074 126.659769 
L 157.671074 126.659769 
L 156.035582 110.99348 
L 209.791612 56.003659 
L 209.791612 56.003659 
L 301.135257 54.569017 
L 309.269676 53.005257 
L 309.269676 53.005257 
L 291.049725 58.973367 
L 291.049725 58.973367 
L 274.666115 78.412764 
L 257.005674 61.154023 
L 257.005674 61.154023 
L 257.005674 61.154023 
L 257.005674 61.154023 
L 203.020102 46.635447 
L 193.781009 243.396574 
" style="fill:none;stroke:#008b8b;stroke-linecap:square;stroke-width:1.5;"/>
   </g>
   <g id="line2d_15">
    <path clip-path="url(#p8e647611fd)" d="M 186.392603 152.00989 
L 224.252801 160.000845 
L 185.546165 241.474154 
L 176.063182 245.347687 
L 362.265345 251.688804 
L 362.265345 251.688804 
L 362.265345 251.688804 
L 393.454459 238.031014 
L 284.235176 139.184192 
L 284.235176 139.184192 
L 269.013626 173.013046 
L 274.666115 78.412764 
L 274.666115 78.412764 
L 259.602376 61.369219 
L 243.032263 60.72363 
L 215.415408 71.454751 
L 164.672126 45.846394 
L 313.272327 32.159911 
L 285.512007 141.623083 
" style="fill:none;stroke:#cd5c5c;stroke-linecap:square;stroke-width:1.5;"/>
   </g>
   <g id="patch_3">
    <path d="M 55.553125 288.430125 
L 55.553125 22.318125 
" style="fill:none;stroke:#000000;stroke-linecap:square;stroke-linejoin:miter;stroke-width:0.8;"/>
   </g>
   <g id="patch_4">
    <path d="M 403.296245 288.430125 
L 403.296245 22.318125 
" style="fill:none;stroke:#000000;stroke-linecap:square;stroke-linejoin:miter;stroke-width:0.8;"/>
   </g>
   <g id="patch_5">
    <path d="M 55.553125 288.430125 
L 403.296245 288.430125 
" style="fill:none;stroke:#000000;stroke-linecap:square;stroke-linejoin:miter;stroke-width:0.8;"/>
   </g>
   <g id="patch_6">
    <path d="M 55.553125 22.318125 
L 403.296245 22.318125 
" style="fill:none;stroke:#000000;stroke-linecap:square;stroke-linejoin:miter;stroke-width:0.8;"/>
   </g>
   <g id="text_13">
    <!-- 11:28 -->
    <g style="fill:#7b68ee;" transform="translate(178.392603 147.00989)scale(0.0579 -0.0579)">
     <defs>
      <path d="M 11.71875 12.40625 
L 22.015625 12.40625 
L 22.015625 0 
L 11.71875 0 
z
M 11.71875 51.703125 
L 22.015625 51.703125 
L 22.015625 39.3125 
L 11.71875 39.3125 
z
" id="DejaVuSans-58"/>
      <path d="M 31.78125 34.625 
Q 24.75 34.625 20.71875 30.859375 
Q 16.703125 27.09375 16.703125 20.515625 
Q 16.703125 13.921875 20.71875 10.15625 
Q 24.75 6.390625 31.78125 6.390625 
Q 38.8125 6.390625 42.859375 10.171875 
Q 46.921875 13.96875 46.921875 20.515625 
Q 46.921875 27.09375 42.890625 30.859375 
Q 38.875 34.625 31.78125 34.625 
z
M 21.921875 38.8125 
Q 15.578125 40.375 12.03125 44.71875 
Q 8.5 49.078125 8.5 55.328125 
Q 8.5 64.0625 14.71875 69.140625 
Q 20.953125 74.21875 31.78125 74.21875 
Q 42.671875 74.21875 48.875 69.140625 
Q 55.078125 64.0625 55.078125 55.328125 
Q 55.078125 49.078125 51.53125 44.71875 
Q 48 40.375 41.703125 38.8125 
Q 48.828125 37.15625 52.796875 32.3125 
Q 56.78125 27.484375 56.78125 20.515625 
Q 56.78125 9.90625 50.3125 4.234375 
Q 43.84375 -1.421875 31.78125 -1.421875 
Q 19.734375 -1.421875 13.25 4.234375 
Q 6.78125 9.90625 6.78125 20.515625 
Q 6.78125 27.484375 10.78125 32.3125 
Q 14.796875 37.15625 21.921875 38.8125 
z
M 18.3125 54.390625 
Q 18.3125 48.734375 21.84375 45.5625 
Q 25.390625 42.390625 31.78125 42.390625 
Q 38.140625 42.390625 41.71875 45.5625 
Q 45.3125 48.734375 45.3125 54.390625 
Q 45.3125 60.0625 41.71875 63.234375 
Q 38.140625 66.40625 31.78125 66.40625 
Q 25.390625 66.40625 21.84375 63.234375 
Q 18.3125 60.0625 18.3125 54.390625 
z
" id="DejaVuSans-56"/>
     </defs>
     <use xlink:href="#DejaVuSans-49"/>
     <use x="63.623047" xlink:href="#DejaVuSans-49"/>
     <use x="127.246094" xlink:href="#DejaVuSans-58"/>
     <use x="160.9375" xlink:href="#DejaVuSans-50"/>
     <use x="224.560547" xlink:href="#DejaVuSans-56"/>
    </g>
   </g>
   <g id="text_14">
    <!-- 11:33 -->
    <g style="fill:#7b68ee;" transform="translate(177.546165 236.474154)scale(0.0579 -0.0579)">
     <use xlink:href="#DejaVuSans-49"/>
     <use x="63.623047" xlink:href="#DejaVuSans-49"/>
     <use x="127.246094" xlink:href="#DejaVuSans-58"/>
     <use x="160.9375" xlink:href="#DejaVuSans-51"/>
     <use x="224.560547" xlink:href="#DejaVuSans-51"/>
    </g>
   </g>
   <g id="text_15">
    <!-- 11:38 -->
    <g style="fill:#7b68ee;" transform="translate(179.52597 241.394976)scale(0.0579 -0.0579)">
     <use xlink:href="#DejaVuSans-49"/>
     <use x="63.623047" xlink:href="#DejaVuSans-49"/>
     <use x="127.246094" xlink:href="#DejaVuSans-58"/>
     <use x="160.9375" xlink:href="#DejaVuSans-51"/>
     <use x="224.560547" xlink:href="#DejaVuSans-56"/>
    </g>
   </g>
   <g id="text_16">
    <!-- 11:44 -->
    <g style="fill:#7b68ee;" transform="translate(207.702336 165.143763)scale(0.0579 -0.0579)">
     <use xlink:href="#DejaVuSans-49"/>
     <use x="63.623047" xlink:href="#DejaVuSans-49"/>
     <use x="127.246094" xlink:href="#DejaVuSans-58"/>
     <use x="160.9375" xlink:href="#DejaVuSans-52"/>
     <use x="224.560547" xlink:href="#DejaVuSans-52"/>
    </g>
   </g>
   <g id="text_17">
    <!-- 11:53 -->
    <g style="fill:#7b68ee;" transform="translate(258.158689 53.456896)scale(0.0579 -0.0579)">
     <use xlink:href="#DejaVuSans-49"/>
     <use x="63.623047" xlink:href="#DejaVuSans-49"/>
     <use x="127.246094" xlink:href="#DejaVuSans-58"/>
     <use x="160.9375" xlink:href="#DejaVuSans-53"/>
     <use x="224.560547" xlink:href="#DejaVuSans-51"/>
    </g>
   </g>
   <g id="text_18">
    <!-- 11:58 -->
    <g style="fill:#7b68ee;" transform="translate(293.135257 49.569017)scale(0.0579 -0.0579)">
     <use xlink:href="#DejaVuSans-49"/>
     <use x="63.623047" xlink:href="#DejaVuSans-49"/>
     <use x="127.246094" xlink:href="#DejaVuSans-58"/>
     <use x="160.9375" xlink:href="#DejaVuSans-53"/>
     <use x="224.560547" xlink:href="#DejaVuSans-56"/>
    </g>
   </g>
   <g id="text_19">
    <!-- 12:03 -->
    <g style="fill:#7b68ee;" transform="translate(249.005674 56.154023)scale(0.0579 -0.0579)">
     <use xlink:href="#DejaVuSans-49"/>
     <use x="63.623047" xlink:href="#DejaVuSans-50"/>
     <use x="127.246094" xlink:href="#DejaVuSans-58"/>
     <use x="160.9375" xlink:href="#DejaVuSans-48"/>
     <use x="224.560547" xlink:href="#DejaVuSans-51"/>
    </g>
   </g>
   <g id="text_20">
    <!-- 12:11 -->
    <g style="fill:#7b68ee;" transform="translate(89.100496 136.221383)scale(0.0579 -0.0579)">
     <use xlink:href="#DejaVuSans-49"/>
     <use x="63.623047" xlink:href="#DejaVuSans-50"/>
     <use x="127.246094" xlink:href="#DejaVuSans-58"/>
     <use x="160.9375" xlink:href="#DejaVuSans-49"/>
     <use x="224.560547" xlink:href="#DejaVuSans-49"/>
    </g>
   </g>
   <g id="text_21">
    <!-- 12:19 -->
    <g style="fill:#7b68ee;" transform="translate(78.82846 59.898438)scale(0.0579 -0.0579)">
     <defs>
      <path d="M 10.984375 1.515625 
L 10.984375 10.5 
Q 14.703125 8.734375 18.5 7.8125 
Q 22.3125 6.890625 25.984375 6.890625 
Q 35.75 6.890625 40.890625 13.453125 
Q 46.046875 20.015625 46.78125 33.40625 
Q 43.953125 29.203125 39.59375 26.953125 
Q 35.25 24.703125 29.984375 24.703125 
Q 19.046875 24.703125 12.671875 31.3125 
Q 6.296875 37.9375 6.296875 49.421875 
Q 6.296875 60.640625 12.9375 67.421875 
Q 19.578125 74.21875 30.609375 74.21875 
Q 43.265625 74.21875 49.921875 64.515625 
Q 56.59375 54.828125 56.59375 36.375 
Q 56.59375 19.140625 48.40625 8.859375 
Q 40.234375 -1.421875 26.421875 -1.421875 
Q 22.703125 -1.421875 18.890625 -0.6875 
Q 15.09375 0.046875 10.984375 1.515625 
z
M 30.609375 32.421875 
Q 37.25 32.421875 41.125 36.953125 
Q 45.015625 41.5 45.015625 49.421875 
Q 45.015625 57.28125 41.125 61.84375 
Q 37.25 66.40625 30.609375 66.40625 
Q 23.96875 66.40625 20.09375 61.84375 
Q 16.21875 57.28125 16.21875 49.421875 
Q 16.21875 41.5 20.09375 36.953125 
Q 23.96875 32.421875 30.609375 32.421875 
z
" id="DejaVuSans-57"/>
     </defs>
     <use xlink:href="#DejaVuSans-49"/>
     <use x="63.623047" xlink:href="#DejaVuSans-50"/>
     <use x="127.246094" xlink:href="#DejaVuSans-58"/>
     <use x="160.9375" xlink:href="#DejaVuSans-49"/>
     <use x="224.560547" xlink:href="#DejaVuSans-57"/>
    </g>
   </g>
   <g id="text_22">
    <!-- 12:26 -->
    <g style="fill:#7b68ee;" transform="translate(66.863547 126.250623)scale(0.0579 -0.0579)">
     <use xlink:href="#DejaVuSans-49"/>
     <use x="63.623047" xlink:href="#DejaVuSans-50"/>
     <use x="127.246094" xlink:href="#DejaVuSans-58"/>
     <use x="160.9375" xlink:href="#DejaVuSans-50"/>
     <use x="224.560547" xlink:href="#DejaVuSans-54"/>
    </g>
   </g>
   <g id="text_23">
    <!-- 12:31 -->
    <g style="fill:#7b68ee;" transform="translate(57.394911 131.98919)scale(0.0579 -0.0579)">
     <use xlink:href="#DejaVuSans-49"/>
     <use x="63.623047" xlink:href="#DejaVuSans-50"/>
     <use x="127.246094" xlink:href="#DejaVuSans-58"/>
     <use x="160.9375" xlink:href="#DejaVuSans-51"/>
     <use x="224.560547" xlink:href="#DejaVuSans-49"/>
    </g>
   </g>
   <g id="text_24">
    <!-- 11:36 -->
    <g style="fill:#008b8b;" transform="translate(178.392603 147.00989)scale(0.0579 -0.0579)">
     <use xlink:href="#DejaVuSans-49"/>
     <use x="63.623047" xlink:href="#DejaVuSans-49"/>
     <use x="127.246094" xlink:href="#DejaVuSans-58"/>
     <use x="160.9375" xlink:href="#DejaVuSans-51"/>
     <use x="224.560547" xlink:href="#DejaVuSans-54"/>
    </g>
   </g>
   <g id="text_25">
    <!-- 11:40 -->
    <g style="fill:#008b8b;" transform="translate(149.671074 121.659769)scale(0.0579 -0.0579)">
     <use xlink:href="#DejaVuSans-49"/>
     <use x="63.623047" xlink:href="#DejaVuSans-49"/>
     <use x="127.246094" xlink:href="#DejaVuSans-58"/>
     <use x="160.9375" xlink:href="#DejaVuSans-52"/>
     <use x="224.560547" xlink:href="#DejaVuSans-48"/>
    </g>
   </g>
   <g id="text_26">
    <!-- 11:45 -->
    <g style="fill:#008b8b;" transform="translate(148.035582 105.99348)scale(0.0579 -0.0579)">
     <use xlink:href="#DejaVuSans-49"/>
     <use x="63.623047" xlink:href="#DejaVuSans-49"/>
     <use x="127.246094" xlink:href="#DejaVuSans-58"/>
     <use x="160.9375" xlink:href="#DejaVuSans-52"/>
     <use x="224.560547" xlink:href="#DejaVuSans-53"/>
    </g>
   </g>
   <g id="text_27">
    <!-- 11:53 -->
    <g style="fill:#008b8b;" transform="translate(201.791612 51.003659)scale(0.0579 -0.0579)">
     <use xlink:href="#DejaVuSans-49"/>
     <use x="63.623047" xlink:href="#DejaVuSans-49"/>
     <use x="127.246094" xlink:href="#DejaVuSans-58"/>
     <use x="160.9375" xlink:href="#DejaVuSans-53"/>
     <use x="224.560547" xlink:href="#DejaVuSans-51"/>
    </g>
   </g>
   <g id="text_28">
    <!-- 12:00 -->
    <g style="fill:#008b8b;" transform="translate(301.269676 48.005257)scale(0.0579 -0.0579)">
     <use xlink:href="#DejaVuSans-49"/>
     <use x="63.623047" xlink:href="#DejaVuSans-50"/>
     <use x="127.246094" xlink:href="#DejaVuSans-58"/>
     <use x="160.9375" xlink:href="#DejaVuSans-48"/>
     <use x="224.560547" xlink:href="#DejaVuSans-48"/>
    </g>
   </g>
   <g id="text_29">
    <!-- 12:05 -->
    <g style="fill:#008b8b;" transform="translate(283.049725 53.973367)scale(0.0579 -0.0579)">
     <use xlink:href="#DejaVuSans-49"/>
     <use x="63.623047" xlink:href="#DejaVuSans-50"/>
     <use x="127.246094" xlink:href="#DejaVuSans-58"/>
     <use x="160.9375" xlink:href="#DejaVuSans-48"/>
     <use x="224.560547" xlink:href="#DejaVuSans-53"/>
    </g>
   </g>
   <g id="text_30">
    <!-- 12:09 -->
    <g style="fill:#008b8b;" transform="translate(266.666115 73.412764)scale(0.0579 -0.0579)">
     <use xlink:href="#DejaVuSans-49"/>
     <use x="63.623047" xlink:href="#DejaVuSans-50"/>
     <use x="127.246094" xlink:href="#DejaVuSans-58"/>
     <use x="160.9375" xlink:href="#DejaVuSans-48"/>
     <use x="224.560547" xlink:href="#DejaVuSans-57"/>
    </g>
   </g>
   <g id="text_31">
    <!-- 12:14 -->
    <g style="fill:#008b8b;" transform="translate(249.005674 56.154023)scale(0.0579 -0.0579)">
     <use xlink:href="#DejaVuSans-49"/>
     <use x="63.623047" xlink:href="#DejaVuSans-50"/>
     <use x="127.246094" xlink:href="#DejaVuSans-58"/>
     <use x="160.9375" xlink:href="#DejaVuSans-49"/>
     <use x="224.560547" xlink:href="#DejaVuSans-52"/>
    </g>
   </g>
   <g id="text_32">
    <!-- 12:18 -->
    <g style="fill:#008b8b;" transform="translate(249.005674 56.154023)scale(0.0579 -0.0579)">
     <use xlink:href="#DejaVuSans-49"/>
     <use x="63.623047" xlink:href="#DejaVuSans-50"/>
     <use x="127.246094" xlink:href="#DejaVuSans-58"/>
     <use x="160.9375" xlink:href="#DejaVuSans-49"/>
     <use x="224.560547" xlink:href="#DejaVuSans-56"/>
    </g>
   </g>
   <g id="text_33">
    <!-- 12:29 -->
    <g style="fill:#008b8b;" transform="translate(185.781009 238.396574)scale(0.0579 -0.0579)">
     <use xlink:href="#DejaVuSans-49"/>
     <use x="63.623047" xlink:href="#DejaVuSans-50"/>
     <use x="127.246094" xlink:href="#DejaVuSans-58"/>
     <use x="160.9375" xlink:href="#DejaVuSans-50"/>
     <use x="224.560547" xlink:href="#DejaVuSans-57"/>
    </g>
   </g>
   <g id="text_34">
    <!-- 11:29 -->
    <g style="fill:#cd5c5c;" transform="translate(178.392603 147.00989)scale(0.0579 -0.0579)">
     <use xlink:href="#DejaVuSans-49"/>
     <use x="63.623047" xlink:href="#DejaVuSans-49"/>
     <use x="127.246094" xlink:href="#DejaVuSans-58"/>
     <use x="160.9375" xlink:href="#DejaVuSans-50"/>
     <use x="224.560547" xlink:href="#DejaVuSans-57"/>
    </g>
   </g>
   <g id="text_35">
    <!-- 11:34 -->
    <g style="fill:#cd5c5c;" transform="translate(177.546165 236.474154)scale(0.0579 -0.0579)">
     <use xlink:href="#DejaVuSans-49"/>
     <use x="63.623047" xlink:href="#DejaVuSans-49"/>
     <use x="127.246094" xlink:href="#DejaVuSans-58"/>
     <use x="160.9375" xlink:href="#DejaVuSans-51"/>
     <use x="224.560547" xlink:href="#DejaVuSans-52"/>
    </g>
   </g>
   <g id="text_36">
    <!-- 11:42 -->
    <g style="fill:#cd5c5c;" transform="translate(354.265345 246.688804)scale(0.0579 -0.0579)">
     <use xlink:href="#DejaVuSans-49"/>
     <use x="63.623047" xlink:href="#DejaVuSans-49"/>
     <use x="127.246094" xlink:href="#DejaVuSans-58"/>
     <use x="160.9375" xlink:href="#DejaVuSans-52"/>
     <use x="224.560547" xlink:href="#DejaVuSans-50"/>
    </g>
   </g>
   <g id="text_37">
    <!-- 11:46 -->
    <g style="fill:#cd5c5c;" transform="translate(354.265345 246.688804)scale(0.0579 -0.0579)">
     <use xlink:href="#DejaVuSans-49"/>
     <use x="63.623047" xlink:href="#DejaVuSans-49"/>
     <use x="127.246094" xlink:href="#DejaVuSans-58"/>
     <use x="160.9375" xlink:href="#DejaVuSans-52"/>
     <use x="224.560547" xlink:href="#DejaVuSans-54"/>
    </g>
   </g>
   <g id="text_38">
    <!-- 11:54 -->
    <g style="fill:#cd5c5c;" transform="translate(276.235176 134.184192)scale(0.0579 -0.0579)">
     <use xlink:href="#DejaVuSans-49"/>
     <use x="63.623047" xlink:href="#DejaVuSans-49"/>
     <use x="127.246094" xlink:href="#DejaVuSans-58"/>
     <use x="160.9375" xlink:href="#DejaVuSans-53"/>
     <use x="224.560547" xlink:href="#DejaVuSans-52"/>
    </g>
   </g>
   <g id="text_39">
    <!-- 12:00 -->
    <g style="fill:#cd5c5c;" transform="translate(261.013626 168.013046)scale(0.0579 -0.0579)">
     <use xlink:href="#DejaVuSans-49"/>
     <use x="63.623047" xlink:href="#DejaVuSans-50"/>
     <use x="127.246094" xlink:href="#DejaVuSans-58"/>
     <use x="160.9375" xlink:href="#DejaVuSans-48"/>
     <use x="224.560547" xlink:href="#DejaVuSans-48"/>
    </g>
   </g>
   <g id="text_40">
    <!-- 12:06 -->
    <g style="fill:#cd5c5c;" transform="translate(266.666115 73.412764)scale(0.0579 -0.0579)">
     <use xlink:href="#DejaVuSans-49"/>
     <use x="63.623047" xlink:href="#DejaVuSans-50"/>
     <use x="127.246094" xlink:href="#DejaVuSans-58"/>
     <use x="160.9375" xlink:href="#DejaVuSans-48"/>
     <use x="224.560547" xlink:href="#DejaVuSans-54"/>
    </g>
   </g>
   <g id="text_41">
    <!-- 12:11 -->
    <g style="fill:#cd5c5c;" transform="translate(235.032263 55.72363)scale(0.0579 -0.0579)">
     <use xlink:href="#DejaVuSans-49"/>
     <use x="63.623047" xlink:href="#DejaVuSans-50"/>
     <use x="127.246094" xlink:href="#DejaVuSans-58"/>
     <use x="160.9375" xlink:href="#DejaVuSans-49"/>
     <use x="224.560547" xlink:href="#DejaVuSans-49"/>
    </g>
   </g>
   <g id="text_42">
    <!-- 12:17 -->
    <g style="fill:#cd5c5c;" transform="translate(156.672126 40.846394)scale(0.0579 -0.0579)">
     <use xlink:href="#DejaVuSans-49"/>
     <use x="63.623047" xlink:href="#DejaVuSans-50"/>
     <use x="127.246094" xlink:href="#DejaVuSans-58"/>
     <use x="160.9375" xlink:href="#DejaVuSans-49"/>
     <use x="224.560547" xlink:href="#DejaVuSans-55"/>
    </g>
   </g>
   <g id="text_43">
    <!-- 12:28 -->
    <g style="fill:#cd5c5c;" transform="translate(277.512007 136.623083)scale(0.0579 -0.0579)">
     <use xlink:href="#DejaVuSans-49"/>
     <use x="63.623047" xlink:href="#DejaVuSans-50"/>
     <use x="127.246094" xlink:href="#DejaVuSans-58"/>
     <use x="160.9375" xlink:href="#DejaVuSans-50"/>
     <use x="224.560547" xlink:href="#DejaVuSans-56"/>
    </g>
   </g>
   <g id="text_44">
    <!-- 28 deliveries ; cost: 4202 ; distance: 30561 m -->
    <g transform="translate(91.346873 16.318125)scale(0.12 -0.12)">
     <defs>
      <path id="DejaVuSans-32"/>
      <path d="M 45.40625 46.390625 
L 45.40625 75.984375 
L 54.390625 75.984375 
L 54.390625 0 
L 45.40625 0 
L 45.40625 8.203125 
Q 42.578125 3.328125 38.25 0.953125 
Q 33.9375 -1.421875 27.875 -1.421875 
Q 17.96875 -1.421875 11.734375 6.484375 
Q 5.515625 14.40625 5.515625 27.296875 
Q 5.515625 40.1875 11.734375 48.09375 
Q 17.96875 56 27.875 56 
Q 33.9375 56 38.25 53.625 
Q 42.578125 51.265625 45.40625 46.390625 
z
M 14.796875 27.296875 
Q 14.796875 17.390625 18.875 11.75 
Q 22.953125 6.109375 30.078125 6.109375 
Q 37.203125 6.109375 41.296875 11.75 
Q 45.40625 17.390625 45.40625 27.296875 
Q 45.40625 37.203125 41.296875 42.84375 
Q 37.203125 48.484375 30.078125 48.484375 
Q 22.953125 48.484375 18.875 42.84375 
Q 14.796875 37.203125 14.796875 27.296875 
z
" id="DejaVuSans-100"/>
      <path d="M 56.203125 29.59375 
L 56.203125 25.203125 
L 14.890625 25.203125 
Q 15.484375 15.921875 20.484375 11.0625 
Q 25.484375 6.203125 34.421875 6.203125 
Q 39.59375 6.203125 44.453125 7.46875 
Q 49.3125 8.734375 54.109375 11.28125 
L 54.109375 2.78125 
Q 49.265625 0.734375 44.1875 -0.34375 
Q 39.109375 -1.421875 33.890625 -1.421875 
Q 20.796875 -1.421875 13.15625 6.1875 
Q 5.515625 13.8125 5.515625 26.8125 
Q 5.515625 40.234375 12.765625 48.109375 
Q 20.015625 56 32.328125 56 
Q 43.359375 56 49.78125 48.890625 
Q 56.203125 41.796875 56.203125 29.59375 
z
M 47.21875 32.234375 
Q 47.125 39.59375 43.09375 43.984375 
Q 39.0625 48.390625 32.421875 48.390625 
Q 24.90625 48.390625 20.390625 44.140625 
Q 15.875 39.890625 15.1875 32.171875 
z
" id="DejaVuSans-101"/>
      <path d="M 9.421875 75.984375 
L 18.40625 75.984375 
L 18.40625 0 
L 9.421875 0 
z
" id="DejaVuSans-108"/>
      <path d="M 9.421875 54.6875 
L 18.40625 54.6875 
L 18.40625 0 
L 9.421875 0 
z
M 9.421875 75.984375 
L 18.40625 75.984375 
L 18.40625 64.59375 
L 9.421875 64.59375 
z
" id="DejaVuSans-105"/>
      <path d="M 2.984375 54.6875 
L 12.5 54.6875 
L 29.59375 8.796875 
L 46.6875 54.6875 
L 56.203125 54.6875 
L 35.6875 0 
L 23.484375 0 
z
" id="DejaVuSans-118"/>
      <path d="M 41.109375 46.296875 
Q 39.59375 47.171875 37.8125 47.578125 
Q 36.03125 48 33.890625 48 
Q 26.265625 48 22.1875 43.046875 
Q 18.109375 38.09375 18.109375 28.8125 
L 18.109375 0 
L 9.078125 0 
L 9.078125 54.6875 
L 18.109375 54.6875 
L 18.109375 46.1875 
Q 20.953125 51.171875 25.484375 53.578125 
Q 30.03125 56 36.53125 56 
Q 37.453125 56 38.578125 55.875 
Q 39.703125 55.765625 41.0625 55.515625 
z
" id="DejaVuSans-114"/>
      <path d="M 44.28125 53.078125 
L 44.28125 44.578125 
Q 40.484375 46.53125 36.375 47.5 
Q 32.28125 48.484375 27.875 48.484375 
Q 21.1875 48.484375 17.84375 46.4375 
Q 14.5 44.390625 14.5 40.28125 
Q 14.5 37.15625 16.890625 35.375 
Q 19.28125 33.59375 26.515625 31.984375 
L 29.59375 31.296875 
Q 39.15625 29.25 43.1875 25.515625 
Q 47.21875 21.78125 47.21875 15.09375 
Q 47.21875 7.46875 41.1875 3.015625 
Q 35.15625 -1.421875 24.609375 -1.421875 
Q 20.21875 -1.421875 15.453125 -0.5625 
Q 10.6875 0.296875 5.421875 2 
L 5.421875 11.28125 
Q 10.40625 8.6875 15.234375 7.390625 
Q 20.0625 6.109375 24.8125 6.109375 
Q 31.15625 6.109375 34.5625 8.28125 
Q 37.984375 10.453125 37.984375 14.40625 
Q 37.984375 18.0625 35.515625 20.015625 
Q 33.0625 21.96875 24.703125 23.78125 
L 21.578125 24.515625 
Q 13.234375 26.265625 9.515625 29.90625 
Q 5.8125 33.546875 5.8125 39.890625 
Q 5.8125 47.609375 11.28125 51.796875 
Q 16.75 56 26.8125 56 
Q 31.78125 56 36.171875 55.265625 
Q 40.578125 54.546875 44.28125 53.078125 
z
" id="DejaVuSans-115"/>
      <path d="M 11.71875 51.703125 
L 22.015625 51.703125 
L 22.015625 39.3125 
L 11.71875 39.3125 
z
M 11.71875 12.40625 
L 22.015625 12.40625 
L 22.015625 4 
L 14.015625 -11.625 
L 7.71875 -11.625 
L 11.71875 4 
z
" id="DejaVuSans-59"/>
      <path d="M 48.78125 52.59375 
L 48.78125 44.1875 
Q 44.96875 46.296875 41.140625 47.34375 
Q 37.3125 48.390625 33.40625 48.390625 
Q 24.65625 48.390625 19.8125 42.84375 
Q 14.984375 37.3125 14.984375 27.296875 
Q 14.984375 17.28125 19.8125 11.734375 
Q 24.65625 6.203125 33.40625 6.203125 
Q 37.3125 6.203125 41.140625 7.25 
Q 44.96875 8.296875 48.78125 10.40625 
L 48.78125 2.09375 
Q 45.015625 0.34375 40.984375 -0.53125 
Q 36.96875 -1.421875 32.421875 -1.421875 
Q 20.0625 -1.421875 12.78125 6.34375 
Q 5.515625 14.109375 5.515625 27.296875 
Q 5.515625 40.671875 12.859375 48.328125 
Q 20.21875 56 33.015625 56 
Q 37.15625 56 41.109375 55.140625 
Q 45.0625 54.296875 48.78125 52.59375 
z
" id="DejaVuSans-99"/>
      <path d="M 30.609375 48.390625 
Q 23.390625 48.390625 19.1875 42.75 
Q 14.984375 37.109375 14.984375 27.296875 
Q 14.984375 17.484375 19.15625 11.84375 
Q 23.34375 6.203125 30.609375 6.203125 
Q 37.796875 6.203125 41.984375 11.859375 
Q 46.1875 17.53125 46.1875 27.296875 
Q 46.1875 37.015625 41.984375 42.703125 
Q 37.796875 48.390625 30.609375 48.390625 
z
M 30.609375 56 
Q 42.328125 56 49.015625 48.375 
Q 55.71875 40.765625 55.71875 27.296875 
Q 55.71875 13.875 49.015625 6.21875 
Q 42.328125 -1.421875 30.609375 -1.421875 
Q 18.84375 -1.421875 12.171875 6.21875 
Q 5.515625 13.875 5.515625 27.296875 
Q 5.515625 40.765625 12.171875 48.375 
Q 18.84375 56 30.609375 56 
z
" id="DejaVuSans-111"/>
      <path d="M 18.3125 70.21875 
L 18.3125 54.6875 
L 36.8125 54.6875 
L 36.8125 47.703125 
L 18.3125 47.703125 
L 18.3125 18.015625 
Q 18.3125 11.328125 20.140625 9.421875 
Q 21.96875 7.515625 27.59375 7.515625 
L 36.8125 7.515625 
L 36.8125 0 
L 27.59375 0 
Q 17.1875 0 13.234375 3.875 
Q 9.28125 7.765625 9.28125 18.015625 
L 9.28125 47.703125 
L 2.6875 47.703125 
L 2.6875 54.6875 
L 9.28125 54.6875 
L 9.28125 70.21875 
z
" id="DejaVuSans-116"/>
      <path d="M 34.28125 27.484375 
Q 23.390625 27.484375 19.1875 25 
Q 14.984375 22.515625 14.984375 16.5 
Q 14.984375 11.71875 18.140625 8.90625 
Q 21.296875 6.109375 26.703125 6.109375 
Q 34.1875 6.109375 38.703125 11.40625 
Q 43.21875 16.703125 43.21875 25.484375 
L 43.21875 27.484375 
z
M 52.203125 31.203125 
L 52.203125 0 
L 43.21875 0 
L 43.21875 8.296875 
Q 40.140625 3.328125 35.546875 0.953125 
Q 30.953125 -1.421875 24.3125 -1.421875 
Q 15.921875 -1.421875 10.953125 3.296875 
Q 6 8.015625 6 15.921875 
Q 6 25.140625 12.171875 29.828125 
Q 18.359375 34.515625 30.609375 34.515625 
L 43.21875 34.515625 
L 43.21875 35.40625 
Q 43.21875 41.609375 39.140625 45 
Q 35.0625 48.390625 27.6875 48.390625 
Q 23 48.390625 18.546875 47.265625 
Q 14.109375 46.140625 10.015625 43.890625 
L 10.015625 52.203125 
Q 14.9375 54.109375 19.578125 55.046875 
Q 24.21875 56 28.609375 56 
Q 40.484375 56 46.34375 49.84375 
Q 52.203125 43.703125 52.203125 31.203125 
z
" id="DejaVuSans-97"/>
      <path d="M 54.890625 33.015625 
L 54.890625 0 
L 45.90625 0 
L 45.90625 32.71875 
Q 45.90625 40.484375 42.875 44.328125 
Q 39.84375 48.1875 33.796875 48.1875 
Q 26.515625 48.1875 22.3125 43.546875 
Q 18.109375 38.921875 18.109375 30.90625 
L 18.109375 0 
L 9.078125 0 
L 9.078125 54.6875 
L 18.109375 54.6875 
L 18.109375 46.1875 
Q 21.34375 51.125 25.703125 53.5625 
Q 30.078125 56 35.796875 56 
Q 45.21875 56 50.046875 50.171875 
Q 54.890625 44.34375 54.890625 33.015625 
z
" id="DejaVuSans-110"/>
      <path d="M 52 44.1875 
Q 55.375 50.25 60.0625 53.125 
Q 64.75 56 71.09375 56 
Q 79.640625 56 84.28125 50.015625 
Q 88.921875 44.046875 88.921875 33.015625 
L 88.921875 0 
L 79.890625 0 
L 79.890625 32.71875 
Q 79.890625 40.578125 77.09375 44.375 
Q 74.3125 48.1875 68.609375 48.1875 
Q 61.625 48.1875 57.5625 43.546875 
Q 53.515625 38.921875 53.515625 30.90625 
L 53.515625 0 
L 44.484375 0 
L 44.484375 32.71875 
Q 44.484375 40.625 41.703125 44.40625 
Q 38.921875 48.1875 33.109375 48.1875 
Q 26.21875 48.1875 22.15625 43.53125 
Q 18.109375 38.875 18.109375 30.90625 
L 18.109375 0 
L 9.078125 0 
L 9.078125 54.6875 
L 18.109375 54.6875 
L 18.109375 46.1875 
Q 21.1875 51.21875 25.484375 53.609375 
Q 29.78125 56 35.6875 56 
Q 41.65625 56 45.828125 52.96875 
Q 50 49.953125 52 44.1875 
z
" id="DejaVuSans-109"/>
     </defs>
     <use xlink:href="#DejaVuSans-50"/>
     <use x="63.623047" xlink:href="#DejaVuSans-56"/>
     <use x="127.246094" xlink:href="#DejaVuSans-32"/>
     <use x="159.033203" xlink:href="#DejaVuSans-100"/>
     <use x="222.509766" xlink:href="#DejaVuSans-101"/>
     <use x="284.033203" xlink:href="#DejaVuSans-108"/>
     <use x="311.816406" xlink:href="#DejaVuSans-105"/>
     <use x="339.599609" xlink:href="#DejaVuSans-118"/>
     <use x="398.779297" xlink:href="#DejaVuSans-101"/>
     <use x="460.302734" xlink:href="#DejaVuSans-114"/>
     <use x="501.416016" xlink:href="#DejaVuSans-105"/>
     <use x="529.199219" xlink:href="#DejaVuSans-101"/>
     <use x="590.722656" xlink:href="#DejaVuSans-115"/>
     <use x="642.822266" xlink:href="#DejaVuSans-32"/>
     <use x="674.609375" xlink:href="#DejaVuSans-59"/>
     <use x="708.300781" xlink:href="#DejaVuSans-32"/>
     <use x="740.087891" xlink:href="#DejaVuSans-99"/>
     <use x="795.068359" xlink:href="#DejaVuSans-111"/>
     <use x="856.25" xlink:href="#DejaVuSans-115"/>
     <use x="908.349609" xlink:href="#DejaVuSans-116"/>
     <use x="947.558594" xlink:href="#DejaVuSans-58"/>
     <use x="981.25" xlink:href="#DejaVuSans-32"/>
     <use x="1013.037109" xlink:href="#DejaVuSans-52"/>
     <use x="1076.660156" xlink:href="#DejaVuSans-50"/>
     <use x="1140.283203" xlink:href="#DejaVuSans-48"/>
     <use x="1203.90625" xlink:href="#DejaVuSans-50"/>
     <use x="1267.529297" xlink:href="#DejaVuSans-32"/>
     <use x="1299.316406" xlink:href="#DejaVuSans-59"/>
     <use x="1333.007812" xlink:href="#DejaVuSans-32"/>
     <use x="1364.794922" xlink:href="#DejaVuSans-100"/>
     <use x="1428.271484" xlink:href="#DejaVuSans-105"/>
     <use x="1456.054688" xlink:href="#DejaVuSans-115"/>
     <use x="1508.154297" xlink:href="#DejaVuSans-116"/>
     <use x="1547.363281" xlink:href="#DejaVuSans-97"/>
     <use x="1608.642578" xlink:href="#DejaVuSans-110"/>
     <use x="1672.021484" xlink:href="#DejaVuSans-99"/>
     <use x="1727.001953" xlink:href="#DejaVuSans-101"/>
     <use x="1788.525391" xlink:href="#DejaVuSans-58"/>
     <use x="1822.216797" xlink:href="#DejaVuSans-32"/>
     <use x="1854.003906" xlink:href="#DejaVuSans-51"/>
     <use x="1917.626953" xlink:href="#DejaVuSans-48"/>
     <use x="1981.25" xlink:href="#DejaVuSans-53"/>
     <use x="2044.873047" xlink:href="#DejaVuSans-54"/>
     <use x="2108.496094" xlink:href="#DejaVuSans-49"/>
     <use x="2172.119141" xlink:href="#DejaVuSans-32"/>
     <use x="2203.90625" xlink:href="#DejaVuSans-109"/>
    </g>
   </g>
  </g>
 </g>
 <defs>
  <clipPath id="p8e647611fd">
   <rect height="266.112" width="347.74312" x="55.553125" y="22.318125"/>
  </clipPath>
 </defs>
</svg>
