<?xml version="1.0" encoding="utf-8" standalone="no"?>
<!DOCTYPE svg PUBLIC "-//W3C//DTD SVG 1.1//EN"
  "http://www.w3.org/Graphics/SVG/1.1/DTD/svg11.dtd">
<!-- Created with matplotlib (https://matplotlib.org/) -->
<svg height="312.30825pt" version="1.1" viewBox="0 0 379.664361 312.30825" width="379.664361pt" xmlns="http://www.w3.org/2000/svg" xmlns:xlink="http://www.w3.org/1999/xlink">
 <metadata>
  <rdf:RDF xmlns:cc="http://creativecommons.org/ns#" xmlns:dc="http://purl.org/dc/elements/1.1/" xmlns:rdf="http://www.w3.org/1999/02/22-rdf-syntax-ns#">
   <cc:Work>
    <dc:type rdf:resource="http://purl.org/dc/dcmitype/StillImage"/>
    <dc:date>2020-10-02T22:42:17.856300</dc:date>
    <dc:format>image/svg+xml</dc:format>
    <dc:creator>
     <cc:Agent>
      <dc:title>Matplotlib v3.3.2, https://matplotlib.org/</dc:title>
     </cc:Agent>
    </dc:creator>
   </cc:Work>
  </rdf:RDF>
 </metadata>
 <defs>
  <style type="text/css">*{stroke-linecap:butt;stroke-linejoin:round;}</style>
 </defs>
 <g id="figure_1">
  <g id="patch_1">
   <path d="M 0 312.30825 
L 379.664361 312.30825 
L 379.664361 0 
L 0 0 
z
" style="fill:#ffffff;"/>
  </g>
  <g id="axes_1">
   <g id="patch_2">
    <path d="M 55.553125 288.430125 
L 372.464361 288.430125 
L 372.464361 22.318125 
L 55.553125 22.318125 
z
" style="fill:#ffffff;"/>
   </g>
   <g id="PathCollection_1">
    <path clip-path="url(#pd3fabf5967)" d="M 186.376906 154.986064 
C 187.172515 154.986064 187.935646 154.669966 188.498226 154.107385 
C 189.060807 153.544804 189.376906 152.781674 189.376906 151.986064 
C 189.376906 151.190455 189.060807 150.427325 188.498226 149.864744 
C 187.935646 149.302163 187.172515 148.986064 186.376906 148.986064 
C 185.581297 148.986064 184.818166 149.302163 184.255586 149.864744 
C 183.693005 150.427325 183.376906 151.190455 183.376906 151.986064 
C 183.376906 152.781674 183.693005 153.544804 184.255586 154.107385 
C 184.818166 154.669966 185.581297 154.986064 186.376906 154.986064 
z
" style="fill:none;stroke:#0000ff;stroke-width:0.7;"/>
   </g>
   <g id="PathCollection_2">
    <path clip-path="url(#pd3fabf5967)" d="M 126.706586 247.709381 
L 123.706586 253.709381 
L 129.706586 253.709381 
z
" style="fill:none;stroke:#ff0000;stroke-width:0.7;"/>
   </g>
   <g id="PathCollection_3">
    <path clip-path="url(#pd3fabf5967)" d="M 163.505691 242.450302 
L 160.505691 248.450302 
L 166.505691 248.450302 
z
" style="fill:none;stroke:#ff0000;stroke-width:0.7;"/>
   </g>
   <g id="PathCollection_4">
    <path clip-path="url(#pd3fabf5967)" d="M 163.505691 242.450302 
L 160.505691 248.450302 
L 166.505691 248.450302 
z
" style="fill:none;stroke:#ff0000;stroke-width:0.7;"/>
   </g>
   <g id="PathCollection_5">
    <path clip-path="url(#pd3fabf5967)" d="M 215.89421 167.248361 
L 212.89421 173.248361 
L 218.89421 173.248361 
z
" style="fill:none;stroke:#ff0000;stroke-width:0.7;"/>
   </g>
   <g id="PathCollection_6">
    <path clip-path="url(#pd3fabf5967)" d="M 215.89421 167.248361 
L 212.89421 173.248361 
L 218.89421 173.248361 
z
" style="fill:none;stroke:#ff0000;stroke-width:0.7;"/>
   </g>
   <g id="PathCollection_7">
    <path clip-path="url(#pd3fabf5967)" d="M 224.505229 157.033611 
L 221.505229 163.033611 
L 227.505229 163.033611 
z
" style="fill:none;stroke:#ff0000;stroke-width:0.7;"/>
   </g>
   <g id="PathCollection_8">
    <path clip-path="url(#pd3fabf5967)" d="M 325.540228 118.89084 
L 322.540228 124.89084 
L 328.540228 124.89084 
z
" style="fill:none;stroke:#ff0000;stroke-width:0.7;"/>
   </g>
   <g id="PathCollection_9">
    <path clip-path="url(#pd3fabf5967)" d="M 259.44054 75.619022 
L 256.44054 81.619022 
L 262.44054 81.619022 
z
" style="fill:none;stroke:#ff0000;stroke-width:0.7;"/>
   </g>
   <g id="PathCollection_10">
    <path clip-path="url(#pd3fabf5967)" d="M 266.707894 54.77053 
L 263.707894 60.77053 
L 269.707894 60.77053 
z
" style="fill:none;stroke:#ff0000;stroke-width:0.7;"/>
   </g>
   <g id="PathCollection_11">
    <path clip-path="url(#pd3fabf5967)" d="M 266.707894 54.77053 
L 263.707894 60.77053 
L 269.707894 60.77053 
z
" style="fill:none;stroke:#ff0000;stroke-width:0.7;"/>
   </g>
   <g id="PathCollection_12">
    <path clip-path="url(#pd3fabf5967)" d="M 319.876605 71.447617 
L 322.876605 65.447617 
L 316.876605 65.447617 
z
" style="fill:none;stroke:#008000;stroke-width:0.7;"/>
   </g>
   <g id="PathCollection_13">
    <path clip-path="url(#pd3fabf5967)" d="M 319.876605 71.447617 
L 322.876605 65.447617 
L 316.876605 65.447617 
z
" style="fill:none;stroke:#008000;stroke-width:0.7;"/>
   </g>
   <g id="PathCollection_14">
    <path clip-path="url(#pd3fabf5967)" d="M 319.876605 71.447617 
L 322.876605 65.447617 
L 316.876605 65.447617 
z
" style="fill:none;stroke:#008000;stroke-width:0.7;"/>
   </g>
   <g id="PathCollection_15">
    <path clip-path="url(#pd3fabf5967)" d="M 314.155189 34.287311 
L 317.155189 28.287311 
L 311.155189 28.287311 
z
" style="fill:none;stroke:#008000;stroke-width:0.7;"/>
   </g>
   <g id="PathCollection_16">
    <path clip-path="url(#pd3fabf5967)" d="M 318.764107 46.654815 
L 321.764107 40.654815 
L 315.764107 40.654815 
z
" style="fill:none;stroke:#008000;stroke-width:0.7;"/>
   </g>
   <g id="PathCollection_17">
    <path clip-path="url(#pd3fabf5967)" d="M 275.275569 80.867725 
L 278.275569 74.867725 
L 272.275569 74.867725 
z
" style="fill:none;stroke:#008000;stroke-width:0.7;"/>
   </g>
   <g id="PathCollection_18">
    <path clip-path="url(#pd3fabf5967)" d="M 105.699166 153.367886 
L 108.699166 147.367886 
L 102.699166 147.367886 
z
" style="fill:none;stroke:#008000;stroke-width:0.7;"/>
   </g>
   <g id="PathCollection_19">
    <path clip-path="url(#pd3fabf5967)" d="M 92.46478 282.460939 
L 95.46478 276.460939 
L 89.46478 276.460939 
z
" style="fill:none;stroke:#008000;stroke-width:0.7;"/>
   </g>
   <g id="PathCollection_20">
    <path clip-path="url(#pd3fabf5967)" d="M 92.46478 282.460939 
L 95.46478 276.460939 
L 89.46478 276.460939 
z
" style="fill:none;stroke:#008000;stroke-width:0.7;"/>
   </g>
   <g id="PathCollection_21">
    <path clip-path="url(#pd3fabf5967)" d="M 193.817636 247.019948 
L 196.817636 241.019948 
L 190.817636 241.019948 
z
" style="fill:none;stroke:#008000;stroke-width:0.7;"/>
   </g>
   <g id="PathCollection_22">
    <path clip-path="url(#pd3fabf5967)" d="M 186.376906 154.986064 
C 187.172515 154.986064 187.935646 154.669966 188.498226 154.107385 
C 189.060807 153.544804 189.376906 152.781674 189.376906 151.986064 
C 189.376906 151.190455 189.060807 150.427325 188.498226 149.864744 
C 187.935646 149.302163 187.172515 148.986064 186.376906 148.986064 
C 185.581297 148.986064 184.818166 149.302163 184.255586 149.864744 
C 183.693005 150.427325 183.376906 151.190455 183.376906 151.986064 
C 183.376906 152.781674 183.693005 153.544804 184.255586 154.107385 
C 184.818166 154.669966 185.581297 154.986064 186.376906 154.986064 
z
" style="fill:none;stroke:#0000ff;stroke-width:0.7;"/>
   </g>
   <g id="PathCollection_23">
    <path clip-path="url(#pd3fabf5967)" d="M 155.804897 107.679177 
L 152.804897 113.679177 
L 158.804897 113.679177 
z
" style="fill:none;stroke:#ff0000;stroke-width:0.7;"/>
   </g>
   <g id="PathCollection_24">
    <path clip-path="url(#pd3fabf5967)" d="M 155.804897 107.679177 
L 152.804897 113.679177 
L 158.804897 113.679177 
z
" style="fill:none;stroke:#ff0000;stroke-width:0.7;"/>
   </g>
   <g id="PathCollection_25">
    <path clip-path="url(#pd3fabf5967)" d="M 86.107652 67.257691 
L 89.107652 61.257691 
L 83.107652 61.257691 
z
" style="fill:none;stroke:#008000;stroke-width:0.7;"/>
   </g>
   <g id="PathCollection_26">
    <path clip-path="url(#pd3fabf5967)" d="M 64.522311 139.858988 
L 67.522311 133.858988 
L 61.522311 133.858988 
z
" style="fill:none;stroke:#008000;stroke-width:0.7;"/>
   </g>
   <g id="PathCollection_27">
    <path clip-path="url(#pd3fabf5967)" d="M 186.376906 154.986064 
C 187.172515 154.986064 187.935646 154.669966 188.498226 154.107385 
C 189.060807 153.544804 189.376906 152.781674 189.376906 151.986064 
C 189.376906 151.190455 189.060807 150.427325 188.498226 149.864744 
C 187.935646 149.302163 187.172515 148.986064 186.376906 148.986064 
C 185.581297 148.986064 184.818166 149.302163 184.255586 149.864744 
C 183.693005 150.427325 183.376906 151.190455 183.376906 151.986064 
C 183.376906 152.781674 183.693005 153.544804 184.255586 154.107385 
C 184.818166 154.669966 185.581297 154.986064 186.376906 154.986064 
z
" style="fill:none;stroke:#0000ff;stroke-width:0.7;"/>
   </g>
   <g id="PathCollection_28">
    <path clip-path="url(#pd3fabf5967)" d="M 157.451971 123.456414 
L 154.451971 129.456414 
L 160.451971 129.456414 
z
" style="fill:none;stroke:#ff0000;stroke-width:0.7;"/>
   </g>
   <g id="PathCollection_29">
    <path clip-path="url(#pd3fabf5967)" d="M 224.505229 157.033611 
L 221.505229 163.033611 
L 227.505229 163.033611 
z
" style="fill:none;stroke:#ff0000;stroke-width:0.7;"/>
   </g>
   <g id="PathCollection_30">
    <path clip-path="url(#pd3fabf5967)" d="M 363.495175 249.370903 
L 360.495175 255.370903 
L 366.495175 255.370903 
z
" style="fill:none;stroke:#ff0000;stroke-width:0.7;"/>
   </g>
   <g id="PathCollection_31">
    <path clip-path="url(#pd3fabf5967)" d="M 308.014781 72.440458 
L 305.014781 78.440458 
L 311.014781 78.440458 
z
" style="fill:none;stroke:#ff0000;stroke-width:0.7;"/>
   </g>
   <g id="PathCollection_32">
    <path clip-path="url(#pd3fabf5967)" d="M 308.144813 72.64273 
L 305.144813 78.64273 
L 311.144813 78.64273 
z
" style="fill:none;stroke:#ff0000;stroke-width:0.7;"/>
   </g>
   <g id="PathCollection_33">
    <path clip-path="url(#pd3fabf5967)" d="M 326.017013 66.73349 
L 323.017013 72.73349 
L 329.017013 72.73349 
z
" style="fill:none;stroke:#ff0000;stroke-width:0.7;"/>
   </g>
   <g id="PathCollection_34">
    <path clip-path="url(#pd3fabf5967)" d="M 318.764107 46.654815 
L 321.764107 40.654815 
L 315.764107 40.654815 
z
" style="fill:none;stroke:#008000;stroke-width:0.7;"/>
   </g>
   <g id="PathCollection_35">
    <path clip-path="url(#pd3fabf5967)" d="M 314.155189 34.287311 
L 317.155189 28.287311 
L 311.155189 28.287311 
z
" style="fill:none;stroke:#008000;stroke-width:0.7;"/>
   </g>
   <g id="PathCollection_36">
    <path clip-path="url(#pd3fabf5967)" d="M 314.155189 34.287311 
L 317.155189 28.287311 
L 311.155189 28.287311 
z
" style="fill:none;stroke:#008000;stroke-width:0.7;"/>
   </g>
   <g id="PathCollection_37">
    <path clip-path="url(#pd3fabf5967)" d="M 291.775207 55.290659 
L 288.775207 61.290659 
L 294.775207 61.290659 
z
" style="fill:none;stroke:#ff0000;stroke-width:0.7;"/>
   </g>
   <g id="PathCollection_38">
    <path clip-path="url(#pd3fabf5967)" d="M 266.707894 54.77053 
L 263.707894 60.77053 
L 269.707894 60.77053 
z
" style="fill:none;stroke:#ff0000;stroke-width:0.7;"/>
   </g>
   <g id="PathCollection_39">
    <path clip-path="url(#pd3fabf5967)" d="M 266.707894 54.77053 
L 263.707894 60.77053 
L 269.707894 60.77053 
z
" style="fill:none;stroke:#ff0000;stroke-width:0.7;"/>
   </g>
   <g id="PathCollection_40">
    <path clip-path="url(#pd3fabf5967)" d="M 248.113293 57.620862 
L 251.113293 51.620862 
L 245.113293 51.620862 
z
" style="fill:none;stroke:#008000;stroke-width:0.7;"/>
   </g>
   <g id="PathCollection_41">
    <path clip-path="url(#pd3fabf5967)" d="M 248.113293 57.620862 
L 251.113293 51.620862 
L 245.113293 51.620862 
z
" style="fill:none;stroke:#008000;stroke-width:0.7;"/>
   </g>
   <g id="PathCollection_42">
    <path clip-path="url(#pd3fabf5967)" d="M 231.526966 63.746822 
L 234.526966 57.746822 
L 228.526966 57.746822 
z
" style="fill:none;stroke:#008000;stroke-width:0.7;"/>
   </g>
   <g id="PathCollection_43">
    <path clip-path="url(#pd3fabf5967)" d="M 215.605249 73.860436 
L 218.605249 67.860436 
L 212.605249 67.860436 
z
" style="fill:none;stroke:#008000;stroke-width:0.7;"/>
   </g>
   <g id="PathCollection_44">
    <path clip-path="url(#pd3fabf5967)" d="M 163.086699 62.879941 
L 166.086699 56.879941 
L 160.086699 56.879941 
z
" style="fill:none;stroke:#008000;stroke-width:0.7;"/>
   </g>
   <g id="PathCollection_45">
    <path clip-path="url(#pd3fabf5967)" d="M 163.086699 62.879941 
L 166.086699 56.879941 
L 160.086699 56.879941 
z
" style="fill:none;stroke:#008000;stroke-width:0.7;"/>
   </g>
   <g id="matplotlib.axis_1">
    <g id="xtick_1">
     <g id="line2d_1">
      <defs>
       <path d="M 0 0 
L 0 3.5 
" id="m048df01cd4" style="stroke:#000000;stroke-width:0.8;"/>
      </defs>
      <g>
       <use style="stroke:#000000;stroke-width:0.8;" x="56.821517" xlink:href="#m048df01cd4" y="288.430125"/>
      </g>
     </g>
     <g id="text_1">
      <!-- −71.0700 -->
      <g transform="translate(31.95511 303.028562)scale(0.1 -0.1)">
       <defs>
        <path d="M 10.59375 35.5 
L 73.1875 35.5 
L 73.1875 27.203125 
L 10.59375 27.203125 
z
" id="DejaVuSans-8722"/>
        <path d="M 8.203125 72.90625 
L 55.078125 72.90625 
L 55.078125 68.703125 
L 28.609375 0 
L 18.3125 0 
L 43.21875 64.59375 
L 8.203125 64.59375 
z
" id="DejaVuSans-55"/>
        <path d="M 12.40625 8.296875 
L 28.515625 8.296875 
L 28.515625 63.921875 
L 10.984375 60.40625 
L 10.984375 69.390625 
L 28.421875 72.90625 
L 38.28125 72.90625 
L 38.28125 8.296875 
L 54.390625 8.296875 
L 54.390625 0 
L 12.40625 0 
z
" id="DejaVuSans-49"/>
        <path d="M 10.6875 12.40625 
L 21 12.40625 
L 21 0 
L 10.6875 0 
z
" id="DejaVuSans-46"/>
        <path d="M 31.78125 66.40625 
Q 24.171875 66.40625 20.328125 58.90625 
Q 16.5 51.421875 16.5 36.375 
Q 16.5 21.390625 20.328125 13.890625 
Q 24.171875 6.390625 31.78125 6.390625 
Q 39.453125 6.390625 43.28125 13.890625 
Q 47.125 21.390625 47.125 36.375 
Q 47.125 51.421875 43.28125 58.90625 
Q 39.453125 66.40625 31.78125 66.40625 
z
M 31.78125 74.21875 
Q 44.046875 74.21875 50.515625 64.515625 
Q 56.984375 54.828125 56.984375 36.375 
Q 56.984375 17.96875 50.515625 8.265625 
Q 44.046875 -1.421875 31.78125 -1.421875 
Q 19.53125 -1.421875 13.0625 8.265625 
Q 6.59375 17.96875 6.59375 36.375 
Q 6.59375 54.828125 13.0625 64.515625 
Q 19.53125 74.21875 31.78125 74.21875 
z
" id="DejaVuSans-48"/>
       </defs>
       <use xlink:href="#DejaVuSans-8722"/>
       <use x="83.789062" xlink:href="#DejaVuSans-55"/>
       <use x="147.412109" xlink:href="#DejaVuSans-49"/>
       <use x="211.035156" xlink:href="#DejaVuSans-46"/>
       <use x="242.822266" xlink:href="#DejaVuSans-48"/>
       <use x="306.445312" xlink:href="#DejaVuSans-55"/>
       <use x="370.068359" xlink:href="#DejaVuSans-48"/>
       <use x="433.691406" xlink:href="#DejaVuSans-48"/>
      </g>
     </g>
    </g>
    <g id="xtick_2">
     <g id="line2d_2">
      <g>
       <use style="stroke:#000000;stroke-width:0.8;" x="92.941565" xlink:href="#m048df01cd4" y="288.430125"/>
      </g>
     </g>
     <g id="text_2">
      <!-- −71.0675 -->
      <g transform="translate(68.075159 303.028562)scale(0.1 -0.1)">
       <defs>
        <path d="M 33.015625 40.375 
Q 26.375 40.375 22.484375 35.828125 
Q 18.609375 31.296875 18.609375 23.390625 
Q 18.609375 15.53125 22.484375 10.953125 
Q 26.375 6.390625 33.015625 6.390625 
Q 39.65625 6.390625 43.53125 10.953125 
Q 47.40625 15.53125 47.40625 23.390625 
Q 47.40625 31.296875 43.53125 35.828125 
Q 39.65625 40.375 33.015625 40.375 
z
M 52.59375 71.296875 
L 52.59375 62.3125 
Q 48.875 64.0625 45.09375 64.984375 
Q 41.3125 65.921875 37.59375 65.921875 
Q 27.828125 65.921875 22.671875 59.328125 
Q 17.53125 52.734375 16.796875 39.40625 
Q 19.671875 43.65625 24.015625 45.921875 
Q 28.375 48.1875 33.59375 48.1875 
Q 44.578125 48.1875 50.953125 41.515625 
Q 57.328125 34.859375 57.328125 23.390625 
Q 57.328125 12.15625 50.6875 5.359375 
Q 44.046875 -1.421875 33.015625 -1.421875 
Q 20.359375 -1.421875 13.671875 8.265625 
Q 6.984375 17.96875 6.984375 36.375 
Q 6.984375 53.65625 15.1875 63.9375 
Q 23.390625 74.21875 37.203125 74.21875 
Q 40.921875 74.21875 44.703125 73.484375 
Q 48.484375 72.75 52.59375 71.296875 
z
" id="DejaVuSans-54"/>
        <path d="M 10.796875 72.90625 
L 49.515625 72.90625 
L 49.515625 64.59375 
L 19.828125 64.59375 
L 19.828125 46.734375 
Q 21.96875 47.46875 24.109375 47.828125 
Q 26.265625 48.1875 28.421875 48.1875 
Q 40.625 48.1875 47.75 41.5 
Q 54.890625 34.8125 54.890625 23.390625 
Q 54.890625 11.625 47.5625 5.09375 
Q 40.234375 -1.421875 26.90625 -1.421875 
Q 22.3125 -1.421875 17.546875 -0.640625 
Q 12.796875 0.140625 7.71875 1.703125 
L 7.71875 11.625 
Q 12.109375 9.234375 16.796875 8.0625 
Q 21.484375 6.890625 26.703125 6.890625 
Q 35.15625 6.890625 40.078125 11.328125 
Q 45.015625 15.765625 45.015625 23.390625 
Q 45.015625 31 40.078125 35.4375 
Q 35.15625 39.890625 26.703125 39.890625 
Q 22.75 39.890625 18.8125 39.015625 
Q 14.890625 38.140625 10.796875 36.28125 
z
" id="DejaVuSans-53"/>
       </defs>
       <use xlink:href="#DejaVuSans-8722"/>
       <use x="83.789062" xlink:href="#DejaVuSans-55"/>
       <use x="147.412109" xlink:href="#DejaVuSans-49"/>
       <use x="211.035156" xlink:href="#DejaVuSans-46"/>
       <use x="242.822266" xlink:href="#DejaVuSans-48"/>
       <use x="306.445312" xlink:href="#DejaVuSans-54"/>
       <use x="370.068359" xlink:href="#DejaVuSans-55"/>
       <use x="433.691406" xlink:href="#DejaVuSans-53"/>
      </g>
     </g>
    </g>
    <g id="xtick_3">
     <g id="line2d_3">
      <g>
       <use style="stroke:#000000;stroke-width:0.8;" x="129.061613" xlink:href="#m048df01cd4" y="288.430125"/>
      </g>
     </g>
     <g id="text_3">
      <!-- −71.0650 -->
      <g transform="translate(104.195207 303.028562)scale(0.1 -0.1)">
       <use xlink:href="#DejaVuSans-8722"/>
       <use x="83.789062" xlink:href="#DejaVuSans-55"/>
       <use x="147.412109" xlink:href="#DejaVuSans-49"/>
       <use x="211.035156" xlink:href="#DejaVuSans-46"/>
       <use x="242.822266" xlink:href="#DejaVuSans-48"/>
       <use x="306.445312" xlink:href="#DejaVuSans-54"/>
       <use x="370.068359" xlink:href="#DejaVuSans-53"/>
       <use x="433.691406" xlink:href="#DejaVuSans-48"/>
      </g>
     </g>
    </g>
    <g id="xtick_4">
     <g id="line2d_4">
      <g>
       <use style="stroke:#000000;stroke-width:0.8;" x="165.181662" xlink:href="#m048df01cd4" y="288.430125"/>
      </g>
     </g>
     <g id="text_4">
      <!-- −71.0625 -->
      <g transform="translate(140.315255 303.028562)scale(0.1 -0.1)">
       <defs>
        <path d="M 19.1875 8.296875 
L 53.609375 8.296875 
L 53.609375 0 
L 7.328125 0 
L 7.328125 8.296875 
Q 12.9375 14.109375 22.625 23.890625 
Q 32.328125 33.6875 34.8125 36.53125 
Q 39.546875 41.84375 41.421875 45.53125 
Q 43.3125 49.21875 43.3125 52.78125 
Q 43.3125 58.59375 39.234375 62.25 
Q 35.15625 65.921875 28.609375 65.921875 
Q 23.96875 65.921875 18.8125 64.3125 
Q 13.671875 62.703125 7.8125 59.421875 
L 7.8125 69.390625 
Q 13.765625 71.78125 18.9375 73 
Q 24.125 74.21875 28.421875 74.21875 
Q 39.75 74.21875 46.484375 68.546875 
Q 53.21875 62.890625 53.21875 53.421875 
Q 53.21875 48.921875 51.53125 44.890625 
Q 49.859375 40.875 45.40625 35.40625 
Q 44.1875 33.984375 37.640625 27.21875 
Q 31.109375 20.453125 19.1875 8.296875 
z
" id="DejaVuSans-50"/>
       </defs>
       <use xlink:href="#DejaVuSans-8722"/>
       <use x="83.789062" xlink:href="#DejaVuSans-55"/>
       <use x="147.412109" xlink:href="#DejaVuSans-49"/>
       <use x="211.035156" xlink:href="#DejaVuSans-46"/>
       <use x="242.822266" xlink:href="#DejaVuSans-48"/>
       <use x="306.445312" xlink:href="#DejaVuSans-54"/>
       <use x="370.068359" xlink:href="#DejaVuSans-50"/>
       <use x="433.691406" xlink:href="#DejaVuSans-53"/>
      </g>
     </g>
    </g>
    <g id="xtick_5">
     <g id="line2d_5">
      <g>
       <use style="stroke:#000000;stroke-width:0.8;" x="201.30171" xlink:href="#m048df01cd4" y="288.430125"/>
      </g>
     </g>
     <g id="text_5">
      <!-- −71.0600 -->
      <g transform="translate(176.435304 303.028562)scale(0.1 -0.1)">
       <use xlink:href="#DejaVuSans-8722"/>
       <use x="83.789062" xlink:href="#DejaVuSans-55"/>
       <use x="147.412109" xlink:href="#DejaVuSans-49"/>
       <use x="211.035156" xlink:href="#DejaVuSans-46"/>
       <use x="242.822266" xlink:href="#DejaVuSans-48"/>
       <use x="306.445312" xlink:href="#DejaVuSans-54"/>
       <use x="370.068359" xlink:href="#DejaVuSans-48"/>
       <use x="433.691406" xlink:href="#DejaVuSans-48"/>
      </g>
     </g>
    </g>
    <g id="xtick_6">
     <g id="line2d_6">
      <g>
       <use style="stroke:#000000;stroke-width:0.8;" x="237.421758" xlink:href="#m048df01cd4" y="288.430125"/>
      </g>
     </g>
     <g id="text_6">
      <!-- −71.0575 -->
      <g transform="translate(212.555352 303.028562)scale(0.1 -0.1)">
       <use xlink:href="#DejaVuSans-8722"/>
       <use x="83.789062" xlink:href="#DejaVuSans-55"/>
       <use x="147.412109" xlink:href="#DejaVuSans-49"/>
       <use x="211.035156" xlink:href="#DejaVuSans-46"/>
       <use x="242.822266" xlink:href="#DejaVuSans-48"/>
       <use x="306.445312" xlink:href="#DejaVuSans-53"/>
       <use x="370.068359" xlink:href="#DejaVuSans-55"/>
       <use x="433.691406" xlink:href="#DejaVuSans-53"/>
      </g>
     </g>
    </g>
    <g id="xtick_7">
     <g id="line2d_7">
      <g>
       <use style="stroke:#000000;stroke-width:0.8;" x="273.541807" xlink:href="#m048df01cd4" y="288.430125"/>
      </g>
     </g>
     <g id="text_7">
      <!-- −71.0550 -->
      <g transform="translate(248.6754 303.028562)scale(0.1 -0.1)">
       <use xlink:href="#DejaVuSans-8722"/>
       <use x="83.789062" xlink:href="#DejaVuSans-55"/>
       <use x="147.412109" xlink:href="#DejaVuSans-49"/>
       <use x="211.035156" xlink:href="#DejaVuSans-46"/>
       <use x="242.822266" xlink:href="#DejaVuSans-48"/>
       <use x="306.445312" xlink:href="#DejaVuSans-53"/>
       <use x="370.068359" xlink:href="#DejaVuSans-53"/>
       <use x="433.691406" xlink:href="#DejaVuSans-48"/>
      </g>
     </g>
    </g>
    <g id="xtick_8">
     <g id="line2d_8">
      <g>
       <use style="stroke:#000000;stroke-width:0.8;" x="309.661855" xlink:href="#m048df01cd4" y="288.430125"/>
      </g>
     </g>
     <g id="text_8">
      <!-- −71.0525 -->
      <g transform="translate(284.795449 303.028562)scale(0.1 -0.1)">
       <use xlink:href="#DejaVuSans-8722"/>
       <use x="83.789062" xlink:href="#DejaVuSans-55"/>
       <use x="147.412109" xlink:href="#DejaVuSans-49"/>
       <use x="211.035156" xlink:href="#DejaVuSans-46"/>
       <use x="242.822266" xlink:href="#DejaVuSans-48"/>
       <use x="306.445312" xlink:href="#DejaVuSans-53"/>
       <use x="370.068359" xlink:href="#DejaVuSans-50"/>
       <use x="433.691406" xlink:href="#DejaVuSans-53"/>
      </g>
     </g>
    </g>
    <g id="xtick_9">
     <g id="line2d_9">
      <g>
       <use style="stroke:#000000;stroke-width:0.8;" x="345.781903" xlink:href="#m048df01cd4" y="288.430125"/>
      </g>
     </g>
     <g id="text_9">
      <!-- −71.0500 -->
      <g transform="translate(320.915497 303.028562)scale(0.1 -0.1)">
       <use xlink:href="#DejaVuSans-8722"/>
       <use x="83.789062" xlink:href="#DejaVuSans-55"/>
       <use x="147.412109" xlink:href="#DejaVuSans-49"/>
       <use x="211.035156" xlink:href="#DejaVuSans-46"/>
       <use x="242.822266" xlink:href="#DejaVuSans-48"/>
       <use x="306.445312" xlink:href="#DejaVuSans-53"/>
       <use x="370.068359" xlink:href="#DejaVuSans-48"/>
       <use x="433.691406" xlink:href="#DejaVuSans-48"/>
      </g>
     </g>
    </g>
   </g>
   <g id="matplotlib.axis_2">
    <g id="ytick_1">
     <g id="line2d_10">
      <defs>
       <path d="M 0 0 
L -3.5 0 
" id="m955f784ea2" style="stroke:#000000;stroke-width:0.8;"/>
      </defs>
      <g>
       <use style="stroke:#000000;stroke-width:0.8;" x="55.553125" xlink:href="#m955f784ea2" y="269.838558"/>
      </g>
     </g>
     <g id="text_10">
      <!-- 42.3500 -->
      <g transform="translate(7.2 273.637777)scale(0.1 -0.1)">
       <defs>
        <path d="M 37.796875 64.3125 
L 12.890625 25.390625 
L 37.796875 25.390625 
z
M 35.203125 72.90625 
L 47.609375 72.90625 
L 47.609375 25.390625 
L 58.015625 25.390625 
L 58.015625 17.1875 
L 47.609375 17.1875 
L 47.609375 0 
L 37.796875 0 
L 37.796875 17.1875 
L 4.890625 17.1875 
L 4.890625 26.703125 
z
" id="DejaVuSans-52"/>
        <path d="M 40.578125 39.3125 
Q 47.65625 37.796875 51.625 33 
Q 55.609375 28.21875 55.609375 21.1875 
Q 55.609375 10.40625 48.1875 4.484375 
Q 40.765625 -1.421875 27.09375 -1.421875 
Q 22.515625 -1.421875 17.65625 -0.515625 
Q 12.796875 0.390625 7.625 2.203125 
L 7.625 11.71875 
Q 11.71875 9.328125 16.59375 8.109375 
Q 21.484375 6.890625 26.8125 6.890625 
Q 36.078125 6.890625 40.9375 10.546875 
Q 45.796875 14.203125 45.796875 21.1875 
Q 45.796875 27.640625 41.28125 31.265625 
Q 36.765625 34.90625 28.71875 34.90625 
L 20.21875 34.90625 
L 20.21875 43.015625 
L 29.109375 43.015625 
Q 36.375 43.015625 40.234375 45.921875 
Q 44.09375 48.828125 44.09375 54.296875 
Q 44.09375 59.90625 40.109375 62.90625 
Q 36.140625 65.921875 28.71875 65.921875 
Q 24.65625 65.921875 20.015625 65.03125 
Q 15.375 64.15625 9.8125 62.3125 
L 9.8125 71.09375 
Q 15.4375 72.65625 20.34375 73.4375 
Q 25.25 74.21875 29.59375 74.21875 
Q 40.828125 74.21875 47.359375 69.109375 
Q 53.90625 64.015625 53.90625 55.328125 
Q 53.90625 49.265625 50.4375 45.09375 
Q 46.96875 40.921875 40.578125 39.3125 
z
" id="DejaVuSans-51"/>
       </defs>
       <use xlink:href="#DejaVuSans-52"/>
       <use x="63.623047" xlink:href="#DejaVuSans-50"/>
       <use x="127.246094" xlink:href="#DejaVuSans-46"/>
       <use x="159.033203" xlink:href="#DejaVuSans-51"/>
       <use x="222.65625" xlink:href="#DejaVuSans-53"/>
       <use x="286.279297" xlink:href="#DejaVuSans-48"/>
       <use x="349.902344" xlink:href="#DejaVuSans-48"/>
      </g>
     </g>
    </g>
    <g id="ytick_2">
     <g id="line2d_11">
      <g>
       <use style="stroke:#000000;stroke-width:0.8;" x="55.553125" xlink:href="#m955f784ea2" y="233.71851"/>
      </g>
     </g>
     <g id="text_11">
      <!-- 42.3525 -->
      <g transform="translate(7.2 237.517729)scale(0.1 -0.1)">
       <use xlink:href="#DejaVuSans-52"/>
       <use x="63.623047" xlink:href="#DejaVuSans-50"/>
       <use x="127.246094" xlink:href="#DejaVuSans-46"/>
       <use x="159.033203" xlink:href="#DejaVuSans-51"/>
       <use x="222.65625" xlink:href="#DejaVuSans-53"/>
       <use x="286.279297" xlink:href="#DejaVuSans-50"/>
       <use x="349.902344" xlink:href="#DejaVuSans-53"/>
      </g>
     </g>
    </g>
    <g id="ytick_3">
     <g id="line2d_12">
      <g>
       <use style="stroke:#000000;stroke-width:0.8;" x="55.553125" xlink:href="#m955f784ea2" y="197.598462"/>
      </g>
     </g>
     <g id="text_12">
      <!-- 42.3550 -->
      <g transform="translate(7.2 201.39768)scale(0.1 -0.1)">
       <use xlink:href="#DejaVuSans-52"/>
       <use x="63.623047" xlink:href="#DejaVuSans-50"/>
       <use x="127.246094" xlink:href="#DejaVuSans-46"/>
       <use x="159.033203" xlink:href="#DejaVuSans-51"/>
       <use x="222.65625" xlink:href="#DejaVuSans-53"/>
       <use x="286.279297" xlink:href="#DejaVuSans-53"/>
       <use x="349.902344" xlink:href="#DejaVuSans-48"/>
      </g>
     </g>
    </g>
    <g id="ytick_4">
     <g id="line2d_13">
      <g>
       <use style="stroke:#000000;stroke-width:0.8;" x="55.553125" xlink:href="#m955f784ea2" y="161.478413"/>
      </g>
     </g>
     <g id="text_13">
      <!-- 42.3575 -->
      <g transform="translate(7.2 165.277632)scale(0.1 -0.1)">
       <use xlink:href="#DejaVuSans-52"/>
       <use x="63.623047" xlink:href="#DejaVuSans-50"/>
       <use x="127.246094" xlink:href="#DejaVuSans-46"/>
       <use x="159.033203" xlink:href="#DejaVuSans-51"/>
       <use x="222.65625" xlink:href="#DejaVuSans-53"/>
       <use x="286.279297" xlink:href="#DejaVuSans-55"/>
       <use x="349.902344" xlink:href="#DejaVuSans-53"/>
      </g>
     </g>
    </g>
    <g id="ytick_5">
     <g id="line2d_14">
      <g>
       <use style="stroke:#000000;stroke-width:0.8;" x="55.553125" xlink:href="#m955f784ea2" y="125.358365"/>
      </g>
     </g>
     <g id="text_14">
      <!-- 42.3600 -->
      <g transform="translate(7.2 129.157584)scale(0.1 -0.1)">
       <use xlink:href="#DejaVuSans-52"/>
       <use x="63.623047" xlink:href="#DejaVuSans-50"/>
       <use x="127.246094" xlink:href="#DejaVuSans-46"/>
       <use x="159.033203" xlink:href="#DejaVuSans-51"/>
       <use x="222.65625" xlink:href="#DejaVuSans-54"/>
       <use x="286.279297" xlink:href="#DejaVuSans-48"/>
       <use x="349.902344" xlink:href="#DejaVuSans-48"/>
      </g>
     </g>
    </g>
    <g id="ytick_6">
     <g id="line2d_15">
      <g>
       <use style="stroke:#000000;stroke-width:0.8;" x="55.553125" xlink:href="#m955f784ea2" y="89.238316"/>
      </g>
     </g>
     <g id="text_15">
      <!-- 42.3625 -->
      <g transform="translate(7.2 93.037535)scale(0.1 -0.1)">
       <use xlink:href="#DejaVuSans-52"/>
       <use x="63.623047" xlink:href="#DejaVuSans-50"/>
       <use x="127.246094" xlink:href="#DejaVuSans-46"/>
       <use x="159.033203" xlink:href="#DejaVuSans-51"/>
       <use x="222.65625" xlink:href="#DejaVuSans-54"/>
       <use x="286.279297" xlink:href="#DejaVuSans-50"/>
       <use x="349.902344" xlink:href="#DejaVuSans-53"/>
      </g>
     </g>
    </g>
    <g id="ytick_7">
     <g id="line2d_16">
      <g>
       <use style="stroke:#000000;stroke-width:0.8;" x="55.553125" xlink:href="#m955f784ea2" y="53.118268"/>
      </g>
     </g>
     <g id="text_16">
      <!-- 42.3650 -->
      <g transform="translate(7.2 56.917487)scale(0.1 -0.1)">
       <use xlink:href="#DejaVuSans-52"/>
       <use x="63.623047" xlink:href="#DejaVuSans-50"/>
       <use x="127.246094" xlink:href="#DejaVuSans-46"/>
       <use x="159.033203" xlink:href="#DejaVuSans-51"/>
       <use x="222.65625" xlink:href="#DejaVuSans-54"/>
       <use x="286.279297" xlink:href="#DejaVuSans-53"/>
       <use x="349.902344" xlink:href="#DejaVuSans-48"/>
      </g>
     </g>
    </g>
   </g>
   <g id="line2d_17">
    <path clip-path="url(#pd3fabf5967)" d="M 186.376906 151.986064 
L 126.706586 250.709381 
L 163.505691 245.450302 
L 163.505691 245.450302 
L 215.89421 170.248361 
L 215.89421 170.248361 
L 224.505229 160.033611 
L 325.540228 121.89084 
L 259.44054 78.619022 
L 266.707894 57.77053 
L 266.707894 57.77053 
L 319.876605 68.447617 
L 319.876605 68.447617 
L 319.876605 68.447617 
L 314.155189 31.287311 
L 318.764107 43.654815 
L 275.275569 77.867725 
L 105.699166 150.367886 
L 92.46478 279.460939 
L 92.46478 279.460939 
L 193.817636 244.019948 
" style="fill:none;stroke:#7b68ee;stroke-linecap:square;stroke-width:1.5;"/>
   </g>
   <g id="line2d_18">
    <path clip-path="url(#pd3fabf5967)" d="M 186.376906 151.986064 
L 155.804897 110.679177 
L 155.804897 110.679177 
L 86.107652 64.257691 
L 64.522311 136.858988 
" style="fill:none;stroke:#008b8b;stroke-linecap:square;stroke-width:1.5;"/>
   </g>
   <g id="line2d_19">
    <path clip-path="url(#pd3fabf5967)" d="M 186.376906 151.986064 
L 157.451971 126.456414 
L 224.505229 160.033611 
L 363.495175 252.370903 
L 308.014781 75.440458 
L 308.144813 75.64273 
L 326.017013 69.73349 
L 318.764107 43.654815 
L 314.155189 31.287311 
L 314.155189 31.287311 
L 291.775207 58.290659 
L 266.707894 57.77053 
L 266.707894 57.77053 
L 248.113293 54.620862 
L 248.113293 54.620862 
L 231.526966 60.746822 
L 215.605249 70.860436 
L 163.086699 59.879941 
L 163.086699 59.879941 
" style="fill:none;stroke:#cd5c5c;stroke-linecap:square;stroke-width:1.5;"/>
   </g>
   <g id="patch_3">
    <path d="M 55.553125 288.430125 
L 55.553125 22.318125 
" style="fill:none;stroke:#000000;stroke-linecap:square;stroke-linejoin:miter;stroke-width:0.8;"/>
   </g>
   <g id="patch_4">
    <path d="M 372.464361 288.430125 
L 372.464361 22.318125 
" style="fill:none;stroke:#000000;stroke-linecap:square;stroke-linejoin:miter;stroke-width:0.8;"/>
   </g>
   <g id="patch_5">
    <path d="M 55.553125 288.430125 
L 372.464361 288.430125 
" style="fill:none;stroke:#000000;stroke-linecap:square;stroke-linejoin:miter;stroke-width:0.8;"/>
   </g>
   <g id="patch_6">
    <path d="M 55.553125 22.318125 
L 372.464361 22.318125 
" style="fill:none;stroke:#000000;stroke-linecap:square;stroke-linejoin:miter;stroke-width:0.8;"/>
   </g>
   <g id="text_17">
    <!-- 11:30 -->
    <g style="fill:#7b68ee;" transform="translate(178.376906 146.986064)scale(0.0579 -0.0579)">
     <defs>
      <path d="M 11.71875 12.40625 
L 22.015625 12.40625 
L 22.015625 0 
L 11.71875 0 
z
M 11.71875 51.703125 
L 22.015625 51.703125 
L 22.015625 39.3125 
L 11.71875 39.3125 
z
" id="DejaVuSans-58"/>
     </defs>
     <use xlink:href="#DejaVuSans-49"/>
     <use x="63.623047" xlink:href="#DejaVuSans-49"/>
     <use x="127.246094" xlink:href="#DejaVuSans-58"/>
     <use x="160.9375" xlink:href="#DejaVuSans-51"/>
     <use x="224.560547" xlink:href="#DejaVuSans-48"/>
    </g>
   </g>
   <g id="text_18">
    <!-- 11:34 -->
    <g style="fill:#7b68ee;" transform="translate(155.505691 240.450302)scale(0.0579 -0.0579)">
     <use xlink:href="#DejaVuSans-49"/>
     <use x="63.623047" xlink:href="#DejaVuSans-49"/>
     <use x="127.246094" xlink:href="#DejaVuSans-58"/>
     <use x="160.9375" xlink:href="#DejaVuSans-51"/>
     <use x="224.560547" xlink:href="#DejaVuSans-52"/>
    </g>
   </g>
   <g id="text_19">
    <!-- 11:40 -->
    <g style="fill:#7b68ee;" transform="translate(207.89421 165.248361)scale(0.0579 -0.0579)">
     <use xlink:href="#DejaVuSans-49"/>
     <use x="63.623047" xlink:href="#DejaVuSans-49"/>
     <use x="127.246094" xlink:href="#DejaVuSans-58"/>
     <use x="160.9375" xlink:href="#DejaVuSans-52"/>
     <use x="224.560547" xlink:href="#DejaVuSans-48"/>
    </g>
   </g>
   <g id="text_20">
    <!-- 11:44 -->
    <g style="fill:#7b68ee;" transform="translate(216.505229 155.033611)scale(0.0579 -0.0579)">
     <use xlink:href="#DejaVuSans-49"/>
     <use x="63.623047" xlink:href="#DejaVuSans-49"/>
     <use x="127.246094" xlink:href="#DejaVuSans-58"/>
     <use x="160.9375" xlink:href="#DejaVuSans-52"/>
     <use x="224.560547" xlink:href="#DejaVuSans-52"/>
    </g>
   </g>
   <g id="text_21">
    <!-- 11:52 -->
    <g style="fill:#7b68ee;" transform="translate(251.44054 73.619022)scale(0.0579 -0.0579)">
     <use xlink:href="#DejaVuSans-49"/>
     <use x="63.623047" xlink:href="#DejaVuSans-49"/>
     <use x="127.246094" xlink:href="#DejaVuSans-58"/>
     <use x="160.9375" xlink:href="#DejaVuSans-53"/>
     <use x="224.560547" xlink:href="#DejaVuSans-50"/>
    </g>
   </g>
   <g id="text_22">
    <!-- 11:56 -->
    <g style="fill:#7b68ee;" transform="translate(258.707894 52.77053)scale(0.0579 -0.0579)">
     <use xlink:href="#DejaVuSans-49"/>
     <use x="63.623047" xlink:href="#DejaVuSans-49"/>
     <use x="127.246094" xlink:href="#DejaVuSans-58"/>
     <use x="160.9375" xlink:href="#DejaVuSans-53"/>
     <use x="224.560547" xlink:href="#DejaVuSans-54"/>
    </g>
   </g>
   <g id="text_23">
    <!-- 12:02 -->
    <g style="fill:#7b68ee;" transform="translate(311.876605 63.447617)scale(0.0579 -0.0579)">
     <use xlink:href="#DejaVuSans-49"/>
     <use x="63.623047" xlink:href="#DejaVuSans-50"/>
     <use x="127.246094" xlink:href="#DejaVuSans-58"/>
     <use x="160.9375" xlink:href="#DejaVuSans-48"/>
     <use x="224.560547" xlink:href="#DejaVuSans-50"/>
    </g>
   </g>
   <g id="text_24">
    <!-- 12:07 -->
    <g style="fill:#7b68ee;" transform="translate(306.155189 26.287311)scale(0.0579 -0.0579)">
     <use xlink:href="#DejaVuSans-49"/>
     <use x="63.623047" xlink:href="#DejaVuSans-50"/>
     <use x="127.246094" xlink:href="#DejaVuSans-58"/>
     <use x="160.9375" xlink:href="#DejaVuSans-48"/>
     <use x="224.560547" xlink:href="#DejaVuSans-55"/>
    </g>
   </g>
   <g id="text_25">
    <!-- 12:12 -->
    <g style="fill:#7b68ee;" transform="translate(267.275569 72.867725)scale(0.0579 -0.0579)">
     <use xlink:href="#DejaVuSans-49"/>
     <use x="63.623047" xlink:href="#DejaVuSans-50"/>
     <use x="127.246094" xlink:href="#DejaVuSans-58"/>
     <use x="160.9375" xlink:href="#DejaVuSans-49"/>
     <use x="224.560547" xlink:href="#DejaVuSans-50"/>
    </g>
   </g>
   <g id="text_26">
    <!-- 12:24 -->
    <g style="fill:#7b68ee;" transform="translate(84.46478 274.460939)scale(0.0579 -0.0579)">
     <use xlink:href="#DejaVuSans-49"/>
     <use x="63.623047" xlink:href="#DejaVuSans-50"/>
     <use x="127.246094" xlink:href="#DejaVuSans-58"/>
     <use x="160.9375" xlink:href="#DejaVuSans-50"/>
     <use x="224.560547" xlink:href="#DejaVuSans-52"/>
    </g>
   </g>
   <g id="text_27">
    <!-- 12:31 -->
    <g style="fill:#7b68ee;" transform="translate(185.817636 239.019948)scale(0.0579 -0.0579)">
     <use xlink:href="#DejaVuSans-49"/>
     <use x="63.623047" xlink:href="#DejaVuSans-50"/>
     <use x="127.246094" xlink:href="#DejaVuSans-58"/>
     <use x="160.9375" xlink:href="#DejaVuSans-51"/>
     <use x="224.560547" xlink:href="#DejaVuSans-49"/>
    </g>
   </g>
   <g id="text_28">
    <!-- 11:52 -->
    <g style="fill:#008b8b;" transform="translate(178.376906 146.986064)scale(0.0579 -0.0579)">
     <use xlink:href="#DejaVuSans-49"/>
     <use x="63.623047" xlink:href="#DejaVuSans-49"/>
     <use x="127.246094" xlink:href="#DejaVuSans-58"/>
     <use x="160.9375" xlink:href="#DejaVuSans-53"/>
     <use x="224.560547" xlink:href="#DejaVuSans-50"/>
    </g>
   </g>
   <g id="text_29">
    <!-- 11:56 -->
    <g style="fill:#008b8b;" transform="translate(147.804897 105.679177)scale(0.0579 -0.0579)">
     <use xlink:href="#DejaVuSans-49"/>
     <use x="63.623047" xlink:href="#DejaVuSans-49"/>
     <use x="127.246094" xlink:href="#DejaVuSans-58"/>
     <use x="160.9375" xlink:href="#DejaVuSans-53"/>
     <use x="224.560547" xlink:href="#DejaVuSans-54"/>
    </g>
   </g>
   <g id="text_30">
    <!-- 12:04 -->
    <g style="fill:#008b8b;" transform="translate(56.522311 131.858988)scale(0.0579 -0.0579)">
     <use xlink:href="#DejaVuSans-49"/>
     <use x="63.623047" xlink:href="#DejaVuSans-50"/>
     <use x="127.246094" xlink:href="#DejaVuSans-58"/>
     <use x="160.9375" xlink:href="#DejaVuSans-48"/>
     <use x="224.560547" xlink:href="#DejaVuSans-52"/>
    </g>
   </g>
   <g id="text_31">
    <!-- 11:36 -->
    <g style="fill:#cd5c5c;" transform="translate(178.376906 146.986064)scale(0.0579 -0.0579)">
     <use xlink:href="#DejaVuSans-49"/>
     <use x="63.623047" xlink:href="#DejaVuSans-49"/>
     <use x="127.246094" xlink:href="#DejaVuSans-58"/>
     <use x="160.9375" xlink:href="#DejaVuSans-51"/>
     <use x="224.560547" xlink:href="#DejaVuSans-54"/>
    </g>
   </g>
   <g id="text_32">
    <!-- 11:41 -->
    <g style="fill:#cd5c5c;" transform="translate(216.505229 155.033611)scale(0.0579 -0.0579)">
     <use xlink:href="#DejaVuSans-49"/>
     <use x="63.623047" xlink:href="#DejaVuSans-49"/>
     <use x="127.246094" xlink:href="#DejaVuSans-58"/>
     <use x="160.9375" xlink:href="#DejaVuSans-52"/>
     <use x="224.560547" xlink:href="#DejaVuSans-49"/>
    </g>
   </g>
   <g id="text_33">
    <!-- 11:52 -->
    <g style="fill:#cd5c5c;" transform="translate(300.014781 70.440458)scale(0.0579 -0.0579)">
     <use xlink:href="#DejaVuSans-49"/>
     <use x="63.623047" xlink:href="#DejaVuSans-49"/>
     <use x="127.246094" xlink:href="#DejaVuSans-58"/>
     <use x="160.9375" xlink:href="#DejaVuSans-53"/>
     <use x="224.560547" xlink:href="#DejaVuSans-50"/>
    </g>
   </g>
   <g id="text_34">
    <!-- 11:57 -->
    <g style="fill:#cd5c5c;" transform="translate(318.017013 64.73349)scale(0.0579 -0.0579)">
     <use xlink:href="#DejaVuSans-49"/>
     <use x="63.623047" xlink:href="#DejaVuSans-49"/>
     <use x="127.246094" xlink:href="#DejaVuSans-58"/>
     <use x="160.9375" xlink:href="#DejaVuSans-53"/>
     <use x="224.560547" xlink:href="#DejaVuSans-55"/>
    </g>
   </g>
   <g id="text_35">
    <!-- 12:02 -->
    <g style="fill:#cd5c5c;" transform="translate(306.155189 26.287311)scale(0.0579 -0.0579)">
     <use xlink:href="#DejaVuSans-49"/>
     <use x="63.623047" xlink:href="#DejaVuSans-50"/>
     <use x="127.246094" xlink:href="#DejaVuSans-58"/>
     <use x="160.9375" xlink:href="#DejaVuSans-48"/>
     <use x="224.560547" xlink:href="#DejaVuSans-50"/>
    </g>
   </g>
   <g id="text_36">
    <!-- 12:06 -->
    <g style="fill:#cd5c5c;" transform="translate(283.775207 53.290659)scale(0.0579 -0.0579)">
     <use xlink:href="#DejaVuSans-49"/>
     <use x="63.623047" xlink:href="#DejaVuSans-50"/>
     <use x="127.246094" xlink:href="#DejaVuSans-58"/>
     <use x="160.9375" xlink:href="#DejaVuSans-48"/>
     <use x="224.560547" xlink:href="#DejaVuSans-54"/>
    </g>
   </g>
   <g id="text_37">
    <!-- 12:11 -->
    <g style="fill:#cd5c5c;" transform="translate(258.707894 52.77053)scale(0.0579 -0.0579)">
     <use xlink:href="#DejaVuSans-49"/>
     <use x="63.623047" xlink:href="#DejaVuSans-50"/>
     <use x="127.246094" xlink:href="#DejaVuSans-58"/>
     <use x="160.9375" xlink:href="#DejaVuSans-49"/>
     <use x="224.560547" xlink:href="#DejaVuSans-49"/>
    </g>
   </g>
   <g id="text_38">
    <!-- 12:17 -->
    <g style="fill:#cd5c5c;" transform="translate(240.113293 49.620862)scale(0.0579 -0.0579)">
     <use xlink:href="#DejaVuSans-49"/>
     <use x="63.623047" xlink:href="#DejaVuSans-50"/>
     <use x="127.246094" xlink:href="#DejaVuSans-58"/>
     <use x="160.9375" xlink:href="#DejaVuSans-49"/>
     <use x="224.560547" xlink:href="#DejaVuSans-55"/>
    </g>
   </g>
   <g id="text_39">
    <!-- 12:23 -->
    <g style="fill:#cd5c5c;" transform="translate(207.605249 65.860436)scale(0.0579 -0.0579)">
     <use xlink:href="#DejaVuSans-49"/>
     <use x="63.623047" xlink:href="#DejaVuSans-50"/>
     <use x="127.246094" xlink:href="#DejaVuSans-58"/>
     <use x="160.9375" xlink:href="#DejaVuSans-50"/>
     <use x="224.560547" xlink:href="#DejaVuSans-51"/>
    </g>
   </g>
   <g id="text_40">
    <!-- 12:29 -->
    <g style="fill:#cd5c5c;" transform="translate(155.086699 54.879941)scale(0.0579 -0.0579)">
     <defs>
      <path d="M 10.984375 1.515625 
L 10.984375 10.5 
Q 14.703125 8.734375 18.5 7.8125 
Q 22.3125 6.890625 25.984375 6.890625 
Q 35.75 6.890625 40.890625 13.453125 
Q 46.046875 20.015625 46.78125 33.40625 
Q 43.953125 29.203125 39.59375 26.953125 
Q 35.25 24.703125 29.984375 24.703125 
Q 19.046875 24.703125 12.671875 31.3125 
Q 6.296875 37.9375 6.296875 49.421875 
Q 6.296875 60.640625 12.9375 67.421875 
Q 19.578125 74.21875 30.609375 74.21875 
Q 43.265625 74.21875 49.921875 64.515625 
Q 56.59375 54.828125 56.59375 36.375 
Q 56.59375 19.140625 48.40625 8.859375 
Q 40.234375 -1.421875 26.421875 -1.421875 
Q 22.703125 -1.421875 18.890625 -0.6875 
Q 15.09375 0.046875 10.984375 1.515625 
z
M 30.609375 32.421875 
Q 37.25 32.421875 41.125 36.953125 
Q 45.015625 41.5 45.015625 49.421875 
Q 45.015625 57.28125 41.125 61.84375 
Q 37.25 66.40625 30.609375 66.40625 
Q 23.96875 66.40625 20.09375 61.84375 
Q 16.21875 57.28125 16.21875 49.421875 
Q 16.21875 41.5 20.09375 36.953125 
Q 23.96875 32.421875 30.609375 32.421875 
z
" id="DejaVuSans-57"/>
     </defs>
     <use xlink:href="#DejaVuSans-49"/>
     <use x="63.623047" xlink:href="#DejaVuSans-50"/>
     <use x="127.246094" xlink:href="#DejaVuSans-58"/>
     <use x="160.9375" xlink:href="#DejaVuSans-50"/>
     <use x="224.560547" xlink:href="#DejaVuSans-57"/>
    </g>
   </g>
   <g id="text_41">
    <!-- 21 deliveries ; cost: 2875 ; distance: 19438 m -->
    <g transform="translate(75.93093 16.318125)scale(0.12 -0.12)">
     <defs>
      <path id="DejaVuSans-32"/>
      <path d="M 45.40625 46.390625 
L 45.40625 75.984375 
L 54.390625 75.984375 
L 54.390625 0 
L 45.40625 0 
L 45.40625 8.203125 
Q 42.578125 3.328125 38.25 0.953125 
Q 33.9375 -1.421875 27.875 -1.421875 
Q 17.96875 -1.421875 11.734375 6.484375 
Q 5.515625 14.40625 5.515625 27.296875 
Q 5.515625 40.1875 11.734375 48.09375 
Q 17.96875 56 27.875 56 
Q 33.9375 56 38.25 53.625 
Q 42.578125 51.265625 45.40625 46.390625 
z
M 14.796875 27.296875 
Q 14.796875 17.390625 18.875 11.75 
Q 22.953125 6.109375 30.078125 6.109375 
Q 37.203125 6.109375 41.296875 11.75 
Q 45.40625 17.390625 45.40625 27.296875 
Q 45.40625 37.203125 41.296875 42.84375 
Q 37.203125 48.484375 30.078125 48.484375 
Q 22.953125 48.484375 18.875 42.84375 
Q 14.796875 37.203125 14.796875 27.296875 
z
" id="DejaVuSans-100"/>
      <path d="M 56.203125 29.59375 
L 56.203125 25.203125 
L 14.890625 25.203125 
Q 15.484375 15.921875 20.484375 11.0625 
Q 25.484375 6.203125 34.421875 6.203125 
Q 39.59375 6.203125 44.453125 7.46875 
Q 49.3125 8.734375 54.109375 11.28125 
L 54.109375 2.78125 
Q 49.265625 0.734375 44.1875 -0.34375 
Q 39.109375 -1.421875 33.890625 -1.421875 
Q 20.796875 -1.421875 13.15625 6.1875 
Q 5.515625 13.8125 5.515625 26.8125 
Q 5.515625 40.234375 12.765625 48.109375 
Q 20.015625 56 32.328125 56 
Q 43.359375 56 49.78125 48.890625 
Q 56.203125 41.796875 56.203125 29.59375 
z
M 47.21875 32.234375 
Q 47.125 39.59375 43.09375 43.984375 
Q 39.0625 48.390625 32.421875 48.390625 
Q 24.90625 48.390625 20.390625 44.140625 
Q 15.875 39.890625 15.1875 32.171875 
z
" id="DejaVuSans-101"/>
      <path d="M 9.421875 75.984375 
L 18.40625 75.984375 
L 18.40625 0 
L 9.421875 0 
z
" id="DejaVuSans-108"/>
      <path d="M 9.421875 54.6875 
L 18.40625 54.6875 
L 18.40625 0 
L 9.421875 0 
z
M 9.421875 75.984375 
L 18.40625 75.984375 
L 18.40625 64.59375 
L 9.421875 64.59375 
z
" id="DejaVuSans-105"/>
      <path d="M 2.984375 54.6875 
L 12.5 54.6875 
L 29.59375 8.796875 
L 46.6875 54.6875 
L 56.203125 54.6875 
L 35.6875 0 
L 23.484375 0 
z
" id="DejaVuSans-118"/>
      <path d="M 41.109375 46.296875 
Q 39.59375 47.171875 37.8125 47.578125 
Q 36.03125 48 33.890625 48 
Q 26.265625 48 22.1875 43.046875 
Q 18.109375 38.09375 18.109375 28.8125 
L 18.109375 0 
L 9.078125 0 
L 9.078125 54.6875 
L 18.109375 54.6875 
L 18.109375 46.1875 
Q 20.953125 51.171875 25.484375 53.578125 
Q 30.03125 56 36.53125 56 
Q 37.453125 56 38.578125 55.875 
Q 39.703125 55.765625 41.0625 55.515625 
z
" id="DejaVuSans-114"/>
      <path d="M 44.28125 53.078125 
L 44.28125 44.578125 
Q 40.484375 46.53125 36.375 47.5 
Q 32.28125 48.484375 27.875 48.484375 
Q 21.1875 48.484375 17.84375 46.4375 
Q 14.5 44.390625 14.5 40.28125 
Q 14.5 37.15625 16.890625 35.375 
Q 19.28125 33.59375 26.515625 31.984375 
L 29.59375 31.296875 
Q 39.15625 29.25 43.1875 25.515625 
Q 47.21875 21.78125 47.21875 15.09375 
Q 47.21875 7.46875 41.1875 3.015625 
Q 35.15625 -1.421875 24.609375 -1.421875 
Q 20.21875 -1.421875 15.453125 -0.5625 
Q 10.6875 0.296875 5.421875 2 
L 5.421875 11.28125 
Q 10.40625 8.6875 15.234375 7.390625 
Q 20.0625 6.109375 24.8125 6.109375 
Q 31.15625 6.109375 34.5625 8.28125 
Q 37.984375 10.453125 37.984375 14.40625 
Q 37.984375 18.0625 35.515625 20.015625 
Q 33.0625 21.96875 24.703125 23.78125 
L 21.578125 24.515625 
Q 13.234375 26.265625 9.515625 29.90625 
Q 5.8125 33.546875 5.8125 39.890625 
Q 5.8125 47.609375 11.28125 51.796875 
Q 16.75 56 26.8125 56 
Q 31.78125 56 36.171875 55.265625 
Q 40.578125 54.546875 44.28125 53.078125 
z
" id="DejaVuSans-115"/>
      <path d="M 11.71875 51.703125 
L 22.015625 51.703125 
L 22.015625 39.3125 
L 11.71875 39.3125 
z
M 11.71875 12.40625 
L 22.015625 12.40625 
L 22.015625 4 
L 14.015625 -11.625 
L 7.71875 -11.625 
L 11.71875 4 
z
" id="DejaVuSans-59"/>
      <path d="M 48.78125 52.59375 
L 48.78125 44.1875 
Q 44.96875 46.296875 41.140625 47.34375 
Q 37.3125 48.390625 33.40625 48.390625 
Q 24.65625 48.390625 19.8125 42.84375 
Q 14.984375 37.3125 14.984375 27.296875 
Q 14.984375 17.28125 19.8125 11.734375 
Q 24.65625 6.203125 33.40625 6.203125 
Q 37.3125 6.203125 41.140625 7.25 
Q 44.96875 8.296875 48.78125 10.40625 
L 48.78125 2.09375 
Q 45.015625 0.34375 40.984375 -0.53125 
Q 36.96875 -1.421875 32.421875 -1.421875 
Q 20.0625 -1.421875 12.78125 6.34375 
Q 5.515625 14.109375 5.515625 27.296875 
Q 5.515625 40.671875 12.859375 48.328125 
Q 20.21875 56 33.015625 56 
Q 37.15625 56 41.109375 55.140625 
Q 45.0625 54.296875 48.78125 52.59375 
z
" id="DejaVuSans-99"/>
      <path d="M 30.609375 48.390625 
Q 23.390625 48.390625 19.1875 42.75 
Q 14.984375 37.109375 14.984375 27.296875 
Q 14.984375 17.484375 19.15625 11.84375 
Q 23.34375 6.203125 30.609375 6.203125 
Q 37.796875 6.203125 41.984375 11.859375 
Q 46.1875 17.53125 46.1875 27.296875 
Q 46.1875 37.015625 41.984375 42.703125 
Q 37.796875 48.390625 30.609375 48.390625 
z
M 30.609375 56 
Q 42.328125 56 49.015625 48.375 
Q 55.71875 40.765625 55.71875 27.296875 
Q 55.71875 13.875 49.015625 6.21875 
Q 42.328125 -1.421875 30.609375 -1.421875 
Q 18.84375 -1.421875 12.171875 6.21875 
Q 5.515625 13.875 5.515625 27.296875 
Q 5.515625 40.765625 12.171875 48.375 
Q 18.84375 56 30.609375 56 
z
" id="DejaVuSans-111"/>
      <path d="M 18.3125 70.21875 
L 18.3125 54.6875 
L 36.8125 54.6875 
L 36.8125 47.703125 
L 18.3125 47.703125 
L 18.3125 18.015625 
Q 18.3125 11.328125 20.140625 9.421875 
Q 21.96875 7.515625 27.59375 7.515625 
L 36.8125 7.515625 
L 36.8125 0 
L 27.59375 0 
Q 17.1875 0 13.234375 3.875 
Q 9.28125 7.765625 9.28125 18.015625 
L 9.28125 47.703125 
L 2.6875 47.703125 
L 2.6875 54.6875 
L 9.28125 54.6875 
L 9.28125 70.21875 
z
" id="DejaVuSans-116"/>
      <path d="M 31.78125 34.625 
Q 24.75 34.625 20.71875 30.859375 
Q 16.703125 27.09375 16.703125 20.515625 
Q 16.703125 13.921875 20.71875 10.15625 
Q 24.75 6.390625 31.78125 6.390625 
Q 38.8125 6.390625 42.859375 10.171875 
Q 46.921875 13.96875 46.921875 20.515625 
Q 46.921875 27.09375 42.890625 30.859375 
Q 38.875 34.625 31.78125 34.625 
z
M 21.921875 38.8125 
Q 15.578125 40.375 12.03125 44.71875 
Q 8.5 49.078125 8.5 55.328125 
Q 8.5 64.0625 14.71875 69.140625 
Q 20.953125 74.21875 31.78125 74.21875 
Q 42.671875 74.21875 48.875 69.140625 
Q 55.078125 64.0625 55.078125 55.328125 
Q 55.078125 49.078125 51.53125 44.71875 
Q 48 40.375 41.703125 38.8125 
Q 48.828125 37.15625 52.796875 32.3125 
Q 56.78125 27.484375 56.78125 20.515625 
Q 56.78125 9.90625 50.3125 4.234375 
Q 43.84375 -1.421875 31.78125 -1.421875 
Q 19.734375 -1.421875 13.25 4.234375 
Q 6.78125 9.90625 6.78125 20.515625 
Q 6.78125 27.484375 10.78125 32.3125 
Q 14.796875 37.15625 21.921875 38.8125 
z
M 18.3125 54.390625 
Q 18.3125 48.734375 21.84375 45.5625 
Q 25.390625 42.390625 31.78125 42.390625 
Q 38.140625 42.390625 41.71875 45.5625 
Q 45.3125 48.734375 45.3125 54.390625 
Q 45.3125 60.0625 41.71875 63.234375 
Q 38.140625 66.40625 31.78125 66.40625 
Q 25.390625 66.40625 21.84375 63.234375 
Q 18.3125 60.0625 18.3125 54.390625 
z
" id="DejaVuSans-56"/>
      <path d="M 34.28125 27.484375 
Q 23.390625 27.484375 19.1875 25 
Q 14.984375 22.515625 14.984375 16.5 
Q 14.984375 11.71875 18.140625 8.90625 
Q 21.296875 6.109375 26.703125 6.109375 
Q 34.1875 6.109375 38.703125 11.40625 
Q 43.21875 16.703125 43.21875 25.484375 
L 43.21875 27.484375 
z
M 52.203125 31.203125 
L 52.203125 0 
L 43.21875 0 
L 43.21875 8.296875 
Q 40.140625 3.328125 35.546875 0.953125 
Q 30.953125 -1.421875 24.3125 -1.421875 
Q 15.921875 -1.421875 10.953125 3.296875 
Q 6 8.015625 6 15.921875 
Q 6 25.140625 12.171875 29.828125 
Q 18.359375 34.515625 30.609375 34.515625 
L 43.21875 34.515625 
L 43.21875 35.40625 
Q 43.21875 41.609375 39.140625 45 
Q 35.0625 48.390625 27.6875 48.390625 
Q 23 48.390625 18.546875 47.265625 
Q 14.109375 46.140625 10.015625 43.890625 
L 10.015625 52.203125 
Q 14.9375 54.109375 19.578125 55.046875 
Q 24.21875 56 28.609375 56 
Q 40.484375 56 46.34375 49.84375 
Q 52.203125 43.703125 52.203125 31.203125 
z
" id="DejaVuSans-97"/>
      <path d="M 54.890625 33.015625 
L 54.890625 0 
L 45.90625 0 
L 45.90625 32.71875 
Q 45.90625 40.484375 42.875 44.328125 
Q 39.84375 48.1875 33.796875 48.1875 
Q 26.515625 48.1875 22.3125 43.546875 
Q 18.109375 38.921875 18.109375 30.90625 
L 18.109375 0 
L 9.078125 0 
L 9.078125 54.6875 
L 18.109375 54.6875 
L 18.109375 46.1875 
Q 21.34375 51.125 25.703125 53.5625 
Q 30.078125 56 35.796875 56 
Q 45.21875 56 50.046875 50.171875 
Q 54.890625 44.34375 54.890625 33.015625 
z
" id="DejaVuSans-110"/>
      <path d="M 52 44.1875 
Q 55.375 50.25 60.0625 53.125 
Q 64.75 56 71.09375 56 
Q 79.640625 56 84.28125 50.015625 
Q 88.921875 44.046875 88.921875 33.015625 
L 88.921875 0 
L 79.890625 0 
L 79.890625 32.71875 
Q 79.890625 40.578125 77.09375 44.375 
Q 74.3125 48.1875 68.609375 48.1875 
Q 61.625 48.1875 57.5625 43.546875 
Q 53.515625 38.921875 53.515625 30.90625 
L 53.515625 0 
L 44.484375 0 
L 44.484375 32.71875 
Q 44.484375 40.625 41.703125 44.40625 
Q 38.921875 48.1875 33.109375 48.1875 
Q 26.21875 48.1875 22.15625 43.53125 
Q 18.109375 38.875 18.109375 30.90625 
L 18.109375 0 
L 9.078125 0 
L 9.078125 54.6875 
L 18.109375 54.6875 
L 18.109375 46.1875 
Q 21.1875 51.21875 25.484375 53.609375 
Q 29.78125 56 35.6875 56 
Q 41.65625 56 45.828125 52.96875 
Q 50 49.953125 52 44.1875 
z
" id="DejaVuSans-109"/>
     </defs>
     <use xlink:href="#DejaVuSans-50"/>
     <use x="63.623047" xlink:href="#DejaVuSans-49"/>
     <use x="127.246094" xlink:href="#DejaVuSans-32"/>
     <use x="159.033203" xlink:href="#DejaVuSans-100"/>
     <use x="222.509766" xlink:href="#DejaVuSans-101"/>
     <use x="284.033203" xlink:href="#DejaVuSans-108"/>
     <use x="311.816406" xlink:href="#DejaVuSans-105"/>
     <use x="339.599609" xlink:href="#DejaVuSans-118"/>
     <use x="398.779297" xlink:href="#DejaVuSans-101"/>
     <use x="460.302734" xlink:href="#DejaVuSans-114"/>
     <use x="501.416016" xlink:href="#DejaVuSans-105"/>
     <use x="529.199219" xlink:href="#DejaVuSans-101"/>
     <use x="590.722656" xlink:href="#DejaVuSans-115"/>
     <use x="642.822266" xlink:href="#DejaVuSans-32"/>
     <use x="674.609375" xlink:href="#DejaVuSans-59"/>
     <use x="708.300781" xlink:href="#DejaVuSans-32"/>
     <use x="740.087891" xlink:href="#DejaVuSans-99"/>
     <use x="795.068359" xlink:href="#DejaVuSans-111"/>
     <use x="856.25" xlink:href="#DejaVuSans-115"/>
     <use x="908.349609" xlink:href="#DejaVuSans-116"/>
     <use x="947.558594" xlink:href="#DejaVuSans-58"/>
     <use x="981.25" xlink:href="#DejaVuSans-32"/>
     <use x="1013.037109" xlink:href="#DejaVuSans-50"/>
     <use x="1076.660156" xlink:href="#DejaVuSans-56"/>
     <use x="1140.283203" xlink:href="#DejaVuSans-55"/>
     <use x="1203.90625" xlink:href="#DejaVuSans-53"/>
     <use x="1267.529297" xlink:href="#DejaVuSans-32"/>
     <use x="1299.316406" xlink:href="#DejaVuSans-59"/>
     <use x="1333.007812" xlink:href="#DejaVuSans-32"/>
     <use x="1364.794922" xlink:href="#DejaVuSans-100"/>
     <use x="1428.271484" xlink:href="#DejaVuSans-105"/>
     <use x="1456.054688" xlink:href="#DejaVuSans-115"/>
     <use x="1508.154297" xlink:href="#DejaVuSans-116"/>
     <use x="1547.363281" xlink:href="#DejaVuSans-97"/>
     <use x="1608.642578" xlink:href="#DejaVuSans-110"/>
     <use x="1672.021484" xlink:href="#DejaVuSans-99"/>
     <use x="1727.001953" xlink:href="#DejaVuSans-101"/>
     <use x="1788.525391" xlink:href="#DejaVuSans-58"/>
     <use x="1822.216797" xlink:href="#DejaVuSans-32"/>
     <use x="1854.003906" xlink:href="#DejaVuSans-49"/>
     <use x="1917.626953" xlink:href="#DejaVuSans-57"/>
     <use x="1981.25" xlink:href="#DejaVuSans-52"/>
     <use x="2044.873047" xlink:href="#DejaVuSans-51"/>
     <use x="2108.496094" xlink:href="#DejaVuSans-56"/>
     <use x="2172.119141" xlink:href="#DejaVuSans-32"/>
     <use x="2203.90625" xlink:href="#DejaVuSans-109"/>
    </g>
   </g>
  </g>
 </g>
 <defs>
  <clipPath id="pd3fabf5967">
   <rect height="266.112" width="316.911236" x="55.553125" y="22.318125"/>
  </clipPath>
 </defs>
</svg>
